<svg width="410" height="71" viewBox="0 0 410 71" fill="none" xmlns="http://www.w3.org/2000/svg">
<path d="M404.298 50.809C404.229 55.409 401.193 58.537 396.271 58.537C391.303 58.537 388.428 55.294 388.428 50.809C388.428 46.163 391.74 43.127 396.639 43.127C401.653 43.127 404.367 46.393 404.298 50.809ZM402.09 51.66C402.09 48.164 400.618 43.978 396.271 43.978C392.338 43.978 390.566 46.255 390.566 49.751C390.566 53.201 392.452 57.617 396.799 57.617C400.64 57.617 402.09 54.903 402.09 51.66Z" fill="#790A09"/>
<path d="M382.913 58.192C382.913 58.192 380.429 58.261 379.555 58.192C380.061 57.939 380.176 57.364 380.176 56.329V49.866C380.176 48.532 380.176 45.703 380.176 44.898C380.176 44.254 379.992 43.656 379.555 43.334C379.555 43.334 380.866 43.403 382.844 43.403C382.223 43.702 382.223 44.346 382.223 45.381C382.223 45.381 382.223 53.408 382.223 56.007C382.223 57.824 382.913 58.192 382.913 58.192Z" fill="#790A09"/>
<path d="M373.532 58.192C373.532 58.192 371.048 58.261 370.174 58.192C370.68 57.939 370.795 57.364 370.795 56.329V50.487H363.274V56.007C363.274 57.824 363.964 58.192 363.964 58.192C363.964 58.192 361.48 58.261 360.606 58.192C361.112 57.939 361.227 57.364 361.227 56.329V44.898C361.227 44.254 361.043 43.656 360.606 43.334C360.606 43.334 361.917 43.403 363.895 43.403C363.274 43.702 363.274 44.346 363.274 45.381V49.682H370.795V44.898C370.795 44.254 370.611 43.656 370.174 43.334C370.174 43.334 371.485 43.403 373.486 43.403C372.842 43.702 372.842 44.346 372.842 45.381V56.007C372.842 57.824 373.532 58.192 373.532 58.192Z" fill="#790A09"/>
<path d="M354.929 57.594C353.48 58.169 350.973 58.376 349.363 58.376C344.165 58.376 341.244 55.271 341.244 50.51C341.244 45.795 344.901 43.035 349.823 43.035C351.318 43.035 353.457 43.15 354.86 43.61C354.86 43.61 354.929 45.243 354.86 46.048C354.492 44.921 352.491 43.863 349.777 43.863C345.867 43.863 343.567 46.278 343.567 49.751C343.567 54.006 346.005 57.41 350.904 57.41C352.353 57.41 354.239 56.467 354.906 55.616L354.929 57.594Z" fill="#790A09"/>
<path d="M337.56 58.238H334.524L328.475 50.211V55.271C328.475 57.755 328.774 57.939 329.211 58.238C329.211 58.238 326.842 58.192 325.968 58.192C326.658 57.686 326.474 53.891 326.474 53.086V45.818C326.474 44.645 326.474 43.587 325.853 43.334C327.233 43.334 328.383 43.288 330.131 43.288C332.753 43.288 335.26 43.886 335.306 47.175C335.352 49.659 332.27 50.579 331.281 50.648C331.281 50.648 334.708 54.88 336.502 57.364C336.709 57.663 337.56 58.238 337.56 58.238ZM333.144 47.313C333.144 45.381 332.339 44.116 330.062 44.116C329.51 44.116 329.027 44.277 328.475 44.323C328.475 44.323 328.475 49.222 328.475 50.234C329.326 50.28 333.144 50.372 333.144 47.313Z" fill="#790A09"/>
<path d="M320.045 56.191L319.976 58.192H310.477C310.477 58.192 311.029 57.755 311.029 56.582C311.029 52.603 311.029 48.992 311.029 44.76C311.029 43.656 310.408 43.334 310.408 43.334L319.125 43.311V45.082C319.125 45.082 318.435 44.208 317.124 44.208C315.905 44.208 313.03 44.231 313.03 44.231V49.866C313.03 49.866 315.882 49.866 317.63 49.866C318.297 49.866 318.688 49.36 318.688 49.36V51.361C318.688 51.361 318.205 50.671 317.63 50.671C315.882 50.671 313.03 50.74 313.03 50.74C313.03 50.74 313.03 53.546 313.03 55.34C313.03 56.375 313.168 57.226 314.318 57.249C315.33 57.272 316.25 57.249 317.446 57.249C319.24 57.272 320.045 56.191 320.045 56.191Z" fill="#790A09"/>
<path d="M304.708 57.594C303.259 58.169 300.752 58.376 299.142 58.376C293.944 58.376 291.023 55.271 291.023 50.51C291.023 45.795 294.68 43.035 299.602 43.035C301.097 43.035 303.236 43.15 304.639 43.61C304.639 43.61 304.708 45.243 304.639 46.048C304.271 44.921 302.27 43.863 299.556 43.863C295.646 43.863 293.346 46.278 293.346 49.751C293.346 54.006 295.784 57.41 300.683 57.41C302.132 57.41 304.018 56.467 304.685 55.616L304.708 57.594Z" fill="#790A09"/>
<path d="M277.435 50.809C277.366 55.409 274.33 58.537 269.408 58.537C264.44 58.537 261.565 55.294 261.565 50.809C261.565 46.163 264.877 43.127 269.776 43.127C274.79 43.127 277.504 46.393 277.435 50.809ZM275.227 51.66C275.227 48.164 273.755 43.978 269.408 43.978C265.475 43.978 263.704 46.255 263.704 49.751C263.704 53.201 265.59 57.617 269.937 57.617C273.778 57.617 275.227 54.903 275.227 51.66Z" fill="#790A09"/>
<path d="M256.363 50.05C256.363 54.995 252.867 58.192 248.083 58.192C248.083 58.192 242.563 58.192 241.436 58.192C242.011 57.686 242.195 57.295 242.195 56.398V44.576C242.195 43.403 241.505 43.334 241.505 43.334L247.485 43.311C252.338 43.288 256.363 44.829 256.363 50.05ZM254.132 50.832C254.132 45.956 251.947 44.047 246.818 44.047C245.99 44.047 244.978 44.208 244.173 44.277V55.892C244.173 57.962 245.346 57.456 247.807 57.479C252.269 57.548 254.132 54.627 254.132 50.832Z" fill="#790A09"/>
<path d="M235.437 43.311C235 43.748 234.908 45.312 234.908 46.347V53.638C234.908 56.812 232.286 58.422 229.043 58.422C225.57 58.422 223.132 57.226 223.132 53.638V45.772C223.132 44.645 223.086 43.495 222.511 43.311C222.511 43.311 223.96 43.311 225.662 43.311C225.156 43.633 225.225 44.99 225.225 45.473V53.316C225.225 56.214 226.513 57.157 229.434 57.157C232.01 57.157 233.735 55.708 233.735 53.293V46.669C233.735 44.944 233.62 43.702 232.884 43.334C232.884 43.334 234.816 43.38 235.437 43.311Z" fill="#790A09"/>
<path d="M218.251 58.123C216.94 58.123 214.088 58.192 214.088 58.192C214.663 57.893 214.64 57.088 214.387 56.398L212.892 52.166L207.625 52.189C207.142 53.5 206.153 56.053 206.199 56.72C206.268 57.686 206.314 57.893 206.751 58.123C206.751 58.123 203.209 58.307 203.163 58.146C204.083 57.847 204.911 55.984 205.463 54.673L210.868 42C211.42 43.357 212.846 46.669 213.352 47.842C214.479 50.418 215.56 53.684 216.756 56.26C217.147 57.111 217.446 57.824 218.251 58.123ZM212.524 51.177L210.293 45.565L208.062 51.2L212.524 51.177Z" fill="#790A09"/>
<path d="M198.953 43.403C198.332 43.886 198.263 44.231 198.263 45.519L198.217 58.951L186.901 45.565V54.719C186.901 56.329 186.832 57.824 187.89 58.192C187.89 58.192 185.843 58.192 185.038 58.192C185.337 58.031 185.682 57.157 185.705 55.202C185.774 51.844 185.705 46.807 185.705 45.749C185.705 44.507 185.521 43.702 184.854 43.403C186.211 43.403 187.821 43.311 187.821 43.311L197.159 54.397V51.407C197.159 50.073 197.182 46.002 197.159 44.76C197.136 44.139 196.975 43.587 196.4 43.334C197.343 43.334 197.78 43.403 198.953 43.403Z" fill="#790A09"/>
<path d="M181.17 58.238H178.134L172.085 50.211V55.271C172.085 57.755 172.384 57.939 172.821 58.238C172.821 58.238 170.452 58.192 169.578 58.192C170.268 57.686 170.084 53.891 170.084 53.086V45.818C170.084 44.645 170.084 43.587 169.463 43.334C170.843 43.334 171.993 43.288 173.741 43.288C176.363 43.288 178.87 43.886 178.916 47.175C178.962 49.659 175.88 50.579 174.891 50.648C174.891 50.648 178.318 54.88 180.112 57.364C180.319 57.663 181.17 58.238 181.17 58.238ZM176.754 47.313C176.754 45.381 175.949 44.116 173.672 44.116C173.12 44.116 172.637 44.277 172.085 44.323C172.085 44.323 172.085 49.222 172.085 50.234C172.936 50.28 176.754 50.372 176.754 47.313Z" fill="#790A09"/>
<path d="M165.088 58.123C163.777 58.123 160.925 58.192 160.925 58.192C161.5 57.893 161.477 57.088 161.224 56.398L159.729 52.166L154.462 52.189C153.979 53.5 152.99 56.053 153.036 56.72C153.105 57.686 153.151 57.893 153.588 58.123C153.588 58.123 150.046 58.307 150 58.146C150.92 57.847 151.748 55.984 152.3 54.673L157.705 42C158.257 43.357 159.683 46.669 160.189 47.842C161.316 50.418 162.397 53.684 163.593 56.26C163.984 57.111 164.283 57.824 165.088 58.123ZM159.361 51.177L157.13 45.565L154.899 51.2L159.361 51.177Z" fill="#790A09"/>
<path d="M409 34C409.552 34 410 34.4477 410 35C410 35.5523 409.552 36 409 36L145 36C144.448 36 144 35.5523 144 35C144 34.4477 144.448 34 145 34L409 34Z" fill="#790A09"/>
<path d="M392.903 27.192C392.903 27.192 390.419 27.261 389.545 27.192C390.051 26.939 390.166 26.364 390.166 25.329V18.866C390.166 17.532 390.166 14.703 390.166 13.898C390.166 13.254 389.982 12.656 389.545 12.334C389.545 12.334 390.856 12.403 392.834 12.403C392.213 12.702 392.213 13.346 392.213 14.381C392.213 14.381 392.213 22.408 392.213 25.007C392.213 26.824 392.903 27.192 392.903 27.192Z" fill="#790A09"/>
<path d="M385.07 13.829C385.07 13.829 384.242 13.093 383.069 13.093C382.126 13.093 380.102 13.139 380.102 13.139L380.125 24.961C380.125 26.318 380.332 26.962 380.838 27.215L377.48 27.192C377.48 27.192 378.032 26.824 378.032 26.065C378.032 23.65 378.032 13.139 378.032 13.139C378.032 13.139 376.537 13.139 375.663 13.139C374.237 13.139 373.869 13.415 373.248 14.036V12.403H385.07C385.07 13.024 385.07 13.392 385.07 13.829Z" fill="#790A09"/>
<path d="M371.882 27.123C370.571 27.123 367.719 27.192 367.719 27.192C368.294 26.893 368.271 26.088 368.018 25.398L366.523 21.166L361.256 21.189C360.773 22.5 359.784 25.053 359.83 25.72C359.899 26.686 359.945 26.893 360.382 27.123C360.382 27.123 356.84 27.307 356.794 27.146C357.714 26.847 358.542 24.984 359.094 23.673L364.499 11C365.051 12.357 366.477 15.669 366.983 16.842C368.11 19.418 369.191 22.684 370.387 25.26C370.778 26.111 371.077 26.824 371.882 27.123ZM366.155 20.177L363.924 14.565L361.693 20.2L366.155 20.177Z" fill="#790A09"/>
<path d="M352.888 26.594C351.439 27.169 348.932 27.376 347.322 27.376C342.124 27.376 339.203 24.271 339.203 19.51C339.203 14.795 342.86 12.035 347.782 12.035C349.277 12.035 351.416 12.15 352.819 12.61C352.819 12.61 352.888 14.243 352.819 15.048C352.451 13.921 350.45 12.863 347.736 12.863C343.826 12.863 341.526 15.278 341.526 18.751C341.526 23.006 343.964 26.41 348.863 26.41C350.312 26.41 352.198 25.467 352.865 24.616L352.888 26.594Z" fill="#790A09"/>
<path d="M333.896 19.809C333.827 24.409 330.791 27.537 325.869 27.537C320.901 27.537 318.026 24.294 318.026 19.809C318.026 15.163 321.338 12.127 326.237 12.127C331.251 12.127 333.965 15.393 333.896 19.809ZM331.688 20.66C331.688 17.164 330.216 12.978 325.869 12.978C321.936 12.978 320.165 15.255 320.165 18.751C320.165 22.201 322.051 26.617 326.398 26.617C330.239 26.617 331.688 23.903 331.688 20.66Z" fill="#790A09"/>
<path d="M314.149 12.334C313.643 12.702 313.045 14.013 312.953 14.266L307.893 27.307H307.341L301.729 14.082C301.338 13.185 300.97 12.633 300.418 12.334C300.418 12.334 302.396 12.38 304.075 12.38C303.753 12.886 303.684 13.001 303.937 13.691C304.167 14.358 304.144 14.473 304.42 15.117L308.123 23.926C309.25 21.442 310.952 17.003 311.711 14.519C312.01 13.484 311.964 12.771 311.32 12.334C312.332 12.334 313.137 12.334 314.149 12.334Z" fill="#790A09"/>
<path d="M297.783 12.334C297.277 12.702 296.679 14.013 296.587 14.266L291.527 27.307H290.975L285.363 14.082C284.972 13.185 284.604 12.633 284.052 12.334C284.052 12.334 286.03 12.38 287.709 12.38C287.387 12.886 287.318 13.001 287.571 13.691C287.801 14.358 287.778 14.473 288.054 15.117L291.757 23.926C292.884 21.442 294.586 17.003 295.345 14.519C295.644 13.484 295.598 12.771 294.954 12.334C295.966 12.334 296.771 12.334 297.783 12.334Z" fill="#790A09"/>
<path d="M282.663 27.123C281.352 27.123 278.5 27.192 278.5 27.192C279.075 26.893 279.052 26.088 278.799 25.398L277.304 21.166L272.037 21.189C271.554 22.5 270.565 25.053 270.611 25.72C270.68 26.686 270.726 26.893 271.163 27.123C271.163 27.123 267.621 27.307 267.575 27.146C268.495 26.847 269.323 24.984 269.875 23.673L275.28 11C275.832 12.357 277.258 15.669 277.764 16.842C278.891 19.418 279.972 22.684 281.168 25.26C281.559 26.111 281.858 26.824 282.663 27.123ZM276.936 20.177L274.705 14.565L272.474 20.2L276.936 20.177Z" fill="#790A09"/>
<path d="M255.39 19.809C255.321 24.409 252.285 27.537 247.363 27.537C242.395 27.537 239.52 24.294 239.52 19.809C239.52 15.163 242.832 12.127 247.731 12.127C252.745 12.127 255.459 15.393 255.39 19.809ZM253.182 20.66C253.182 17.164 251.71 12.978 247.363 12.978C243.43 12.978 241.659 15.255 241.659 18.751C241.659 22.201 243.545 26.617 247.892 26.617C251.733 26.617 253.182 23.903 253.182 20.66Z" fill="#790A09"/>
<path d="M234.005 27.192C234.005 27.192 231.521 27.261 230.647 27.192C231.153 26.939 231.268 26.364 231.268 25.329V18.866C231.268 17.532 231.268 14.703 231.268 13.898C231.268 13.254 231.084 12.656 230.647 12.334C230.647 12.334 231.958 12.403 233.936 12.403C233.315 12.702 233.315 13.346 233.315 14.381C233.315 14.381 233.315 22.408 233.315 25.007C233.315 26.824 234.005 27.192 234.005 27.192Z" fill="#790A09"/>
<path d="M224.87 19.05C224.87 23.995 221.374 27.192 216.59 27.192C216.59 27.192 211.07 27.192 209.943 27.192C210.518 26.686 210.702 26.295 210.702 25.398V13.576C210.702 12.403 210.012 12.334 210.012 12.334L215.992 12.311C220.845 12.288 224.87 13.829 224.87 19.05ZM222.639 19.832C222.639 14.956 220.454 13.047 215.325 13.047C214.497 13.047 213.485 13.208 212.68 13.277V24.892C212.68 26.962 213.853 26.456 216.314 26.479C220.776 26.548 222.639 23.627 222.639 19.832Z" fill="#790A09"/>
<path d="M203.944 12.311C203.507 12.748 203.415 14.312 203.415 15.347V22.638C203.415 25.812 200.793 27.422 197.55 27.422C194.077 27.422 191.639 26.226 191.639 22.638V14.772C191.639 13.645 191.593 12.495 191.018 12.311C191.018 12.311 192.467 12.311 194.169 12.311C193.663 12.633 193.732 13.99 193.732 14.473V22.316C193.732 25.214 195.02 26.157 197.941 26.157C200.517 26.157 202.242 24.708 202.242 22.293V15.669C202.242 13.944 202.127 12.702 201.391 12.334C201.391 12.334 203.323 12.38 203.944 12.311Z" fill="#790A09"/>
<path d="M186.635 13.829C186.635 13.829 185.807 13.093 184.634 13.093C183.691 13.093 181.667 13.139 181.667 13.139L181.69 24.961C181.69 26.318 181.897 26.962 182.403 27.215L179.045 27.192C179.045 27.192 179.597 26.824 179.597 26.065C179.597 23.65 179.597 13.139 179.597 13.139C179.597 13.139 178.102 13.139 177.228 13.139C175.802 13.139 175.434 13.415 174.813 14.036V12.403H186.635C186.635 13.024 186.635 13.392 186.635 13.829Z" fill="#790A09"/>
<path d="M170.993 22.73C171.039 25.973 168.647 27.468 165.381 27.468C164.047 27.468 163.265 27.192 162 26.847C162 26.847 162 25.214 162 24.202C162.483 25.605 164.024 26.525 165.887 26.525C167.865 26.525 168.969 25.421 168.969 23.65C168.969 19.648 162.414 20.729 162.414 16.359C162.414 13.622 164.829 12.15 167.52 12.15C168.67 12.15 169.406 12.357 170.533 12.518C170.533 12.518 170.533 13.714 170.533 14.703C170.096 13.714 168.9 12.955 167.106 12.955C165.542 12.955 164.3 14.174 164.3 15.6C164.3 18.82 170.924 18.061 170.993 22.73Z" fill="#790A09"/>
<path d="M31.9481 47.6574C15.4017 67.8807 7.2706 56.3769 5.03354 47.5882C4.9938 47.4321 4.8033 47.3818 4.70055 47.5059C3.41028 49.0641 -2.45274 56.7641 1.15982 64.0365C9.24588 77.0599 24.8018 67.4147 31.5277 59.8481C38.2536 52.2814 59.6924 18.6519 59.6924 18.6519C66.6759 9.09542 68.326 16.4038 67.9549 22.4719C67.9215 23.0175 68.7681 23.3343 69.0936 22.8951C73.4808 16.974 80.0191 11.5721 79.4498 7.30199C77.7683 -5.3093 63.0554 1.16778 59.2721 6.33672C49.6036 18.1071 47.0813 29.1611 31.9481 47.6574Z" fill="#790A09"/>
<path d="M110.932 53.3763C117.176 52.4767 121.406 44.914 122.299 43.1816C122.374 43.0352 122.581 43.0364 122.652 43.1848C123.747 45.455 129.176 57.9627 118.339 62.4103C108.877 66.2939 95.8117 60.9711 93.9527 49.7937C91.8077 36.897 98.0609 23.3051 105.784 14.3165C112.264 6.77454 132.058 -4.55937 135.77 5.88311C138.6 13.8445 126.518 24.5179 126.518 24.5179C126.518 24.5179 127.861 13.6407 122.475 14.3165C101.452 16.9545 92.9622 55.9654 110.932 53.3763Z" fill="#790A09"/>
<path fill-rule="evenodd" clip-rule="evenodd" d="M24.3362 40.4956C25.5582 46.576 26.4515 51.0211 41.0947 47.6419C41.0947 47.6419 49.2823 43.7035 54.967 39.6549L51.4989 38.3938C50.9027 38.177 50.6565 37.467 50.9904 36.9276L55.5021 29.6394C55.6911 29.3341 56.0293 29.1536 56.3881 29.1664L67.5781 29.5661C79.8672 19.0842 89.6701 5.18367 92.1768 1.49269C92.572 0.910893 93.2305 0.576521 93.9333 0.602551L102.13 0.906148C102.958 0.936791 103.436 1.93256 102.983 2.62541C101.075 5.54237 97.2256 12.4005 94.4817 23.6809C94.3818 24.0919 94.0934 24.8724 93.7821 25.7153C93.359 26.8605 92.8935 28.1206 92.8003 28.7252C95.6946 28.4036 99.327 27.344 103.321 25.5463C104.282 25.1138 105.357 26.3143 104.817 27.2193C104.141 28.3533 103.457 29.597 102.99 30.6869C102.415 32.0281 101.539 34.6115 101.123 35.8609C100.983 36.2828 100.583 36.5625 100.138 36.5485L91.9595 36.292C90.2513 46.0199 90.4154 52.002 90.9473 56.8901C91.0447 57.7848 91.0097 60.1826 90.9772 61.6265C90.9636 62.2339 90.4147 62.6842 89.8151 62.586C88.1503 62.3131 84.9513 61.8097 82.291 61.5141C80.2767 61.2903 78.1844 61.4465 76.5829 61.566C75.1764 61.671 74.1483 61.7478 73.8836 61.5141C73.6934 61.3462 73.5214 60.4785 73.2701 59.2107C72.7736 56.7065 71.9677 52.6411 70.1003 49.3234C66.9578 43.7404 62.954 43.0179 62.954 43.0179C62.954 43.0179 45.9479 56.8091 41.0948 60.253C36.2416 63.6969 20.7712 66.5414 16.7134 54.3678C15.06 49.4077 18.6633 43.527 23.6066 38.5096C23.7165 38.398 23.906 38.4528 23.9405 38.6057C24.0855 39.2481 24.2126 39.8802 24.3362 40.4956ZM76.4058 29.1457L83.1317 29.5661C83.914 26.1761 85.4896 21.0324 86.1698 19.2277C86.379 18.9489 86.4947 18.7457 86.4947 18.6364C86.4947 18.4507 86.3717 18.6921 86.1698 19.2277C85.197 20.524 82.2011 23.4557 79.4001 26.1966C78.3329 27.2409 77.2937 28.2578 76.4058 29.1457ZM72.2021 36.2921H81.4502L79.7687 44.2791L72.2021 36.2921Z" fill="#790A09"/>
</svg>
