<svg width="401" height="68" viewBox="0 0 401 68" fill="none" xmlns="http://www.w3.org/2000/svg">
<path d="M395.298 49.809C395.229 54.409 392.193 57.537 387.271 57.537C382.303 57.537 379.428 54.294 379.428 49.809C379.428 45.163 382.74 42.127 387.639 42.127C392.653 42.127 395.367 45.393 395.298 49.809ZM393.09 50.66C393.09 47.164 391.618 42.978 387.271 42.978C383.338 42.978 381.567 45.255 381.567 48.751C381.567 52.201 383.453 56.617 387.8 56.617C391.641 56.617 393.09 53.903 393.09 50.66Z" fill="white"/>
<path d="M373.913 57.192C373.913 57.192 371.429 57.261 370.555 57.192C371.061 56.939 371.176 56.364 371.176 55.329V48.866C371.176 47.532 371.176 44.703 371.176 43.898C371.176 43.254 370.992 42.656 370.555 42.334C370.555 42.334 371.866 42.403 373.844 42.403C373.223 42.702 373.223 43.346 373.223 44.381C373.223 44.381 373.223 52.408 373.223 55.007C373.223 56.824 373.913 57.192 373.913 57.192Z" fill="white"/>
<path d="M364.532 57.192C364.532 57.192 362.048 57.261 361.174 57.192C361.68 56.939 361.795 56.364 361.795 55.329V49.487H354.274V55.007C354.274 56.824 354.964 57.192 354.964 57.192C354.964 57.192 352.48 57.261 351.606 57.192C352.112 56.939 352.227 56.364 352.227 55.329V43.898C352.227 43.254 352.043 42.656 351.606 42.334C351.606 42.334 352.917 42.403 354.895 42.403C354.274 42.702 354.274 43.346 354.274 44.381V48.682H361.795V43.898C361.795 43.254 361.611 42.656 361.174 42.334C361.174 42.334 362.485 42.403 364.486 42.403C363.842 42.702 363.842 43.346 363.842 44.381V55.007C363.842 56.824 364.532 57.192 364.532 57.192Z" fill="white"/>
<path d="M345.929 56.594C344.48 57.169 341.973 57.376 340.363 57.376C335.165 57.376 332.244 54.271 332.244 49.51C332.244 44.795 335.901 42.035 340.823 42.035C342.318 42.035 344.457 42.15 345.86 42.61C345.86 42.61 345.929 44.243 345.86 45.048C345.492 43.921 343.491 42.863 340.777 42.863C336.867 42.863 334.567 45.278 334.567 48.751C334.567 53.006 337.005 56.41 341.904 56.41C343.353 56.41 345.239 55.467 345.906 54.616L345.929 56.594Z" fill="white"/>
<path d="M328.56 57.238H325.524L319.475 49.211V54.271C319.475 56.755 319.774 56.939 320.211 57.238C320.211 57.238 317.842 57.192 316.968 57.192C317.658 56.686 317.474 52.891 317.474 52.086V44.818C317.474 43.645 317.474 42.587 316.853 42.334C318.233 42.334 319.383 42.288 321.131 42.288C323.753 42.288 326.26 42.886 326.306 46.175C326.352 48.659 323.27 49.579 322.281 49.648C322.281 49.648 325.708 53.88 327.502 56.364C327.709 56.663 328.56 57.238 328.56 57.238ZM324.144 46.313C324.144 44.381 323.339 43.116 321.062 43.116C320.51 43.116 320.027 43.277 319.475 43.323C319.475 43.323 319.475 48.222 319.475 49.234C320.326 49.28 324.144 49.372 324.144 46.313Z" fill="white"/>
<path d="M311.045 55.191L310.976 57.192H301.477C301.477 57.192 302.029 56.755 302.029 55.582C302.029 51.603 302.029 47.992 302.029 43.76C302.029 42.656 301.408 42.334 301.408 42.334L310.125 42.311V44.082C310.125 44.082 309.435 43.208 308.124 43.208C306.905 43.208 304.03 43.231 304.03 43.231V48.866C304.03 48.866 306.882 48.866 308.63 48.866C309.297 48.866 309.688 48.36 309.688 48.36V50.361C309.688 50.361 309.205 49.671 308.63 49.671C306.882 49.671 304.03 49.74 304.03 49.74C304.03 49.74 304.03 52.546 304.03 54.34C304.03 55.375 304.168 56.226 305.318 56.249C306.33 56.272 307.25 56.249 308.446 56.249C310.24 56.272 311.045 55.191 311.045 55.191Z" fill="white"/>
<path d="M295.708 56.594C294.259 57.169 291.752 57.376 290.142 57.376C284.944 57.376 282.023 54.271 282.023 49.51C282.023 44.795 285.68 42.035 290.602 42.035C292.097 42.035 294.236 42.15 295.639 42.61C295.639 42.61 295.708 44.243 295.639 45.048C295.271 43.921 293.27 42.863 290.556 42.863C286.646 42.863 284.346 45.278 284.346 48.751C284.346 53.006 286.784 56.41 291.683 56.41C293.132 56.41 295.018 55.467 295.685 54.616L295.708 56.594Z" fill="white"/>
<path d="M268.435 49.809C268.366 54.409 265.33 57.537 260.408 57.537C255.44 57.537 252.565 54.294 252.565 49.809C252.565 45.163 255.877 42.127 260.776 42.127C265.79 42.127 268.504 45.393 268.435 49.809ZM266.227 50.66C266.227 47.164 264.755 42.978 260.408 42.978C256.475 42.978 254.704 45.255 254.704 48.751C254.704 52.201 256.59 56.617 260.937 56.617C264.778 56.617 266.227 53.903 266.227 50.66Z" fill="white"/>
<path d="M247.363 49.05C247.363 53.995 243.867 57.192 239.083 57.192C239.083 57.192 233.563 57.192 232.436 57.192C233.011 56.686 233.195 56.295 233.195 55.398V43.576C233.195 42.403 232.505 42.334 232.505 42.334L238.485 42.311C243.338 42.288 247.363 43.829 247.363 49.05ZM245.132 49.832C245.132 44.956 242.947 43.047 237.818 43.047C236.99 43.047 235.978 43.208 235.173 43.277V54.892C235.173 56.962 236.346 56.456 238.807 56.479C243.269 56.548 245.132 53.627 245.132 49.832Z" fill="white"/>
<path d="M226.437 42.311C226 42.748 225.908 44.312 225.908 45.347V52.638C225.908 55.812 223.286 57.422 220.043 57.422C216.57 57.422 214.132 56.226 214.132 52.638V44.772C214.132 43.645 214.086 42.495 213.511 42.311C213.511 42.311 214.96 42.311 216.662 42.311C216.156 42.633 216.225 43.99 216.225 44.473V52.316C216.225 55.214 217.513 56.157 220.434 56.157C223.01 56.157 224.735 54.708 224.735 52.293V45.669C224.735 43.944 224.62 42.702 223.884 42.334C223.884 42.334 225.816 42.38 226.437 42.311Z" fill="white"/>
<path d="M209.251 57.123C207.94 57.123 205.088 57.192 205.088 57.192C205.663 56.893 205.64 56.088 205.387 55.398L203.892 51.166L198.625 51.189C198.142 52.5 197.153 55.053 197.199 55.72C197.268 56.686 197.314 56.893 197.751 57.123C197.751 57.123 194.209 57.307 194.163 57.146C195.083 56.847 195.911 54.984 196.463 53.673L201.868 41C202.42 42.357 203.846 45.669 204.352 46.842C205.479 49.418 206.56 52.684 207.756 55.26C208.147 56.111 208.446 56.824 209.251 57.123ZM203.524 50.177L201.293 44.565L199.062 50.2L203.524 50.177Z" fill="white"/>
<path d="M189.953 42.403C189.332 42.886 189.263 43.231 189.263 44.519L189.217 57.951L177.901 44.565V53.719C177.901 55.329 177.832 56.824 178.89 57.192C178.89 57.192 176.843 57.192 176.038 57.192C176.337 57.031 176.682 56.157 176.705 54.202C176.774 50.844 176.705 45.807 176.705 44.749C176.705 43.507 176.521 42.702 175.854 42.403C177.211 42.403 178.821 42.311 178.821 42.311L188.159 53.397V50.407C188.159 49.073 188.182 45.002 188.159 43.76C188.136 43.139 187.975 42.587 187.4 42.334C188.343 42.334 188.78 42.403 189.953 42.403Z" fill="white"/>
<path d="M172.17 57.238H169.134L163.085 49.211V54.271C163.085 56.755 163.384 56.939 163.821 57.238C163.821 57.238 161.452 57.192 160.578 57.192C161.268 56.686 161.084 52.891 161.084 52.086V44.818C161.084 43.645 161.084 42.587 160.463 42.334C161.843 42.334 162.993 42.288 164.741 42.288C167.363 42.288 169.87 42.886 169.916 46.175C169.962 48.659 166.88 49.579 165.891 49.648C165.891 49.648 169.318 53.88 171.112 56.364C171.319 56.663 172.17 57.238 172.17 57.238ZM167.754 46.313C167.754 44.381 166.949 43.116 164.672 43.116C164.12 43.116 163.637 43.277 163.085 43.323C163.085 43.323 163.085 48.222 163.085 49.234C163.936 49.28 167.754 49.372 167.754 46.313Z" fill="white"/>
<path d="M156.088 57.123C154.777 57.123 151.925 57.192 151.925 57.192C152.5 56.893 152.477 56.088 152.224 55.398L150.729 51.166L145.462 51.189C144.979 52.5 143.99 55.053 144.036 55.72C144.105 56.686 144.151 56.893 144.588 57.123C144.588 57.123 141.046 57.307 141 57.146C141.92 56.847 142.748 54.984 143.3 53.673L148.705 41C149.257 42.357 150.683 45.669 151.189 46.842C152.316 49.418 153.397 52.684 154.593 55.26C154.984 56.111 155.283 56.824 156.088 57.123ZM150.361 50.177L148.13 44.565L145.899 50.2L150.361 50.177Z" fill="white"/>
<path d="M400 33C400.552 33 401 33.4477 401 34C401 34.5523 400.552 35 400 35L136 35C135.448 35 135 34.5523 135 34C135 33.4477 135.448 33 136 33L400 33Z" fill="white"/>
<path d="M383.903 26.192C383.903 26.192 381.419 26.261 380.545 26.192C381.051 25.939 381.166 25.364 381.166 24.329V17.866C381.166 16.532 381.166 13.703 381.166 12.898C381.166 12.254 380.982 11.656 380.545 11.334C380.545 11.334 381.856 11.403 383.834 11.403C383.213 11.702 383.213 12.346 383.213 13.381C383.213 13.381 383.213 21.408 383.213 24.007C383.213 25.824 383.903 26.192 383.903 26.192Z" fill="white"/>
<path d="M376.07 12.829C376.07 12.829 375.242 12.093 374.069 12.093C373.126 12.093 371.102 12.139 371.102 12.139L371.125 23.961C371.125 25.318 371.332 25.962 371.838 26.215L368.48 26.192C368.48 26.192 369.032 25.824 369.032 25.065C369.032 22.65 369.032 12.139 369.032 12.139C369.032 12.139 367.537 12.139 366.663 12.139C365.237 12.139 364.869 12.415 364.248 13.036V11.403H376.07C376.07 12.024 376.07 12.392 376.07 12.829Z" fill="white"/>
<path d="M362.882 26.123C361.571 26.123 358.719 26.192 358.719 26.192C359.294 25.893 359.271 25.088 359.018 24.398L357.523 20.166L352.256 20.189C351.773 21.5 350.784 24.053 350.83 24.72C350.899 25.686 350.945 25.893 351.382 26.123C351.382 26.123 347.84 26.307 347.794 26.146C348.714 25.847 349.542 23.984 350.094 22.673L355.499 10C356.051 11.357 357.477 14.669 357.983 15.842C359.11 18.418 360.191 21.684 361.387 24.26C361.778 25.111 362.077 25.824 362.882 26.123ZM357.155 19.177L354.924 13.565L352.693 19.2L357.155 19.177Z" fill="white"/>
<path d="M343.888 25.594C342.439 26.169 339.932 26.376 338.322 26.376C333.124 26.376 330.203 23.271 330.203 18.51C330.203 13.795 333.86 11.035 338.782 11.035C340.277 11.035 342.416 11.15 343.819 11.61C343.819 11.61 343.888 13.243 343.819 14.048C343.451 12.921 341.45 11.863 338.736 11.863C334.826 11.863 332.526 14.278 332.526 17.751C332.526 22.006 334.964 25.41 339.863 25.41C341.312 25.41 343.198 24.467 343.865 23.616L343.888 25.594Z" fill="white"/>
<path d="M324.896 18.809C324.827 23.409 321.791 26.537 316.869 26.537C311.901 26.537 309.026 23.294 309.026 18.809C309.026 14.163 312.338 11.127 317.237 11.127C322.251 11.127 324.965 14.393 324.896 18.809ZM322.688 19.66C322.688 16.164 321.216 11.978 316.869 11.978C312.936 11.978 311.165 14.255 311.165 17.751C311.165 21.201 313.051 25.617 317.398 25.617C321.239 25.617 322.688 22.903 322.688 19.66Z" fill="white"/>
<path d="M305.149 11.334C304.643 11.702 304.045 13.013 303.953 13.266L298.893 26.307H298.341L292.729 13.082C292.338 12.185 291.97 11.633 291.418 11.334C291.418 11.334 293.396 11.38 295.075 11.38C294.753 11.886 294.684 12.001 294.937 12.691C295.167 13.358 295.144 13.473 295.42 14.117L299.123 22.926C300.25 20.442 301.952 16.003 302.711 13.519C303.01 12.484 302.964 11.771 302.32 11.334C303.332 11.334 304.137 11.334 305.149 11.334Z" fill="white"/>
<path d="M288.783 11.334C288.277 11.702 287.679 13.013 287.587 13.266L282.527 26.307H281.975L276.363 13.082C275.972 12.185 275.604 11.633 275.052 11.334C275.052 11.334 277.03 11.38 278.709 11.38C278.387 11.886 278.318 12.001 278.571 12.691C278.801 13.358 278.778 13.473 279.054 14.117L282.757 22.926C283.884 20.442 285.586 16.003 286.345 13.519C286.644 12.484 286.598 11.771 285.954 11.334C286.966 11.334 287.771 11.334 288.783 11.334Z" fill="white"/>
<path d="M273.663 26.123C272.352 26.123 269.5 26.192 269.5 26.192C270.075 25.893 270.052 25.088 269.799 24.398L268.304 20.166L263.037 20.189C262.554 21.5 261.565 24.053 261.611 24.72C261.68 25.686 261.726 25.893 262.163 26.123C262.163 26.123 258.621 26.307 258.575 26.146C259.495 25.847 260.323 23.984 260.875 22.673L266.28 10C266.832 11.357 268.258 14.669 268.764 15.842C269.891 18.418 270.972 21.684 272.168 24.26C272.559 25.111 272.858 25.824 273.663 26.123ZM267.936 19.177L265.705 13.565L263.474 19.2L267.936 19.177Z" fill="white"/>
<path d="M246.39 18.809C246.321 23.409 243.285 26.537 238.363 26.537C233.395 26.537 230.52 23.294 230.52 18.809C230.52 14.163 233.832 11.127 238.731 11.127C243.745 11.127 246.459 14.393 246.39 18.809ZM244.182 19.66C244.182 16.164 242.71 11.978 238.363 11.978C234.43 11.978 232.659 14.255 232.659 17.751C232.659 21.201 234.545 25.617 238.892 25.617C242.733 25.617 244.182 22.903 244.182 19.66Z" fill="white"/>
<path d="M225.005 26.192C225.005 26.192 222.521 26.261 221.647 26.192C222.153 25.939 222.268 25.364 222.268 24.329V17.866C222.268 16.532 222.268 13.703 222.268 12.898C222.268 12.254 222.084 11.656 221.647 11.334C221.647 11.334 222.958 11.403 224.936 11.403C224.315 11.702 224.315 12.346 224.315 13.381C224.315 13.381 224.315 21.408 224.315 24.007C224.315 25.824 225.005 26.192 225.005 26.192Z" fill="white"/>
<path d="M215.87 18.05C215.87 22.995 212.374 26.192 207.59 26.192C207.59 26.192 202.07 26.192 200.943 26.192C201.518 25.686 201.702 25.295 201.702 24.398V12.576C201.702 11.403 201.012 11.334 201.012 11.334L206.992 11.311C211.845 11.288 215.87 12.829 215.87 18.05ZM213.639 18.832C213.639 13.956 211.454 12.047 206.325 12.047C205.497 12.047 204.485 12.208 203.68 12.277V23.892C203.68 25.962 204.853 25.456 207.314 25.479C211.776 25.548 213.639 22.627 213.639 18.832Z" fill="white"/>
<path d="M194.944 11.311C194.507 11.748 194.415 13.312 194.415 14.347V21.638C194.415 24.812 191.793 26.422 188.55 26.422C185.077 26.422 182.639 25.226 182.639 21.638V13.772C182.639 12.645 182.593 11.495 182.018 11.311C182.018 11.311 183.467 11.311 185.169 11.311C184.663 11.633 184.732 12.99 184.732 13.473V21.316C184.732 24.214 186.02 25.157 188.941 25.157C191.517 25.157 193.242 23.708 193.242 21.293V14.669C193.242 12.944 193.127 11.702 192.391 11.334C192.391 11.334 194.323 11.38 194.944 11.311Z" fill="white"/>
<path d="M177.635 12.829C177.635 12.829 176.807 12.093 175.634 12.093C174.691 12.093 172.667 12.139 172.667 12.139L172.69 23.961C172.69 25.318 172.897 25.962 173.403 26.215L170.045 26.192C170.045 26.192 170.597 25.824 170.597 25.065C170.597 22.65 170.597 12.139 170.597 12.139C170.597 12.139 169.102 12.139 168.228 12.139C166.802 12.139 166.434 12.415 165.813 13.036V11.403H177.635C177.635 12.024 177.635 12.392 177.635 12.829Z" fill="white"/>
<path d="M161.993 21.73C162.039 24.973 159.647 26.468 156.381 26.468C155.047 26.468 154.265 26.192 153 25.847C153 25.847 153 24.214 153 23.202C153.483 24.605 155.024 25.525 156.887 25.525C158.865 25.525 159.969 24.421 159.969 22.65C159.969 18.648 153.414 19.729 153.414 15.359C153.414 12.622 155.829 11.15 158.52 11.15C159.67 11.15 160.406 11.357 161.533 11.518C161.533 11.518 161.533 12.714 161.533 13.703C161.096 12.714 159.9 11.955 158.106 11.955C156.542 11.955 155.3 13.174 155.3 14.6C155.3 17.82 161.924 17.061 161.993 21.73Z" fill="white"/>
<path fill-rule="evenodd" clip-rule="evenodd" d="M87.3003 0.638754C86.1179 1.02435 83.9409 1.55857 82.4734 1.85201C81.9982 1.95505 81.6167 2.02412 81.3013 2.08121C80.4225 2.24027 80.0571 2.30642 79.6119 2.7554C79.2663 3.10395 78.6099 4.21047 77.9675 5.29317C77.4854 6.10577 77.0113 6.90496 76.6825 7.36021C72.0687 13.749 68.6021 17.4086 63.4729 22.6293C59.379 26.8057 59.0489 27.0438 57.1051 27.058C54.4977 27.077 49.5612 26.312 46.0935 25.3949L43.3382 24.6611L40.9855 27.0814C40.0544 28.0554 39.4602 28.5067 38.7002 29.0841C38.4234 29.2944 38.1245 29.5214 37.7794 29.7965C37.5754 29.9591 37.3814 30.1166 37.1944 30.2684C36.5317 30.8065 35.9556 31.2743 35.3299 31.6463C33.1586 32.9344 34.2057 33.4921 37.8046 32.9004C39.4618 32.6056 43.3002 32.342 46.3343 32.3198C52.3552 32.2758 53.5741 32.6635 51.2636 34.3767C50.9268 34.6196 47.3795 38.2591 43.4048 42.3372L41.6689 44.1179C42.0558 42.7826 42.3016 41.4582 42.3016 41.4582C42.3016 41.4582 41.8781 40.8305 40.5523 39.7131C39.2266 38.5958 34.524 35.3145 33.4543 34.6256C32.3846 33.9368 19.1242 25.341 19.1242 25.341C19.1242 25.341 15.1165 22.291 14.4657 21.4166C13.306 19.8527 13.3315 18.8148 13.6231 17.6954C13.9425 16.4693 14.6264 15.696 16.7632 14.853C18.2504 14.4083 19.3193 14.11 21.003 13.8847C23.1623 13.5959 26.2623 13.6956 30.7825 14.6153C33.2806 15.1236 36.1205 15.717 36.8807 16.9347C37.3347 17.6356 37.3482 18.7384 37.2175 19.2401C36.9442 20.2893 35.4067 22.6193 34.1306 23.9458C33.6668 24.4105 33.2353 25.1269 33.1402 25.4918C32.8194 26.7234 34.0397 26.5507 35.9616 25.001C36.2475 24.7807 36.5378 24.5578 36.8149 24.345L36.8171 24.3433C37.5488 23.7814 38.1888 23.2901 38.4154 23.1014C39.1444 22.5589 40.745 20.9266 43.2987 18.0793C45.8525 15.232 47.2744 12.9696 47.0293 12.0304C46.4728 9.84301 40.2476 7.60844 33.7767 7.2575C31.8916 7.16183 29.3703 7.38489 28.4617 7.54474C28.1924 7.59213 27.9064 7.64036 27.6057 7.69107C26.2524 7.91932 24.6013 8.19777 22.8292 8.67502C19.2806 9.6307 17.322 10.3927 14.0582 12.0749C10.3333 13.9948 7.76546 15.7421 5.1909 18.1053C2.61633 20.4685 1.70777 22.0762 1.70777 22.0762C1.70777 22.0762 1.32886 22.7412 1.10309 23.6079C0.59212 25.5693 1.25916 27.5581 3.54418 29.3142C5.94312 31.197 9.76012 33.5605 13.9759 35.8922C15.0681 36.4963 15.8663 36.9101 16.6175 37.2996C17.4795 37.7464 18.2795 38.1611 19.3905 38.7943C24.3121 41.5993 30.1349 46.524 31.3983 48.0659C32.7416 49.677 33.0114 51.6594 30.867 53.6872C29.5819 54.9059 28.2382 55.7696 27.0237 56.3422C26.2556 56.5722 25.4012 56.7747 24.4512 56.9349C19.271 57.8088 18.8912 57.7892 16.2869 57.6553C16.0311 57.6421 15.7536 57.6279 15.4481 57.6132C11.4641 57.4067 8.7775 53.1384 9.93101 48.8421C10.4393 47.0478 13.0743 43.7261 14.4667 42.3217C14.8005 41.9851 15.0926 41.5951 15.0895 41.171C15.0683 38.2968 4.28277 47.9881 1.61915 53.2378C0.54478 55.4132 -0.0161698 57.0869 0.000354833 59.3217C0.0201227 61.9951 0.412283 63.1418 1.75087 64.6399C4.0927 67.1673 6.79192 68.2953 10.4881 67.9341C14.1843 67.573 19.257 65.7471 22.4182 64.112C25.5794 62.4768 28.4354 60.7214 32.0941 58.2456C37.7695 54.405 47.4144 42.9397 51.2144 38.4225C52.0459 37.434 52.5975 36.7783 52.7665 36.6079C53.4254 35.9434 53.926 35.965 54.377 36.4076C56.8804 38.8648 59.4808 45.8691 61.4572 51.3872C61.9046 52.6362 62.3694 54.234 62.7453 55.5259C63.1169 56.8032 63.4015 57.7815 63.4961 57.8277C63.6242 57.9217 65.9788 57.2996 68.4154 56.3583C69.1944 58.0524 70.3214 59.5405 71.8677 61.2748C77 68.5 97.8217 67.8772 104.207 67.4842C105.887 67.3807 114.935 66.595 121.643 63.1376C123.197 62.3366 125.019 61.1788 124.999 60.185L125 58.9518L116.49 59.6395C115.687 59.7065 114.915 59.7745 114.168 59.8404C107.745 60.4069 100 60 95.5 59C90.8087 57.7711 83.5597 55.6579 80.7235 49.5442C79.0258 45.8846 78.3314 39.8292 81.908 33.378L81.9145 33.3662C82.2508 32.7595 82.8694 31.6437 83.714 30.2692C85.4205 29.8735 89.0988 29.0089 89.7839 28.7512C90.6822 28.4134 91.2947 27.892 91.1961 27.3744C91.0064 26.5547 90.9559 26.5289 85.8372 27.0357C88.0107 23.9479 90.863 20.5655 94.001 18.6367C97.202 16.6691 99.207 15.5042 102.854 14.8505C109.299 13.6398 113.112 15.7172 114.658 21.6589C114.763 22.0704 114.945 22.6678 115.163 23.3845C115.679 25.0762 116.396 27.4324 116.774 29.5757C116.991 30.8112 117.477 31.5348 118.09 31.4648C118.938 31.368 119.306 29.1915 119.564 22.7592C119.581 21.8349 119.681 20.2434 119.783 18.6271C119.838 17.75 119.894 16.8657 119.937 16.0766C120.106 13.8281 120.269 11.1061 120.28 9.96652L120.288 7.97358L117.326 8.35938C116.944 8.41411 116.483 8.47406 115.963 8.54168C114.249 8.76455 111.895 9.07068 109.603 9.54762C108.955 9.6825 108.196 9.81787 107.35 9.96888C101.994 10.9248 93.1266 12.507 86.5455 18.5561C85.4187 19.5918 84.3565 20.5788 83.3548 21.5241C84.0192 19.2987 84.8168 16.9068 85.3255 15.6844C86.2106 13.5576 87.0929 11.0538 87.0929 11.0538C87.0929 11.0538 89.8876 4.29521 91.0599 2.54321C91.6229 1.73806 92.0429 0.839718 92.0405 0.509897C92.0353 -0.196863 90.0915 -0.18267 87.3003 0.638754ZM73.5306 31.8525C73 31.5 72.4214 31.2349 71.6442 31.2868C62.9249 31.8688 59.4191 32.2242 59.2308 32.4141C59.156 32.4644 59.6218 33.0765 60.258 33.9124C60.8258 34.6585 61.5293 35.5829 62.1053 36.4454C62.521 37.0679 63.2987 38.3265 64.1608 39.7214C65.2349 41.4597 66.4399 43.4096 67.2383 44.6046C67.3636 43.9565 67.5311 43.2864 67.7494 42.5841C68.9441 38.7386 70.6934 35.4551 73.5306 31.8525ZM78.392 14.133C78.4011 15.3664 77.1088 20.1266 75.3961 25.7464C74.8405 27.541 74.6989 27.6363 72.7562 27.7918C71.6191 27.8943 68.9165 27.867 66.8291 27.6937L62.9392 27.3923L70.3273 19.8934C74.3741 15.7644 77.8102 12.3938 78.0469 12.345C78.2362 12.2964 78.3829 12.8996 78.392 14.133Z" fill="white"/>
</svg>
