<svg width="280" height="42" viewBox="0 0 280 42" fill="none" xmlns="http://www.w3.org/2000/svg">
<path d="M276.008 32.0663C275.96 35.2863 273.835 37.4759 270.389 37.4759C266.912 37.4759 264.899 35.2058 264.899 32.0663C264.899 28.8141 267.218 26.6889 270.647 26.6889C274.157 26.6889 276.057 28.9751 276.008 32.0663ZM274.463 32.662C274.463 30.2148 273.432 27.2846 270.389 27.2846C267.636 27.2846 266.397 28.8785 266.397 31.3257C266.397 33.7407 267.717 36.8319 270.76 36.8319C273.448 36.8319 274.463 34.9321 274.463 32.662Z" fill="white"/>
<path d="M261.039 37.2344C261.039 37.2344 259.3 37.2827 258.688 37.2344C259.042 37.0573 259.123 36.6548 259.123 35.9303V31.4062C259.123 30.4724 259.123 28.4921 259.123 27.9286C259.123 27.4778 258.994 27.0592 258.688 26.8338C258.688 26.8338 259.606 26.8821 260.99 26.8821C260.556 27.0914 260.556 27.5422 260.556 28.2667C260.556 28.2667 260.556 33.8856 260.556 35.7049C260.556 36.9768 261.039 37.2344 261.039 37.2344Z" fill="white"/>
<path d="M254.472 37.2344C254.472 37.2344 252.733 37.2827 252.122 37.2344C252.476 37.0573 252.556 36.6548 252.556 35.9303V31.8409H247.292V35.7049C247.292 36.9768 247.775 37.2344 247.775 37.2344C247.775 37.2344 246.036 37.2827 245.424 37.2344C245.778 37.0573 245.859 36.6548 245.859 35.9303V27.9286C245.859 27.4778 245.73 27.0592 245.424 26.8338C245.424 26.8338 246.342 26.8821 247.726 26.8821C247.292 27.0914 247.292 27.5422 247.292 28.2667V31.2774H252.556V27.9286C252.556 27.4778 252.427 27.0592 252.122 26.8338C252.122 26.8338 253.039 26.8821 254.44 26.8821C253.989 27.0914 253.989 27.5422 253.989 28.2667V35.7049C253.989 36.9768 254.472 37.2344 254.472 37.2344Z" fill="white"/>
<path d="M241.45 36.8158C240.436 37.2183 238.681 37.3632 237.554 37.3632C233.915 37.3632 231.871 35.1897 231.871 31.857C231.871 28.5565 234.431 26.6245 237.876 26.6245C238.922 26.6245 240.42 26.705 241.402 27.027C241.402 27.027 241.45 28.1701 241.402 28.7336C241.144 27.9447 239.744 27.2041 237.844 27.2041C235.107 27.2041 233.497 28.8946 233.497 31.3257C233.497 34.3042 235.203 36.687 238.633 36.687C239.647 36.687 240.967 36.0269 241.434 35.4312L241.45 36.8158Z" fill="white"/>
<path d="M229.292 37.2666H227.167L222.932 31.6477V35.1897C222.932 36.9285 223.142 37.0573 223.448 37.2666C223.448 37.2666 221.789 37.2344 221.177 37.2344C221.66 36.8802 221.532 34.2237 221.532 33.6602V28.5726C221.532 27.7515 221.532 27.0109 221.097 26.8338C222.063 26.8338 222.868 26.8016 224.092 26.8016C225.927 26.8016 227.682 27.2202 227.714 29.5225C227.746 31.2613 225.589 31.9053 224.897 31.9536C224.897 31.9536 227.295 34.916 228.551 36.6548C228.696 36.8641 229.292 37.2666 229.292 37.2666ZM226.201 29.6191C226.201 28.2667 225.637 27.3812 224.043 27.3812C223.657 27.3812 223.319 27.4939 222.932 27.5261C222.932 27.5261 222.932 30.9554 222.932 31.6638C223.528 31.696 226.201 31.7604 226.201 29.6191Z" fill="white"/>
<path d="M217.031 35.8337L216.983 37.2344H210.334C210.334 37.2344 210.72 36.9285 210.72 36.1074C210.72 33.3221 210.72 30.7944 210.72 27.832C210.72 27.0592 210.285 26.8338 210.285 26.8338L216.387 26.8177V28.0574C216.387 28.0574 215.904 27.4456 214.987 27.4456C214.133 27.4456 212.121 27.4617 212.121 27.4617V31.4062C212.121 31.4062 214.117 31.4062 215.341 31.4062C215.808 31.4062 216.081 31.052 216.081 31.052V32.4527C216.081 32.4527 215.743 31.9697 215.341 31.9697C214.117 31.9697 212.121 32.018 212.121 32.018C212.121 32.018 212.121 33.9822 212.121 35.238C212.121 35.9625 212.217 36.5582 213.022 36.5743C213.731 36.5904 214.375 36.5743 215.212 36.5743C216.468 36.5904 217.031 35.8337 217.031 35.8337Z" fill="white"/>
<path d="M206.296 36.8158C205.281 37.2183 203.526 37.3632 202.399 37.3632C198.761 37.3632 196.716 35.1897 196.716 31.857C196.716 28.5565 199.276 26.6245 202.721 26.6245C203.768 26.6245 205.265 26.705 206.247 27.027C206.247 27.027 206.296 28.1701 206.247 28.7336C205.99 27.9447 204.589 27.2041 202.689 27.2041C199.952 27.2041 198.342 28.8946 198.342 31.3257C198.342 34.3042 200.049 36.687 203.478 36.687C204.492 36.687 205.813 36.0269 206.279 35.4312L206.296 36.8158Z" fill="white"/>
<path d="M187.205 32.0663C187.157 35.2863 185.031 37.4759 181.586 37.4759C178.108 37.4759 176.096 35.2058 176.096 32.0663C176.096 28.8141 178.414 26.6889 181.844 26.6889C185.353 26.6889 187.253 28.9751 187.205 32.0663ZM185.659 32.662C185.659 30.2148 184.629 27.2846 181.586 27.2846C178.833 27.2846 177.593 28.8785 177.593 31.3257C177.593 33.7407 178.913 36.8319 181.956 36.8319C184.645 36.8319 185.659 34.9321 185.659 32.662Z" fill="white"/>
<path d="M172.454 31.535C172.454 34.9965 170.007 37.2344 166.658 37.2344C166.658 37.2344 162.794 37.2344 162.005 37.2344C162.408 36.8802 162.537 36.6065 162.537 35.9786V27.7032C162.537 26.8821 162.054 26.8338 162.054 26.8338L166.24 26.8177C169.637 26.8016 172.454 27.8803 172.454 31.535ZM170.893 32.0824C170.893 28.6692 169.363 27.3329 165.773 27.3329C165.193 27.3329 164.485 27.4456 163.921 27.4939V35.6244C163.921 37.0734 164.742 36.7192 166.465 36.7353C169.589 36.7836 170.893 34.7389 170.893 32.0824Z" fill="white"/>
<path d="M157.806 26.8177C157.5 27.1236 157.436 28.2184 157.436 28.9429V34.0466C157.436 36.2684 155.6 37.3954 153.33 37.3954C150.899 37.3954 149.192 36.5582 149.192 34.0466V28.5404C149.192 27.7515 149.16 26.9465 148.758 26.8177C148.758 26.8177 149.772 26.8177 150.963 26.8177C150.609 27.0431 150.657 27.993 150.657 28.3311V33.8212C150.657 35.8498 151.559 36.5099 153.604 36.5099C155.407 36.5099 156.614 35.4956 156.614 33.8051V29.1683C156.614 27.9608 156.534 27.0914 156.019 26.8338C156.019 26.8338 157.371 26.866 157.806 26.8177Z" fill="white"/>
<path d="M145.776 37.1861C144.858 37.1861 142.862 37.2344 142.862 37.2344C143.264 37.0251 143.248 36.4616 143.071 35.9786L142.025 33.0162L138.338 33.0323C138 33.95 137.307 35.7371 137.339 36.204C137.388 36.8802 137.42 37.0251 137.726 37.1861C137.726 37.1861 135.246 37.3149 135.214 37.2022C135.858 36.9929 136.438 35.6888 136.824 34.7711L140.608 25.9C140.994 26.8499 141.992 29.1683 142.347 29.9894C143.135 31.7926 143.892 34.0788 144.729 35.882C145.003 36.4777 145.212 36.9768 145.776 37.1861ZM141.767 32.3239L140.205 28.3955L138.644 32.34L141.767 32.3239Z" fill="white"/>
<path d="M132.267 26.8821C131.832 27.2202 131.784 27.4617 131.784 28.3633L131.752 37.7657L123.83 28.3955V34.8033C123.83 35.9303 123.782 36.9768 124.523 37.2344C124.523 37.2344 123.09 37.2344 122.526 37.2344C122.736 37.1217 122.977 36.5099 122.993 35.1414C123.042 32.7908 122.993 29.2649 122.993 28.5243C122.993 27.6549 122.864 27.0914 122.398 26.8821C123.347 26.8821 124.474 26.8177 124.474 26.8177L131.011 34.5779V32.4849C131.011 31.5511 131.027 28.7014 131.011 27.832C130.995 27.3973 130.882 27.0109 130.48 26.8338C131.14 26.8338 131.446 26.8821 132.267 26.8821Z" fill="white"/>
<path d="M119.819 37.2666H117.694L113.459 31.6477V35.1897C113.459 36.9285 113.669 37.0573 113.974 37.2666C113.974 37.2666 112.316 37.2344 111.704 37.2344C112.187 36.8802 112.059 34.2237 112.059 33.6602V28.5726C112.059 27.7515 112.059 27.0109 111.624 26.8338C112.59 26.8338 113.395 26.8016 114.618 26.8016C116.454 26.8016 118.209 27.2202 118.241 29.5225C118.273 31.2613 116.116 31.9053 115.423 31.9536C115.423 31.9536 117.822 34.916 119.078 36.6548C119.223 36.8641 119.819 37.2666 119.819 37.2666ZM116.728 29.6191C116.728 28.2667 116.164 27.3812 114.57 27.3812C114.184 27.3812 113.846 27.4939 113.459 27.5261C113.459 27.5261 113.459 30.9554 113.459 31.6638C114.055 31.696 116.728 31.7604 116.728 29.6191Z" fill="white"/>
<path d="M108.562 37.1861C107.644 37.1861 105.647 37.2344 105.647 37.2344C106.05 37.0251 106.034 36.4616 105.857 35.9786L104.81 33.0162L101.123 33.0323C100.785 33.95 100.093 35.7371 100.125 36.204C100.173 36.8802 100.206 37.0251 100.512 37.1861C100.512 37.1861 98.0322 37.3149 98 37.2022C98.644 36.9929 99.2236 35.6888 99.61 34.7711L103.394 25.9C103.78 26.8499 104.778 29.1683 105.132 29.9894C105.921 31.7926 106.678 34.0788 107.515 35.882C107.789 36.4777 107.998 36.9768 108.562 37.1861ZM104.553 32.3239L102.991 28.3955L101.429 32.34L104.553 32.3239Z" fill="white"/>
<path d="M279.3 20.3C279.687 20.3 280 20.6134 280 21C280 21.3866 279.687 21.7 279.3 21.7L94.5 21.7C94.1134 21.7 93.8 21.3866 93.8 21C93.8 20.6134 94.1134 20.3 94.5 20.3L279.3 20.3Z" fill="white"/>
<path d="M16.1077 42C13.7137 42 11.7147 41.6889 10.1109 41.0667C8.53036 40.4214 7.2171 39.7877 6.17114 39.1654C5.12519 38.5202 4.23031 38.1975 3.48652 38.1975C2.85895 38.1975 2.35921 38.4625 1.98732 38.9926C1.61542 39.4996 1.31326 40.456 1.08082 41.8617H0C0.116217 40.7556 0.185948 39.0156 0.209191 36.642C0.255678 34.2683 0.278922 31.0074 0.278922 26.8593H1.39461C1.78975 31.3761 3.21922 34.8675 5.68303 37.3333C8.14684 39.7761 11.1139 41.5591 15.042 41.5591C18.0637 41.5591 20.6518 40.2831 22.3486 38.8543C24.0454 37.4255 24.8938 35.3169 24.8938 32.5284C24.8938 30.8691 24.5567 29.521 23.8827 28.4839C23.2086 27.4469 22.0929 26.5136 20.5356 25.6839C18.9783 24.8313 16.8631 23.8979 14.1901 22.8839C11.0058 21.6165 8.43739 20.4181 6.48493 19.2889C4.53248 18.1597 3.11463 16.9267 2.23137 15.5901C1.34812 14.2535 0.906496 12.6519 0.906496 10.7852C0.906496 7.48971 2.04543 4.87407 4.32329 2.93827C6.60115 0.979424 9.66929 0 13.5277 0C15.5731 0 17.2699 0.21893 18.618 0.65679C19.9894 1.09465 21.1516 1.53251 22.1046 1.97037C23.0575 2.40823 23.9524 2.62716 24.7892 2.62716C25.4167 2.62716 25.9165 2.47737 26.2884 2.17778C26.6835 1.87819 26.9973 1.19835 27.2297 0.138272H28.3454C28.2757 0.990946 28.206 1.94732 28.1362 3.00741C28.0898 4.06749 28.0549 5.40411 28.0316 7.01728C28.0084 8.63045 27.9968 10.716 27.9968 13.2741H26.916C26.4976 9.33333 25.1611 6.3144 22.9065 4.21728C20.6518 2.09712 17.7696 1.03704 14.2599 1.03704C11.5171 1.03704 9.3555 1.69383 7.77495 3.00741C6.19439 4.29794 5.40411 6.19918 5.40411 8.71111C5.40411 10.1169 5.76438 11.3267 6.48493 12.3407C7.22872 13.3547 8.46063 14.3111 10.1806 15.2099C11.9239 16.0856 14.2715 17.042 17.2234 18.079C21.9186 19.6691 25.254 21.3975 27.2297 23.2642C29.2054 25.1078 30.1933 27.493 30.1933 30.4198C30.1933 33.9918 28.9265 36.8148 26.393 38.8889C23.8827 40.963 20.4543 42 16.1077 42Z" fill="white"/>
<path d="M12.4622 41.5591L11.2494 41.2491C13.0391 41.0647 14.8761 40.5606 16.7256 38.9926C18.0429 37.8758 18.6933 37.1951 19.65 35.4667L35.688 0.138272H37.4313L53.1283 36.4219C53.7327 37.6894 55.7472 38.3473 56.8164 38.9926C57.8856 39.6379 58.8118 40.5723 60.6713 40.6875L61.044 41.7665C59.7888 41.7204 58.4174 41.6858 56.9299 41.6628C55.4655 41.6167 53.9896 41.5937 52.502 41.5937C50.2474 41.5937 48.2252 41.6167 46.4354 41.6628C44.6689 41.6858 43.2743 41.7204 42.2516 41.7665V40.6949C45.5057 40.6488 47.5046 40.2686 48.2484 39.5541C48.9922 38.8397 49.0879 36.9761 48.2047 35.0864L43.986 26.0642H25.1239L24.1477 28.1383C22.2649 32.1251 21.7303 35.144 22.5439 37.1951C23.3806 39.223 25.1274 40.764 28.242 40.6949V41.7665C27.1728 41.7435 25.8014 41.7089 24.1279 41.6628C22.4776 41.6167 20.7808 41.5937 19.0376 41.5937C18.0613 41.5937 15.9923 41.6258 15.0858 41.6719C14.2026 41.6949 14.2984 41.513 12.4622 41.5591ZM25.6469 24.9926H43.5327L34.7816 4.77037L25.6469 24.9926Z" fill="white"/>
<path d="M64.7168 42C60.533 42 56.8722 41.1588 53.7343 39.4765C50.6197 37.7712 48.9452 35.2213 47.2252 32.1562C45.5052 29.0912 43.9023 25.6955 43.9023 21.6395C43.9023 17.33 44.7972 13.5621 46.5869 10.3358C48.3999 7.08642 50.8986 4.55144 54.0829 2.73086C57.2905 0.910288 60.9746 0 65.1352 0C67.5061 0 69.6212 0.276543 71.4807 0.82963C73.3402 1.38272 74.944 1.94733 76.2921 2.52346C77.6402 3.07654 78.721 3.35309 79.5346 3.35309C80.2784 3.35309 80.8478 3.09959 81.243 2.59259C81.6381 2.0856 81.9519 1.26749 82.1843 0.138272H83.2651C83.2186 1.10617 83.1722 2.1893 83.1257 3.38765C83.0792 4.58601 83.0443 6.08395 83.0211 7.88148C83.0211 9.67901 83.0211 11.972 83.0211 14.7605H81.9054C80.9524 10.1975 79.0116 6.76379 76.0829 4.45926C73.1775 2.13169 69.6096 0.967901 65.3793 0.967901C60.4284 0.967901 56.57 2.71934 53.804 6.22222C51.038 9.7251 49.6551 14.5992 49.6551 20.8444C49.6551 27.1588 51.0497 32.1021 53.8389 35.6741C56.6281 39.2461 60.4749 41.0321 65.3793 41.0321C69.6096 41.0321 73.1891 39.9144 76.1178 37.679C79.0697 35.4436 81.0221 31.9638 81.9751 27.2395H83.0908C83.0908 29.8436 83.0908 32.0329 83.0908 33.8074C83.1141 35.5588 83.1373 37.0568 83.1605 38.3012C83.207 39.5457 83.2535 40.7325 83.3 41.8617H82.2192C81.9867 40.7095 81.673 39.9029 81.2778 39.442C80.8827 38.958 80.3248 38.716 79.6043 38.716C78.721 38.716 77.5937 38.9926 76.2224 39.5457C74.8742 40.0988 73.2472 40.6519 71.3412 41.2049C69.4585 41.735 67.2504 42 64.7168 42Z" fill="white"/>
<path d="M268.032 15.5344C268.032 15.5344 266.293 15.5827 265.682 15.5344C266.036 15.3573 266.116 14.9548 266.116 14.2303V9.7062C266.116 8.7724 266.116 6.7921 266.116 6.2286C266.116 5.7778 265.987 5.3592 265.682 5.1338C265.682 5.1338 266.599 5.1821 267.984 5.1821C267.549 5.3914 267.549 5.8422 267.549 6.5667C267.549 6.5667 267.549 12.1856 267.549 14.0049C267.549 15.2768 268.032 15.5344 268.032 15.5344Z" fill="white"/>
<path d="M262.549 6.1803C262.549 6.1803 261.97 5.6651 261.149 5.6651C260.488 5.6651 259.072 5.6973 259.072 5.6973L259.088 13.9727C259.088 14.9226 259.233 15.3734 259.587 15.5505L257.236 15.5344C257.236 15.5344 257.623 15.2768 257.623 14.7455C257.623 13.055 257.623 5.6973 257.623 5.6973C257.623 5.6973 256.576 5.6973 255.964 5.6973C254.966 5.6973 254.709 5.8905 254.274 6.3252V5.1821H262.549C262.549 5.6168 262.549 5.8744 262.549 6.1803Z" fill="white"/>
<path d="M253.318 15.4861C252.4 15.4861 250.403 15.5344 250.403 15.5344C250.806 15.3251 250.79 14.7616 250.613 14.2786L249.566 11.3162L245.879 11.3323C245.541 12.25 244.849 14.0371 244.881 14.504C244.929 15.1802 244.962 15.3251 245.268 15.4861C245.268 15.4861 242.788 15.6149 242.756 15.5022C243.4 15.2929 243.98 13.9888 244.366 13.0711L248.149 4.2C248.536 5.1499 249.534 7.4683 249.888 8.2894C250.677 10.0926 251.434 12.3788 252.271 14.182C252.545 14.7777 252.754 15.2768 253.318 15.4861ZM249.309 10.6239L247.747 6.6955L246.185 10.64L249.309 10.6239Z" fill="white"/>
<path d="M240.022 15.1158C239.008 15.5183 237.253 15.6632 236.126 15.6632C232.487 15.6632 230.442 13.4897 230.442 10.157C230.442 6.8565 233.002 4.9245 236.448 4.9245C237.494 4.9245 238.991 5.005 239.974 5.327C239.974 5.327 240.022 6.4701 239.974 7.0336C239.716 6.2447 238.315 5.5041 236.415 5.5041C233.678 5.5041 232.068 7.1946 232.068 9.6257C232.068 12.6042 233.775 14.987 237.204 14.987C238.219 14.987 239.539 14.3269 240.006 13.7312L240.022 15.1158Z" fill="white"/>
<path d="M226.727 10.3663C226.679 13.5863 224.554 15.7759 221.108 15.7759C217.631 15.7759 215.618 13.5058 215.618 10.3663C215.618 7.1141 217.937 4.9889 221.366 4.9889C224.876 4.9889 226.775 7.2751 226.727 10.3663ZM225.182 10.962C225.182 8.5148 224.151 5.5846 221.108 5.5846C218.355 5.5846 217.115 7.1785 217.115 9.6257C217.115 12.0407 218.436 15.1319 221.479 15.1319C224.167 15.1319 225.182 13.2321 225.182 10.962Z" fill="white"/>
<path d="M212.904 5.1338C212.55 5.3914 212.131 6.3091 212.067 6.4862L208.525 15.6149H208.139L204.21 6.3574C203.937 5.7295 203.679 5.3431 203.293 5.1338C203.293 5.1338 204.677 5.166 205.852 5.166C205.627 5.5202 205.579 5.6007 205.756 6.0837C205.917 6.5506 205.901 6.6311 206.094 7.0819L208.686 13.2482C209.475 11.5094 210.666 8.4021 211.198 6.6633C211.407 5.9388 211.375 5.4397 210.924 5.1338C211.632 5.1338 212.196 5.1338 212.904 5.1338Z" fill="white"/>
<path d="M201.448 5.1338C201.094 5.3914 200.675 6.3091 200.611 6.4862L197.069 15.6149H196.682L192.754 6.3574C192.48 5.7295 192.223 5.3431 191.836 5.1338C191.836 5.1338 193.221 5.166 194.396 5.166C194.171 5.5202 194.123 5.6007 194.3 6.0837C194.461 6.5506 194.445 6.6311 194.638 7.0819L197.23 13.2482C198.019 11.5094 199.21 8.4021 199.742 6.6633C199.951 5.9388 199.919 5.4397 199.468 5.1338C200.176 5.1338 200.74 5.1338 201.448 5.1338Z" fill="white"/>
<path d="M190.864 15.4861C189.946 15.4861 187.95 15.5344 187.95 15.5344C188.352 15.3251 188.336 14.7616 188.159 14.2786L187.113 11.3162L183.426 11.3323C183.088 12.25 182.395 14.0371 182.428 14.504C182.476 15.1802 182.508 15.3251 182.814 15.4861C182.814 15.4861 180.335 15.6149 180.302 15.5022C180.946 15.2929 181.526 13.9888 181.912 13.0711L185.696 4.2C186.082 5.1499 187.08 7.4683 187.435 8.2894C188.224 10.0926 188.98 12.3788 189.817 14.182C190.091 14.7777 190.301 15.2768 190.864 15.4861ZM186.855 10.6239L185.293 6.6955L183.732 10.64L186.855 10.6239Z" fill="white"/>
<path d="M171.773 10.3663C171.725 13.5863 169.6 15.7759 166.154 15.7759C162.677 15.7759 160.664 13.5058 160.664 10.3663C160.664 7.1141 162.983 4.9889 166.412 4.9889C169.922 4.9889 171.822 7.2751 171.773 10.3663ZM170.228 10.962C170.228 8.5148 169.197 5.5846 166.154 5.5846C163.401 5.5846 162.162 7.1785 162.162 9.6257C162.162 12.0407 163.482 15.1319 166.525 15.1319C169.213 15.1319 170.228 13.2321 170.228 10.962Z" fill="white"/>
<path d="M156.804 15.5344C156.804 15.5344 155.065 15.5827 154.453 15.5344C154.807 15.3573 154.888 14.9548 154.888 14.2303V9.7062C154.888 8.7724 154.888 6.7921 154.888 6.2286C154.888 5.7778 154.759 5.3592 154.453 5.1338C154.453 5.1338 155.371 5.1821 156.756 5.1821C156.321 5.3914 156.321 5.8422 156.321 6.5667C156.321 6.5667 156.321 12.1856 156.321 14.0049C156.321 15.2768 156.804 15.5344 156.804 15.5344Z" fill="white"/>
<path d="M150.409 9.835C150.409 13.2965 147.962 15.5344 144.613 15.5344C144.613 15.5344 140.749 15.5344 139.96 15.5344C140.363 15.1802 140.492 14.9065 140.492 14.2786V6.0032C140.492 5.1821 140.009 5.1338 140.009 5.1338L144.195 5.1177C147.592 5.1016 150.409 6.1803 150.409 9.835ZM148.848 10.3824C148.848 6.9692 147.318 5.6329 143.728 5.6329C143.148 5.6329 142.44 5.7456 141.876 5.7939V13.9244C141.876 15.3734 142.697 15.0192 144.42 15.0353C147.543 15.0836 148.848 13.0389 148.848 10.3824Z" fill="white"/>
<path d="M135.761 5.1177C135.455 5.4236 135.39 6.5184 135.39 7.2429V12.3466C135.39 14.5684 133.555 15.6954 131.285 15.6954C128.854 15.6954 127.147 14.8582 127.147 12.3466V6.8404C127.147 6.0515 127.115 5.2465 126.713 5.1177C126.713 5.1177 127.727 5.1177 128.918 5.1177C128.564 5.3431 128.612 6.293 128.612 6.6311V12.1212C128.612 14.1498 129.514 14.8099 131.559 14.8099C133.362 14.8099 134.569 13.7956 134.569 12.1051V7.4683C134.569 6.2608 134.489 5.3914 133.974 5.1338C133.974 5.1338 135.326 5.166 135.761 5.1177Z" fill="white"/>
<path d="M123.645 6.1803C123.645 6.1803 123.065 5.6651 122.244 5.6651C121.584 5.6651 120.167 5.6973 120.167 5.6973L120.183 13.9727C120.183 14.9226 120.328 15.3734 120.682 15.5505L118.332 15.5344C118.332 15.5344 118.718 15.2768 118.718 14.7455C118.718 13.055 118.718 5.6973 118.718 5.6973C118.718 5.6973 117.672 5.6973 117.06 5.6973C116.062 5.6973 115.804 5.8905 115.369 6.3252V5.1821H123.645C123.645 5.6168 123.645 5.8744 123.645 6.1803Z" fill="white"/>
<path d="M112.695 12.411C112.727 14.6811 111.053 15.7276 108.767 15.7276C107.833 15.7276 107.285 15.5344 106.4 15.2929C106.4 15.2929 106.4 14.1498 106.4 13.4414C106.738 14.4235 107.817 15.0675 109.121 15.0675C110.505 15.0675 111.278 14.2947 111.278 13.055C111.278 10.2536 106.69 11.0103 106.69 7.9513C106.69 6.0354 108.38 5.005 110.264 5.005C111.069 5.005 111.584 5.1499 112.373 5.2626C112.373 5.2626 112.373 6.0998 112.373 6.7921C112.067 6.0998 111.23 5.5685 109.974 5.5685C108.879 5.5685 108.01 6.4218 108.01 7.42C108.01 9.674 112.647 9.1427 112.695 12.411Z" fill="white"/>
</svg>
