<svg width="264" height="39" viewBox="0 0 264 39" fill="none" xmlns="http://www.w3.org/2000/svg">
<path d="M260.236 29.7758C260.191 32.7658 258.187 34.799 254.939 34.799C251.66 34.799 249.762 32.6911 249.762 29.7758C249.762 26.7559 251.948 24.7825 255.181 24.7825C258.491 24.7825 260.282 26.9054 260.236 29.7758ZM258.779 30.329C258.779 28.0566 257.808 25.3357 254.939 25.3357C252.343 25.3357 251.174 26.8157 251.174 29.0881C251.174 31.3306 252.419 34.201 255.288 34.201C257.823 34.201 258.779 32.437 258.779 30.329Z" fill="#3A3232"/>
<path d="M246.122 34.5748C246.122 34.5748 244.483 34.6196 243.906 34.5748C244.24 34.4104 244.316 34.0366 244.316 33.3638V29.1629C244.316 28.2958 244.316 26.4569 244.316 25.9337C244.316 25.5151 244.194 25.1264 243.906 24.9171C243.906 24.9171 244.771 24.9619 246.077 24.9619C245.667 25.1563 245.667 25.5749 245.667 26.2477C245.667 26.2477 245.667 31.4652 245.667 33.1545C245.667 34.3356 246.122 34.5748 246.122 34.5748Z" fill="#3A3232"/>
<path d="M239.931 34.5748C239.931 34.5748 238.291 34.6196 237.715 34.5748C238.049 34.4104 238.124 34.0366 238.124 33.3638V29.5665H233.161V33.1545C233.161 34.3356 233.616 34.5748 233.616 34.5748C233.616 34.5748 231.977 34.6196 231.4 34.5748C231.734 34.4104 231.81 34.0366 231.81 33.3638V25.9337C231.81 25.5151 231.688 25.1264 231.4 24.9171C231.4 24.9171 232.265 24.9619 233.57 24.9619C233.161 25.1563 233.161 25.5749 233.161 26.2477V29.0433H238.124V25.9337C238.124 25.5151 238.003 25.1264 237.715 24.9171C237.715 24.9171 238.58 24.9619 239.9 24.9619C239.475 25.1563 239.475 25.5749 239.475 26.2477V33.1545C239.475 34.3356 239.931 34.5748 239.931 34.5748Z" fill="#3A3232"/>
<path d="M227.653 34.1861C226.697 34.5598 225.042 34.6944 223.979 34.6944C220.549 34.6944 218.621 32.6762 218.621 29.5815C218.621 26.5168 221.035 24.7227 224.283 24.7227C225.27 24.7227 226.681 24.7975 227.607 25.0965C227.607 25.0965 227.653 26.1579 227.607 26.6812C227.365 25.9487 226.044 25.2609 224.253 25.2609C221.672 25.2609 220.154 26.8307 220.154 29.0881C220.154 31.8539 221.763 34.0665 224.996 34.0665C225.953 34.0665 227.198 33.4535 227.638 32.9004L227.653 34.1861Z" fill="#3A3232"/>
<path d="M216.189 34.6047H214.186L210.193 29.3871V32.6761C210.193 34.2907 210.391 34.4103 210.679 34.6047C210.679 34.6047 209.116 34.5748 208.539 34.5748C208.994 34.2459 208.873 31.7791 208.873 31.2559V26.5317C208.873 25.7692 208.873 25.0815 208.463 24.9171C209.374 24.9171 210.133 24.8872 211.286 24.8872C213.017 24.8872 214.671 25.2759 214.702 27.4137C214.732 29.0283 212.698 29.6263 212.045 29.6712C212.045 29.6712 214.307 32.422 215.491 34.0366C215.628 34.2309 216.189 34.6047 216.189 34.6047ZM213.275 27.5034C213.275 26.2476 212.744 25.4254 211.241 25.4254C210.876 25.4254 210.558 25.53 210.193 25.5599C210.193 25.5599 210.193 28.7443 210.193 29.4021C210.755 29.432 213.275 29.4918 213.275 27.5034Z" fill="#3A3232"/>
<path d="M204.63 33.2742L204.584 34.5748H198.315C198.315 34.5748 198.679 34.2907 198.679 33.5283C198.679 30.9419 198.679 28.5948 198.679 25.844C198.679 25.1264 198.269 24.9171 198.269 24.9171L204.022 24.9021V26.0533C204.022 26.0533 203.567 25.4852 202.702 25.4852C201.897 25.4852 200 25.5001 200 25.5001V29.1629C200 29.1629 201.882 29.1629 203.036 29.1629C203.476 29.1629 203.734 28.834 203.734 28.834V30.1346C203.734 30.1346 203.415 29.6861 203.036 29.6861C201.882 29.6861 200 29.731 200 29.731C200 29.731 200 31.5549 200 32.721C200 33.3937 200.091 33.9469 200.85 33.9618C201.518 33.9768 202.125 33.9618 202.914 33.9618C204.098 33.9768 204.63 33.2742 204.63 33.2742Z" fill="#3A3232"/>
<path d="M194.507 34.1861C193.551 34.5598 191.896 34.6944 190.834 34.6944C187.403 34.6944 185.475 32.6762 185.475 29.5815C185.475 26.5168 187.889 24.7227 191.137 24.7227C192.124 24.7227 193.536 24.7975 194.462 25.0965C194.462 25.0965 194.507 26.1579 194.462 26.6812C194.219 25.9487 192.898 25.2609 191.107 25.2609C188.526 25.2609 187.008 26.8307 187.008 29.0881C187.008 31.8539 188.617 34.0665 191.851 34.0665C192.807 34.0665 194.052 33.4535 194.492 32.9004L194.507 34.1861Z" fill="#3A3232"/>
<path d="M176.507 29.7758C176.462 32.7658 174.458 34.799 171.21 34.799C167.931 34.799 166.033 32.6911 166.033 29.7758C166.033 26.7559 168.219 24.7825 171.452 24.7825C174.762 24.7825 176.553 26.9054 176.507 29.7758ZM175.05 30.329C175.05 28.0566 174.079 25.3357 171.21 25.3357C168.614 25.3357 167.445 26.8157 167.445 29.0881C167.445 31.3306 168.69 34.201 171.559 34.201C174.094 34.201 175.05 32.437 175.05 30.329Z" fill="#3A3232"/>
<path d="M162.6 29.2825C162.6 32.4967 160.292 34.5748 157.135 34.5748C157.135 34.5748 153.492 34.5748 152.748 34.5748C153.127 34.2459 153.249 33.9917 153.249 33.4087V25.7244C153.249 24.9619 152.794 24.9171 152.794 24.9171L156.74 24.9021C159.943 24.8872 162.6 25.8889 162.6 29.2825ZM161.127 29.7908C161.127 26.6214 159.685 25.3806 156.3 25.3806C155.754 25.3806 155.086 25.4852 154.554 25.5301V33.0798C154.554 34.4253 155.329 34.0964 156.953 34.1114C159.898 34.1562 161.127 32.2575 161.127 29.7908Z" fill="#3A3232"/>
<path d="M148.788 24.9021C148.5 25.1862 148.439 26.2028 148.439 26.8755V31.6147C148.439 33.6778 146.709 34.7243 144.568 34.7243C142.276 34.7243 140.667 33.9469 140.667 31.6147V26.5018C140.667 25.7692 140.637 25.0217 140.257 24.9021C140.257 24.9021 141.214 24.9021 142.337 24.9021C142.003 25.1115 142.048 25.9935 142.048 26.3074V31.4054C142.048 33.2891 142.899 33.9021 144.826 33.9021C146.527 33.9021 147.665 32.9602 147.665 31.3904V27.0848C147.665 25.9636 147.589 25.1563 147.103 24.9171C147.103 24.9171 148.379 24.947 148.788 24.9021Z" fill="#3A3232"/>
<path d="M137.446 34.5299C136.581 34.5299 134.698 34.5748 134.698 34.5748C135.078 34.3805 135.063 33.8572 134.896 33.4087L133.909 30.6579L130.433 30.6728C130.114 31.525 129.461 33.1844 129.492 33.618C129.537 34.2459 129.567 34.3805 129.856 34.5299C129.856 34.5299 127.518 34.6495 127.488 34.5449C128.095 34.3505 128.641 33.1396 129.006 32.2874L132.573 24.05C132.937 24.932 133.879 27.0848 134.212 27.8473C134.956 29.5217 135.67 31.6446 136.459 33.319C136.717 33.8722 136.915 34.3356 137.446 34.5299ZM133.666 30.0151L132.194 26.3673L130.721 30.03L133.666 30.0151Z" fill="#3A3232"/>
<path d="M124.709 24.9619C124.299 25.2759 124.253 25.5002 124.253 26.3373L124.223 35.0681L116.754 26.3673V32.3173C116.754 33.3638 116.709 34.3356 117.407 34.5748C117.407 34.5748 116.056 34.5748 115.525 34.5748C115.722 34.4701 115.95 33.9021 115.965 32.6313C116.011 30.4486 115.965 27.1745 115.965 26.4868C115.965 25.6796 115.844 25.1563 115.403 24.9619C116.299 24.9619 117.362 24.9021 117.362 24.9021L123.525 32.1081V30.1646C123.525 29.2974 123.54 26.6513 123.525 25.844C123.51 25.4403 123.403 25.0815 123.024 24.9171C123.646 24.9171 123.935 24.9619 124.709 24.9619Z" fill="#3A3232"/>
<path d="M112.972 34.6047H110.968L106.976 29.3871V32.6761C106.976 34.2907 107.173 34.4103 107.462 34.6047C107.462 34.6047 105.898 34.5748 105.321 34.5748C105.777 34.2459 105.655 31.7791 105.655 31.2559V26.5317C105.655 25.7692 105.655 25.0815 105.245 24.9171C106.156 24.9171 106.915 24.8872 108.069 24.8872C109.799 24.8872 111.454 25.2759 111.484 27.4137C111.515 29.0283 109.481 29.6263 108.828 29.6712C108.828 29.6712 111.09 32.422 112.274 34.0366C112.41 34.2309 112.972 34.6047 112.972 34.6047ZM110.057 27.5034C110.057 26.2476 109.526 25.4254 108.023 25.4254C107.659 25.4254 107.34 25.53 106.976 25.5599C106.976 25.5599 106.976 28.7443 106.976 29.4021C107.538 29.432 110.057 29.4918 110.057 27.5034Z" fill="#3A3232"/>
<path d="M102.358 34.5299C101.493 34.5299 99.6105 34.5748 99.6105 34.5748C99.99 34.3805 99.9748 33.8572 99.8078 33.4087L98.8211 30.6579L95.3449 30.6728C95.0261 31.525 94.3734 33.1844 94.4038 33.618C94.4493 34.2459 94.4797 34.3805 94.7681 34.5299C94.7681 34.5299 92.4304 34.6495 92.4 34.5449C93.0072 34.3505 93.5537 33.1396 93.918 32.2874L97.4853 24.05C97.8496 24.932 98.7908 27.0848 99.1247 27.8473C99.8686 29.5217 100.582 31.6446 101.371 33.319C101.629 33.8722 101.827 34.3356 102.358 34.5299ZM98.5783 30.0151L97.1058 26.3673L95.6333 30.03L98.5783 30.0151Z" fill="#3A3232"/>
<path d="M263.34 18.85C263.705 18.85 264 19.141 264 19.5C264 19.859 263.705 20.15 263.34 20.15L89.1 20.15C88.7355 20.15 88.44 19.859 88.44 19.5C88.44 19.141 88.7355 18.85 89.1 18.85L263.34 18.85Z" fill="#3A3232"/>
<path d="M15.1873 39C12.93 39 11.0453 38.7111 9.53315 38.1333C8.04291 37.5342 6.8047 36.9457 5.81851 36.3679C4.83232 35.7687 3.98858 35.4691 3.28729 35.4691C2.69558 35.4691 2.2244 35.7152 1.87376 36.2074C1.52311 36.6782 1.23821 37.5663 1.01906 38.8716H0C0.109576 37.8444 0.175322 36.2288 0.197238 34.0247C0.241068 31.8206 0.262983 28.7926 0.262983 24.9407H1.31492C1.68748 29.135 3.03527 32.377 5.35829 34.6667C7.68131 36.935 10.4788 38.5906 14.1825 38.5906C17.0315 38.5906 19.4717 37.4058 21.0715 36.079C22.6714 34.7523 23.4713 32.7942 23.4713 30.2049C23.4713 28.6642 23.1535 27.4123 22.518 26.4494C21.8824 25.4864 20.8305 24.6198 19.3622 23.8494C17.8938 23.0576 15.8995 22.1909 13.3793 21.2494C10.3769 20.0724 7.95525 18.9597 6.11437 17.9111C4.27348 16.8626 2.93665 15.7177 2.10387 14.4765C1.27109 13.2354 0.854696 11.7481 0.854696 10.0148C0.854696 6.95473 1.92855 4.52593 4.07624 2.7284C6.22394 0.909465 9.11676 0 12.7547 0C14.6832 0 16.2831 0.203292 17.5541 0.609877C18.8471 1.01646 19.9429 1.42305 20.8414 1.82963C21.74 2.23621 22.5837 2.43951 23.3727 2.43951C23.9644 2.43951 24.4355 2.30041 24.7862 2.02222C25.1588 1.74403 25.4546 1.11276 25.6738 0.128395H26.7257C26.6599 0.920165 26.5942 1.80823 26.5285 2.79259C26.4846 3.77695 26.4518 5.01811 26.4298 6.51605C26.4079 8.01399 26.397 9.95062 26.397 12.3259H25.3779C24.9834 8.66667 23.7233 5.86337 21.5975 3.91605C19.4717 1.94732 16.7542 0.962963 13.445 0.962963C10.859 0.962963 8.8209 1.57284 7.33066 2.79259C5.84042 3.99095 5.0953 5.75638 5.0953 8.08889C5.0953 9.39424 5.43499 10.5177 6.11437 11.4593C6.81565 12.4008 7.97716 13.2889 9.5989 14.1235C11.2425 14.9366 13.456 15.8247 16.2392 16.7877C20.6661 18.2642 23.811 19.8691 25.6738 21.6025C27.5366 23.3144 28.468 25.5292 28.468 28.2469C28.468 31.5638 27.2736 34.1852 24.8848 36.1111C22.518 38.037 19.2855 39 15.1873 39Z" fill="#3A3232"/>
<path d="M11.7501 38.5906L10.6066 38.3027C12.294 38.1315 14.026 37.6634 15.7698 36.2074C17.0118 35.1704 17.6251 34.5383 18.5272 32.9333L33.6487 0.128395H35.2924L50.0924 33.8203C50.6622 34.9973 52.5616 35.6082 53.5697 36.2074C54.5778 36.8066 55.4511 37.6743 57.2043 37.7812L57.5557 38.7832C56.3723 38.7404 55.0793 38.7083 53.6767 38.6869C52.2961 38.6441 50.9044 38.6227 49.5019 38.6227C47.3761 38.6227 45.4695 38.6441 43.782 38.6869C42.1164 38.7083 40.8015 38.7404 39.8372 38.7832V37.7881C42.9054 37.7453 44.7901 37.3922 45.4914 36.7289C46.1927 36.0655 46.2829 34.335 45.4501 32.5802L41.4725 24.2025H23.6882L22.7678 26.1284C20.9927 29.8305 20.4886 32.6337 21.2556 34.5383C22.0446 36.4214 23.6915 37.8523 26.6282 37.7881V38.7832C25.6201 38.7618 24.3271 38.7297 22.7492 38.6869C21.1932 38.6441 19.5934 38.6227 17.9497 38.6227C17.0293 38.6227 15.0785 38.6525 14.2238 38.6953C13.391 38.7167 13.4814 38.5478 11.7501 38.5906ZM24.1813 23.2074H41.0451L32.794 4.42963L24.1813 23.2074Z" fill="#3A3232"/>
<path d="M61.0187 39C57.074 39 53.6223 38.2189 50.6638 36.6568C47.7271 35.0732 46.1483 32.7055 44.5266 29.8594C42.9049 27.0133 41.3936 23.8601 41.3936 20.0938C41.3936 16.0922 42.2373 12.5934 43.9248 9.59753C45.6342 6.58025 47.9901 4.22634 50.9925 2.5358C54.0168 0.845267 57.4904 0 61.4132 0C63.6486 0 65.6429 0.25679 67.3961 0.77037C69.1493 1.28395 70.6615 1.80823 71.9325 2.34321C73.2036 2.85679 74.2227 3.11358 74.9897 3.11358C75.691 3.11358 76.2279 2.87819 76.6005 2.40741C76.9731 1.93663 77.2689 1.17695 77.4881 0.128395H78.5071C78.4633 1.02716 78.4195 2.03292 78.3756 3.14568C78.3318 4.25844 78.2989 5.64938 78.277 7.31852C78.277 8.98765 78.277 11.1169 78.277 13.7062H77.2251C76.3266 9.46914 74.4966 6.28066 71.7353 4.14074C68.9959 1.97942 65.6319 0.898765 61.6433 0.898765C56.9754 0.898765 53.3374 2.5251 50.7295 5.77778C48.1216 9.03045 46.8176 13.5564 46.8176 19.3556C46.8176 25.2189 48.1325 29.8091 50.7624 33.1259C53.3922 36.4428 57.0192 38.1012 61.6433 38.1012C65.6319 38.1012 69.0069 37.0634 71.7682 34.9877C74.5514 32.9119 76.3923 29.6807 77.2908 25.2938H78.3428C78.3428 27.7119 78.3428 29.7449 78.3428 31.3926C78.3647 33.0189 78.3866 34.4099 78.4085 35.5654C78.4523 36.721 78.4962 37.823 78.54 38.8716H77.5209C77.3018 37.8016 77.0059 37.0527 76.6334 36.6247C76.2608 36.1753 75.7348 35.9506 75.0555 35.9506C74.2227 35.9506 73.1598 36.2074 71.8668 36.721C70.5957 37.2346 69.0616 37.7481 67.2646 38.2617C65.4895 38.7539 63.4075 39 61.0187 39Z" fill="#3A3232"/>
<path d="M252.716 14.4248C252.716 14.4248 251.077 14.4697 250.5 14.4248C250.834 14.2604 250.91 13.8866 250.91 13.2139V9.0129C250.91 8.1458 250.91 6.30695 250.91 5.7837C250.91 5.3651 250.788 4.9764 250.5 4.7671C250.5 4.7671 251.365 4.81195 252.671 4.81195C252.261 5.0063 252.261 5.4249 252.261 6.09765C252.261 6.09765 252.261 11.3152 252.261 13.0045C252.261 14.1856 252.716 14.4248 252.716 14.4248Z" fill="#3A3232"/>
<path d="M247.546 5.73885C247.546 5.73885 247 5.26045 246.226 5.26045C245.603 5.26045 244.268 5.29035 244.268 5.29035L244.283 12.9747C244.283 13.8567 244.419 14.2753 244.753 14.4397L242.537 14.4248C242.537 14.4248 242.901 14.1856 242.901 13.6923C242.901 12.1225 242.901 5.29035 242.901 5.29035C242.901 5.29035 241.915 5.29035 241.338 5.29035C240.397 5.29035 240.154 5.46975 239.744 5.8734V4.81195H247.546C247.546 5.2156 247.546 5.4548 247.546 5.73885Z" fill="#3A3232"/>
<path d="M238.842 14.38C237.977 14.38 236.095 14.4248 236.095 14.4248C236.474 14.2304 236.459 13.7072 236.292 13.2587L235.305 10.5079L231.829 10.5228C231.51 11.375 230.858 13.0345 230.888 13.468C230.933 14.0959 230.964 14.2305 231.252 14.38C231.252 14.38 228.915 14.4995 228.884 14.3949C229.491 14.2005 230.038 12.9896 230.402 12.1375L233.969 3.9C234.334 4.78205 235.275 6.93485 235.609 7.6973C236.353 9.3717 237.066 11.4946 237.856 13.169C238.114 13.7222 238.311 14.1856 238.842 14.38ZM235.062 9.86505L233.59 6.21725L232.118 9.88L235.062 9.86505Z" fill="#3A3232"/>
<path d="M226.306 14.0361C225.35 14.4099 223.695 14.5444 222.633 14.5444C219.202 14.5444 217.274 12.5262 217.274 9.4315C217.274 6.36675 219.688 4.57275 222.936 4.57275C223.923 4.57275 225.335 4.6475 226.261 4.9465C226.261 4.9465 226.306 6.00795 226.261 6.5312C226.018 5.79865 224.697 5.11095 222.906 5.11095C220.325 5.11095 218.807 6.6807 218.807 8.93815C218.807 11.7039 220.416 13.9165 223.65 13.9165C224.606 13.9165 225.851 13.3036 226.291 12.7504L226.306 14.0361Z" fill="#3A3232"/>
<path d="M213.771 9.62585C213.726 12.6159 211.722 14.6491 208.473 14.6491C205.195 14.6491 203.297 12.5411 203.297 9.62585C203.297 6.60595 205.483 4.63255 208.716 4.63255C212.026 4.63255 213.817 6.75545 213.771 9.62585ZM212.314 10.179C212.314 7.9066 211.342 5.1857 208.473 5.1857C205.878 5.1857 204.709 6.66575 204.709 8.93815C204.709 11.1806 205.954 14.0511 208.823 14.0511C211.358 14.0511 212.314 12.287 212.314 10.179Z" fill="#3A3232"/>
<path d="M200.738 4.7671C200.404 5.0063 200.01 5.85845 199.949 6.0229L196.609 14.4995H196.245L192.541 5.9033C192.283 5.32025 192.04 4.96145 191.676 4.7671C191.676 4.7671 192.981 4.797 194.089 4.797C193.877 5.1259 193.831 5.20065 193.998 5.64915C194.15 6.0827 194.135 6.15745 194.317 6.57605L196.761 12.3019C197.505 10.6873 198.628 7.80195 199.129 6.18735C199.327 5.5146 199.296 5.05115 198.871 4.7671C199.539 4.7671 200.07 4.7671 200.738 4.7671Z" fill="#3A3232"/>
<path d="M189.937 4.7671C189.603 5.0063 189.208 5.85845 189.147 6.0229L185.808 14.4995H185.444L181.74 5.9033C181.482 5.32025 181.239 4.96145 180.874 4.7671C180.874 4.7671 182.18 4.797 183.288 4.797C183.075 5.1259 183.03 5.20065 183.197 5.64915C183.349 6.0827 183.333 6.15745 183.516 6.57605L185.96 12.3019C186.703 10.6873 187.827 7.80195 188.328 6.18735C188.525 5.5146 188.495 5.05115 188.07 4.7671C188.738 4.7671 189.269 4.7671 189.937 4.7671Z" fill="#3A3232"/>
<path d="M179.958 14.38C179.092 14.38 177.21 14.4248 177.21 14.4248C177.589 14.2304 177.574 13.7072 177.407 13.2587L176.421 10.5079L172.944 10.5228C172.626 11.375 171.973 13.0345 172.003 13.468C172.049 14.0959 172.079 14.2305 172.368 14.38C172.368 14.38 170.03 14.4995 169.999 14.3949C170.607 14.2005 171.153 12.9896 171.517 12.1375L175.085 3.9C175.449 4.78205 176.39 6.93485 176.724 7.6973C177.468 9.3717 178.181 11.4946 178.971 13.169C179.229 13.7222 179.426 14.1856 179.958 14.38ZM176.178 9.86505L174.705 6.21725L173.233 9.88L176.178 9.86505Z" fill="#3A3232"/>
<path d="M161.958 9.62585C161.912 12.6159 159.908 14.6491 156.66 14.6491C153.381 14.6491 151.483 12.5411 151.483 9.62585C151.483 6.60595 153.669 4.63255 156.903 4.63255C160.212 4.63255 162.003 6.75545 161.958 9.62585ZM160.5 10.179C160.5 7.9066 159.529 5.1857 156.66 5.1857C154.064 5.1857 152.895 6.66575 152.895 8.93815C152.895 11.1806 154.14 14.0511 157.009 14.0511C159.544 14.0511 160.5 12.287 160.5 10.179Z" fill="#3A3232"/>
<path d="M147.844 14.4248C147.844 14.4248 146.204 14.4697 145.627 14.4248C145.961 14.2604 146.037 13.8866 146.037 13.2139V9.0129C146.037 8.1458 146.037 6.30695 146.037 5.7837C146.037 5.3651 145.916 4.9764 145.627 4.7671C145.627 4.7671 146.493 4.81195 147.798 4.81195C147.388 5.0063 147.388 5.4249 147.388 6.09765C147.388 6.09765 147.388 11.3152 147.388 13.0045C147.388 14.1856 147.844 14.4248 147.844 14.4248Z" fill="#3A3232"/>
<path d="M141.814 9.1325C141.814 12.3468 139.507 14.4248 136.35 14.4248C136.35 14.4248 132.706 14.4248 131.963 14.4248C132.342 14.0959 132.464 13.8418 132.464 13.2587V5.5744C132.464 4.81195 132.008 4.7671 132.008 4.7671L135.955 4.75215C139.158 4.7372 141.814 5.73885 141.814 9.1325ZM140.342 9.6408C140.342 6.4714 138.9 5.23055 135.515 5.23055C134.968 5.23055 134.3 5.3352 133.769 5.38005V12.9298C133.769 14.2753 134.543 13.9464 136.167 13.9613C139.112 14.0062 140.342 12.1075 140.342 9.6408Z" fill="#3A3232"/>
<path d="M128.003 4.75215C127.715 5.0362 127.654 6.0528 127.654 6.72555V11.4647C127.654 13.5278 125.923 14.5743 123.783 14.5743C121.491 14.5743 119.882 13.7969 119.882 11.4647V6.3518C119.882 5.61925 119.851 4.87175 119.472 4.75215C119.472 4.75215 120.428 4.75215 121.551 4.75215C121.218 4.96145 121.263 5.8435 121.263 6.15745V11.2554C121.263 13.1391 122.113 13.7521 124.041 13.7521C125.741 13.7521 126.88 12.8102 126.88 11.2404V6.93485C126.88 5.8136 126.804 5.0063 126.318 4.7671C126.318 4.7671 127.593 4.797 128.003 4.75215Z" fill="#3A3232"/>
<path d="M116.579 5.73885C116.579 5.73885 116.033 5.26045 115.259 5.26045C114.636 5.26045 113.3 5.29035 113.3 5.29035L113.316 12.9747C113.316 13.8567 113.452 14.2753 113.786 14.4397L111.57 14.4248C111.57 14.4248 111.934 14.1856 111.934 13.6923C111.934 12.1225 111.934 5.29035 111.934 5.29035C111.934 5.29035 110.947 5.29035 110.371 5.29035C109.429 5.29035 109.187 5.46975 108.777 5.8734V4.81195H116.579C116.579 5.2156 116.579 5.4548 116.579 5.73885Z" fill="#3A3232"/>
<path d="M106.255 11.5245C106.286 13.6324 104.707 14.6042 102.551 14.6042C101.671 14.6042 101.155 14.4248 100.32 14.2005C100.32 14.2005 100.32 13.1391 100.32 12.4813C100.639 13.3932 101.656 13.9913 102.885 13.9913C104.191 13.9913 104.92 13.2737 104.92 12.1225C104.92 9.5212 100.593 10.2239 100.593 7.38335C100.593 5.6043 102.187 4.6475 103.963 4.6475C104.722 4.6475 105.208 4.78205 105.952 4.8867C105.952 4.8867 105.952 5.6641 105.952 6.30695C105.663 5.6641 104.874 5.17075 103.69 5.17075C102.658 5.17075 101.838 5.9631 101.838 6.89C101.838 8.983 106.21 8.48965 106.255 11.5245Z" fill="#3A3232"/>
</svg>
