<svg xmlns="http://www.w3.org/2000/svg" version="1.1" xmlns:xlink="http://www.w3.org/1999/xlink" xmlns:svgjs="http://svgjs.dev/svgjs" width="1000" height="1000"><g clip-path="url(#SvgjsClipPath1025)"><rect width="1000" height="1000" fill="#ffffff"></rect><g transform="matrix(5.839416058394161,0,0,5.839416058394161,100,292.7007299270073)"><svg xmlns="http://www.w3.org/2000/svg" version="1.1" xmlns:xlink="http://www.w3.org/1999/xlink" xmlns:svgjs="http://svgjs.dev/svgjs" width="137" height="71"><svg width="137" height="71" viewBox="0 0 137 71" fill="none" xmlns="http://www.w3.org/2000/svg">
<path d="M31.9481 47.6574C15.4017 67.8807 7.2706 56.3769 5.03354 47.5882C4.9938 47.4321 4.8033 47.3818 4.70055 47.5059C3.41028 49.0641 -2.45274 56.7641 1.15982 64.0365C9.24588 77.0599 24.8018 67.4147 31.5277 59.8481C38.2536 52.2814 59.6924 18.6519 59.6924 18.6519C66.6759 9.09542 68.326 16.4038 67.9549 22.4719C67.9215 23.0175 68.7681 23.3343 69.0936 22.8951C73.4808 16.974 80.0191 11.5721 79.4498 7.30199C77.7683 -5.3093 63.0554 1.16778 59.2721 6.33672C49.6036 18.1071 47.0813 29.1611 31.9481 47.6574Z" fill="#3A3232"></path>
<path d="M110.932 53.3763C117.176 52.4767 121.406 44.914 122.299 43.1816C122.374 43.0352 122.581 43.0364 122.652 43.1848C123.747 45.455 129.176 57.9627 118.339 62.4103C108.877 66.2939 95.8117 60.9711 93.9527 49.7937C91.8077 36.897 98.0609 23.3051 105.784 14.3165C112.264 6.77457 132.058 -4.55934 135.77 5.88314C138.6 13.8445 126.518 24.5179 126.518 24.5179C126.518 24.5179 127.861 13.6407 122.475 14.3165C101.452 16.9545 92.9622 55.9654 110.932 53.3763Z" fill="#3A3232"></path>
<path fill-rule="evenodd" clip-rule="evenodd" d="M24.3362 40.4955C25.5582 46.5759 26.4515 51.021 41.0947 47.6418C41.0947 47.6418 49.2823 43.7034 54.967 39.6548L51.4989 38.3937C50.9027 38.1769 50.6565 37.4669 50.9904 36.9275L55.5021 29.6393C55.6911 29.334 56.0293 29.1535 56.3881 29.1663L67.5781 29.566C79.8672 19.0841 89.6701 5.18361 92.1768 1.49263C92.572 0.910832 93.2305 0.57646 93.9333 0.60249L102.13 0.906087C102.958 0.93673 103.436 1.9325 102.983 2.62535C101.075 5.54231 97.2256 12.4004 94.4817 23.6808C94.3818 24.0918 94.0934 24.8723 93.7821 25.7152C93.359 26.8604 92.8935 28.1205 92.8003 28.7251C95.6946 28.4035 99.327 27.3439 103.321 25.5462C104.282 25.1137 105.357 26.3142 104.817 27.2192C104.141 28.3532 103.457 29.5969 102.99 30.6868C102.415 32.028 101.539 34.6114 101.123 35.8608C100.983 36.2827 100.583 36.5624 100.138 36.5484L91.9595 36.2919C90.2513 46.0198 90.4154 52.0019 90.9473 56.89C91.0447 57.7847 91.0097 60.1825 90.9772 61.6264C90.9636 62.2338 90.4147 62.6841 89.8151 62.5859C88.1503 62.313 84.9513 61.8096 82.291 61.514C80.2767 61.2902 78.1844 61.4464 76.5829 61.5659C75.1764 61.6709 74.1483 61.7477 73.8836 61.514C73.6934 61.3461 73.5214 60.4784 73.2701 59.2106C72.7736 56.7064 71.9677 52.641 70.1003 49.3233C66.9578 43.7403 62.954 43.0178 62.954 43.0178C62.954 43.0178 45.9479 56.809 41.0948 60.2529C36.2416 63.6968 20.7712 66.5413 16.7134 54.3677C15.06 49.4076 18.6633 43.5269 23.6066 38.5095C23.7165 38.3979 23.906 38.4527 23.9405 38.6056C24.0855 39.248 24.2126 39.8801 24.3362 40.4955ZM76.4058 29.1456L83.1317 29.566C83.914 26.176 85.4896 21.0323 86.1698 19.2276C86.379 18.9488 86.4947 18.7456 86.4947 18.6363C86.4947 18.4506 86.3717 18.692 86.1698 19.2276C85.197 20.5239 82.2011 23.4556 79.4001 26.1965C78.3329 27.2408 77.2937 28.2577 76.4058 29.1456ZM72.2021 36.292H81.4502L79.7687 44.279L72.2021 36.292Z" fill="#3A3232"></path>
</svg></svg></g></g><defs><clipPath id="SvgjsClipPath1025"><rect width="1000" height="1000" x="0" y="0" rx="350" ry="350"></rect></clipPath></defs></svg>