<svg xmlns="http://www.w3.org/2000/svg" version="1.1" xmlns:xlink="http://www.w3.org/1999/xlink" xmlns:svgjs="http://svgjs.dev/svgjs" width="1000" height="1000"><g clip-path="url(#SvgjsClipPath1040)"><rect width="1000" height="1000" fill="#ffffff"></rect><g transform="matrix(6.4,0,0,6.4,100,282.4)"><svg xmlns="http://www.w3.org/2000/svg" version="1.1" xmlns:xlink="http://www.w3.org/1999/xlink" xmlns:svgjs="http://svgjs.dev/svgjs" width="125" height="68"><svg width="125" height="68" viewBox="0 0 125 68" fill="none" xmlns="http://www.w3.org/2000/svg">
<path fill-rule="evenodd" clip-rule="evenodd" d="M87.3003 0.638754C86.1179 1.02435 83.9409 1.55857 82.4734 1.85201C81.9982 1.95505 81.6167 2.02412 81.3013 2.08121C80.4225 2.24027 80.0571 2.30642 79.6119 2.7554C79.2663 3.10395 78.6099 4.21047 77.9675 5.29317C77.4854 6.10577 77.0113 6.90496 76.6825 7.36021C72.0687 13.749 68.6021 17.4086 63.4729 22.6293C59.379 26.8057 59.0489 27.0438 57.1051 27.058C54.4977 27.077 49.5612 26.312 46.0935 25.3949L43.3382 24.6611L40.9855 27.0814C40.0544 28.0554 39.4602 28.5067 38.7002 29.0841C38.4234 29.2944 38.1245 29.5214 37.7794 29.7965C37.5754 29.9591 37.3814 30.1166 37.1944 30.2684C36.5317 30.8065 35.9556 31.2743 35.3299 31.6463C33.1586 32.9344 34.2057 33.4921 37.8046 32.9004C39.4618 32.6056 43.3002 32.342 46.3343 32.3198C52.3552 32.2758 53.5741 32.6635 51.2636 34.3767C50.9268 34.6196 47.3795 38.2591 43.4048 42.3372L41.6689 44.1179C42.0558 42.7826 42.3016 41.4582 42.3016 41.4582C42.3016 41.4582 41.8781 40.8305 40.5523 39.7131C39.2266 38.5958 34.524 35.3145 33.4543 34.6256C32.3846 33.9368 19.1242 25.341 19.1242 25.341C19.1242 25.341 15.1165 22.291 14.4657 21.4166C13.306 19.8527 13.3315 18.8148 13.6231 17.6954C13.9425 16.4693 14.6264 15.696 16.7632 14.853C18.2504 14.4083 19.3193 14.11 21.003 13.8847C23.1623 13.5959 26.2623 13.6956 30.7825 14.6153C33.2806 15.1236 36.1205 15.717 36.8807 16.9347C37.3347 17.6356 37.3482 18.7384 37.2175 19.2401C36.9442 20.2893 35.4067 22.6193 34.1306 23.9458C33.6668 24.4105 33.2353 25.1269 33.1402 25.4918C32.8194 26.7234 34.0397 26.5507 35.9616 25.001C36.2475 24.7807 36.5378 24.5578 36.8149 24.345L36.8171 24.3433C37.5488 23.7814 38.1888 23.2901 38.4154 23.1014C39.1444 22.5589 40.745 20.9266 43.2987 18.0793C45.8525 15.232 47.2744 12.9696 47.0293 12.0304C46.4728 9.84301 40.2476 7.60844 33.7767 7.2575C31.8916 7.16183 29.3703 7.38489 28.4617 7.54474C28.1924 7.59213 27.9064 7.64036 27.6057 7.69107C26.2524 7.91932 24.6013 8.19777 22.8292 8.67502C19.2806 9.6307 17.322 10.3927 14.0582 12.0749C10.3333 13.9948 7.76546 15.7421 5.1909 18.1053C2.61633 20.4685 1.70777 22.0762 1.70777 22.0762C1.70777 22.0762 1.32886 22.7412 1.10309 23.6079C0.59212 25.5693 1.25916 27.5581 3.54418 29.3142C5.94312 31.197 9.76012 33.5605 13.9759 35.8922C15.0681 36.4963 15.8663 36.9101 16.6175 37.2996C17.4795 37.7464 18.2795 38.1611 19.3905 38.7943C24.3121 41.5993 30.1349 46.524 31.3983 48.0659C32.7416 49.677 33.0114 51.6594 30.867 53.6872C29.5819 54.9059 28.2382 55.7696 27.0237 56.3422C26.2556 56.5722 25.4012 56.7747 24.4512 56.9349C19.271 57.8088 18.8912 57.7892 16.2869 57.6553C16.0311 57.6421 15.7536 57.6279 15.4481 57.6132C11.4641 57.4067 8.7775 53.1384 9.93101 48.8421C10.4393 47.0478 13.0743 43.7261 14.4667 42.3217C14.8005 41.9851 15.0926 41.5951 15.0895 41.171C15.0683 38.2968 4.28277 47.9881 1.61915 53.2378C0.54478 55.4132 -0.0161698 57.0869 0.000354831 59.3217C0.0201227 61.9951 0.412283 63.1418 1.75087 64.6399C4.0927 67.1673 6.79192 68.2953 10.4881 67.9341C14.1843 67.573 19.257 65.7471 22.4182 64.112C25.5794 62.4768 28.4354 60.7214 32.0941 58.2456C37.7695 54.405 47.4144 42.9397 51.2144 38.4225C52.0459 37.434 52.5975 36.7783 52.7665 36.6079C53.4254 35.9434 53.926 35.965 54.377 36.4076C56.8804 38.8648 59.4808 45.8691 61.4572 51.3872C61.9046 52.6362 62.3694 54.234 62.7453 55.5259C63.1169 56.8032 63.4015 57.7815 63.4961 57.8277C63.6242 57.9217 65.9788 57.2996 68.4154 56.3583C69.1944 58.0524 70.3214 59.5405 71.8677 61.2748C77 68.5 97.8217 67.8772 104.207 67.4842C105.887 67.3807 114.935 66.595 121.643 63.1376C123.197 62.3366 125.019 61.1788 124.999 60.185L125 58.9518L116.49 59.6395C115.687 59.7065 114.915 59.7745 114.168 59.8404C107.745 60.4069 100 60 95.5 59C90.8087 57.7711 83.5597 55.6579 80.7235 49.5442C79.0258 45.8846 78.3314 39.8292 81.908 33.378L81.9145 33.3662C82.2508 32.7595 82.8694 31.6437 83.714 30.2692C85.4205 29.8735 89.0988 29.0089 89.7839 28.7512C90.6822 28.4134 91.2947 27.892 91.1961 27.3744C91.0064 26.5547 90.9559 26.5289 85.8372 27.0357C88.0107 23.9479 90.863 20.5655 94.001 18.6367C97.202 16.6691 99.207 15.5042 102.854 14.8505C109.299 13.6398 113.112 15.7172 114.658 21.6589C114.763 22.0704 114.945 22.6678 115.163 23.3845C115.679 25.0762 116.396 27.4324 116.774 29.5757C116.991 30.8112 117.477 31.5348 118.09 31.4648C118.938 31.368 119.306 29.1915 119.564 22.7592C119.581 21.8349 119.681 20.2434 119.783 18.6271C119.838 17.75 119.894 16.8657 119.937 16.0766C120.106 13.8281 120.269 11.1061 120.28 9.96652L120.288 7.97358L117.326 8.35938C116.944 8.41411 116.483 8.47406 115.963 8.54168C114.249 8.76455 111.895 9.07068 109.603 9.54762C108.955 9.6825 108.196 9.81787 107.35 9.96888C101.994 10.9248 93.1266 12.507 86.5455 18.5561C85.4187 19.5918 84.3565 20.5788 83.3548 21.5241C84.0192 19.2987 84.8168 16.9068 85.3255 15.6844C86.2106 13.5576 87.0929 11.0538 87.0929 11.0538C87.0929 11.0538 89.8876 4.29521 91.0599 2.54321C91.6229 1.73806 92.0429 0.839718 92.0405 0.509897C92.0353 -0.196863 90.0915 -0.18267 87.3003 0.638754ZM73.5306 31.8525C73 31.5 72.4214 31.2349 71.6442 31.2868C62.9249 31.8688 59.4191 32.2242 59.2308 32.4141C59.156 32.4644 59.6218 33.0765 60.258 33.9124C60.8258 34.6585 61.5293 35.5829 62.1053 36.4454C62.521 37.0679 63.2987 38.3265 64.1608 39.7214C65.2349 41.4597 66.4399 43.4096 67.2383 44.6046C67.3636 43.9565 67.5311 43.2864 67.7494 42.5841C68.9441 38.7386 70.6934 35.4551 73.5306 31.8525ZM78.392 14.133C78.4011 15.3664 77.1088 20.1266 75.3961 25.7464C74.8405 27.541 74.6989 27.6363 72.7562 27.7918C71.6191 27.8943 68.9165 27.867 66.8291 27.6937L62.9392 27.3923L70.3273 19.8934C74.3741 15.7644 77.8102 12.3938 78.0469 12.345C78.2362 12.2964 78.3829 12.8996 78.392 14.133Z" fill="#3A3232"></path>
</svg></svg></g></g><defs><clipPath id="SvgjsClipPath1040"><rect width="1000" height="1000" x="0" y="0" rx="350" ry="350"></rect></clipPath></defs></svg>