<svg width="63" height="62" viewBox="0 0 63 62" fill="none" xmlns="http://www.w3.org/2000/svg">
<rect width="62" height="62" transform="translate(0.5)" fill="#F8F8F8"/>
<path fill-rule="evenodd" clip-rule="evenodd" d="M39.7 9.15023V17.0574C38.8515 17.2263 38.2837 17.744 37.9268 18.2814C37.5067 18.9139 37.3615 19.5903 37.3205 19.8235C37.3042 19.9159 37.3 19.998 37.3 20.072V29C37.3 30.4542 37.0683 31.6013 36.6098 32.6484C36.1485 33.7022 35.4437 34.6868 34.4518 35.8011C33.0111 37.4196 31.2244 37.5765 29.1091 37.6443C28.9896 37.6482 28.8689 37.6517 28.7473 37.6552C26.7683 37.713 24.5217 37.7785 22.5316 39.3264C20.3764 41.0027 17.7536 43.4309 15.3715 45.7525C14.6341 45.3042 13.7694 44.9585 12.7591 44.7672C14.1461 44.0814 15.1 42.6521 15.1 41C15.1 38.6804 13.2196 36.8 10.9 36.8C8.5804 36.8 6.7 38.6804 6.7 41C6.7 42.652 7.65376 44.0812 9.04068 44.7671C6.49093 45.2498 4.90528 46.7091 3.94449 48.2296C2.79016 50.0565 2.54437 51.952 2.5079 52.2909C2.50125 52.3527 2.5 52.4042 2.5 52.4499V60.2C2.5 61.1941 3.30589 62 4.3 62H17.5C18.4941 62 19.3 61.1941 19.3 60.2V52.4499C19.3 52.4009 19.2981 52.3458 19.2916 52.286C19.2688 52.0766 19.1752 51.3599 18.8796 50.4431L21.7 47.7887V60.2C21.7 61.1941 22.5059 62 23.5 62H34.9C35.8926 62 36.7 61.1978 36.7 60.2022V45.8C36.7 43.7514 38.0929 42.5589 39.7822 41.1625L39.8538 41.1033C41.4488 39.7855 43.3 38.2561 43.3 35.6V20.0683C43.3 19.9915 43.2953 19.9138 43.2795 19.8235C43.2385 19.5903 43.0933 18.9139 42.6732 18.2814C42.3163 17.744 41.7485 17.2263 40.9 17.0574V9.15023C42.4082 8.8972 43.5984 7.70644 43.8506 6.19798C43.8669 6.19931 43.8834 6.2 43.9 6.2H53.0175L47.741 14.6423C46.935 14.8347 46.3483 15.657 46.686 16.5577C47.3579 18.3498 49.2102 21.8 53.5 21.8C57.7898 21.8 59.6421 18.3498 60.314 16.5577C60.6464 15.6711 60.0832 14.8605 59.2967 14.6518L55.0708 6.2H55.3C55.6314 6.2 55.9 5.93137 55.9 5.6C55.9 5.26863 55.6314 5 55.3 5H43.9C43.8834 5 43.8669 5.00069 43.8506 5.00202C43.5657 3.2984 42.0845 2 40.3 2C38.5162 2 37.0354 3.29737 36.7498 5H25.9C25.5686 5 25.3 5.26863 25.3 5.6C25.3 5.93137 25.5686 6.2 25.9 6.2H26.1292L21.9033 14.6518C21.1168 14.8605 20.5536 15.6711 20.886 16.5577C21.5579 18.3498 23.4102 21.8 27.7 21.8C31.9898 21.8 33.8421 18.3498 34.514 16.5577C34.8517 15.657 34.265 14.8347 33.459 14.6423L28.1825 6.2H36.7498C37.0027 7.7075 38.1925 8.89731 39.7 9.15023ZM42.7 5.6C42.7 6.92548 41.6255 8 40.3 8C38.9745 8 37.9 6.92548 37.9 5.6C37.9 4.27452 38.9745 3.2 40.3 3.2C41.6255 3.2 42.7 4.27452 42.7 5.6ZM17.8981 51.3669L12.5523 56.3982C12.515 56.4334 12.452 56.4903 12.3687 56.5418C12.1951 56.6492 11.7884 56.8509 11.218 56.8193C10.6353 56.7869 9.96719 56.5157 9.27576 55.8243C8.13088 54.6794 8.30846 53.4829 8.46587 52.9821C8.53638 52.7577 8.66149 52.5902 8.77785 52.4663C9.30778 51.9021 11.6461 49.4256 14.482 46.6252C13.5634 46.1283 12.3947 45.8 10.9 45.8C7.70188 45.8 5.94806 47.3053 4.95893 48.8707C3.94846 50.4698 3.7298 52.1518 3.70101 52.4193L3.70033 52.4285C3.70016 52.4323 3.7 52.4385 3.7 52.4499V60.2C3.7 60.5314 3.96863 60.8 4.3 60.8H17.5C17.8314 60.8 18.1 60.5314 18.1 60.2V52.4499C18.1 52.4324 18.0993 52.4221 18.0986 52.4158C18.0857 52.2976 18.0361 51.9055 17.8981 51.3669ZM27.1582 6.82522L23.2708 14.6H32.0174L27.1582 6.82522ZM22.0371 15.9185C21.9934 15.9761 21.9763 16.0475 22.0096 16.1364C22.6437 17.8277 24.2127 20.6 27.7 20.6C31.1872 20.6 32.7563 17.8277 33.3903 16.1364C33.4237 16.0475 33.4066 15.9761 33.3629 15.9185C33.315 15.8555 33.2251 15.8 33.1 15.8H22.3C22.1749 15.8 22.085 15.8555 22.0371 15.9185ZM38.5023 20.0313C38.5318 19.8636 38.6402 19.3763 38.9264 18.9453C39.1974 18.5372 39.6076 18.2 40.3 18.2C40.9923 18.2 41.4025 18.5372 41.6736 18.9453C41.9598 19.3763 42.0681 19.8636 42.0976 20.0313C42.0987 20.0373 42.099 20.0409 42.0993 20.0442C42.0996 20.0479 42.1 20.0549 42.1 20.0683V35.6C42.1 37.6486 40.7071 38.8411 39.0177 40.2375L38.9462 40.2967C37.3512 41.6145 35.5 43.1439 35.5 45.8V60.2022C35.5 60.5322 35.2328 60.8 34.9 60.8H23.5C23.1686 60.8 22.9 60.5314 22.9 60.2V47.6C22.9 46.6198 21.7287 46.1137 21.0149 46.7855L11.7299 55.5244L11.7258 55.5282C11.671 55.5595 11.5142 55.6339 11.2846 55.6211C11.0473 55.6079 10.6458 55.4973 10.1243 54.9757C9.39795 54.2494 9.53747 53.5747 9.61066 53.3418C9.60917 53.3466 9.61125 53.3318 9.65251 53.2879C10.6856 52.188 18.2835 44.1507 23.2683 40.2736C24.9402 38.9733 26.8155 38.9156 28.8614 38.8526L29.1476 38.8437C31.2535 38.7761 33.5358 38.6349 35.3481 36.5989C36.3816 35.4379 37.1768 34.3456 37.7091 33.1297C38.2443 31.9072 38.5 30.5919 38.5 29V20.072C38.5 20.0465 38.5014 20.037 38.5023 20.0313ZM57.9292 14.6L54.0418 6.82522L49.1826 14.6H57.9292ZM59.1904 16.1364C59.2237 16.0475 59.2066 15.9761 59.1629 15.9185C59.115 15.8555 59.0251 15.8 58.9 15.8H48.1C47.9749 15.8 47.885 15.8555 47.8371 15.9185C47.7934 15.9761 47.7763 16.0475 47.8097 16.1364C48.4437 17.8277 50.0128 20.6 53.5 20.6C56.9873 20.6 58.5563 17.8277 59.1904 16.1364ZM13.9 41C13.9 42.6569 12.5569 44 10.9 44C9.24315 44 7.9 42.6569 7.9 41C7.9 39.3431 9.24315 38 10.9 38C12.5569 38 13.9 39.3431 13.9 41Z" fill="#746E6E"/>
<path fill-rule="evenodd" clip-rule="evenodd" d="M28.9 35.6C31.8823 35.6 34.3 33.1823 34.3 30.2C34.3 27.2177 31.8823 24.8 28.9 24.8C25.9177 24.8 23.5 27.2177 23.5 30.2C23.5 33.1823 25.9177 35.6 28.9 35.6ZM28.9 34.4C31.2196 34.4 33.1 32.5196 33.1 30.2C33.1 27.8804 31.2196 26 28.9 26C26.5804 26 24.7 27.8804 24.7 30.2C24.7 32.5196 26.5804 34.4 28.9 34.4Z" fill="#746E6E"/>
<path fill-rule="evenodd" clip-rule="evenodd" d="M51.1 41C51.1 42.652 50.1462 44.0812 48.7593 44.7671C51.3091 45.2498 52.8947 46.7091 53.8555 48.2297C55.0098 50.0565 55.2556 51.952 55.2921 52.2909C55.2987 52.3527 55.3 52.4042 55.3 52.4499V60.2C55.3 61.1941 54.4941 62 53.5 62H40.3C39.3059 62 38.5 61.1941 38.5 60.2V52.4499C38.5 52.4042 38.5013 52.3527 38.5079 52.2909C38.5444 51.952 38.7902 50.0565 39.9445 48.2296C40.9053 46.7091 42.4909 45.2498 45.0407 44.7671C43.6538 44.0812 42.7 42.652 42.7 41C42.7 38.6804 44.5804 36.8 46.9 36.8C49.2196 36.8 51.1 38.6804 51.1 41ZM46.9 44C48.5569 44 49.9 42.6569 49.9 41C49.9 39.3431 48.5569 38 46.9 38C45.2431 38 43.9 39.3431 43.9 41C43.9 42.6569 45.2431 44 46.9 44ZM40.9589 48.8707C39.9485 50.4698 39.7298 52.1518 39.701 52.4193L39.7003 52.4285C39.7002 52.4323 39.7 52.4385 39.7 52.4499V60.2C39.7 60.5314 39.9686 60.8 40.3 60.8H53.5C53.8314 60.8 54.1 60.5314 54.1 60.2V52.4499C54.1 52.4385 54.0998 52.4323 54.0997 52.4285L54.099 52.4193C54.0702 52.1518 53.8515 50.4698 52.8411 48.8707C51.8519 47.3053 50.0981 45.8 46.9 45.8C43.7019 45.8 41.9481 47.3053 40.9589 48.8707Z" fill="#746E6E"/>
</svg>
