<svg width="62" height="52" viewBox="0 0 62 52" fill="none" xmlns="http://www.w3.org/2000/svg">
<path fill-rule="evenodd" clip-rule="evenodd" d="M2.3023 0C1.80178 0 1.29103 0.213785 0.96575 0.656515C0.77946 0.91007 0.545169 1.25973 0.355259 1.64554C0.170203 2.02148 0 2.48567 0 2.95455C0 3.42342 0.170203 3.88761 0.35526 4.26356C0.545169 4.64936 0.779461 4.99902 0.96575 5.25258C1.29103 5.69531 1.80178 5.90909 2.3023 5.90909H5.90475H8.85712C9.83545 5.90909 10.6285 5.11541 10.6285 4.13636V3.54545H12.0543C12.3285 3.54545 12.5666 3.73436 12.6292 4.00152L20.1655 36.1803L21.059 39.9954C21.2468 40.7969 21.9611 41.3636 22.7837 41.3636H53.9973C54.8065 41.3636 55.5129 40.8148 55.7134 40.0302L56.6946 36.1919L61.9814 15.5101C62.0623 15.1939 61.8717 14.872 61.5557 14.7912C61.2398 14.7103 60.9182 14.901 60.8373 15.2172L55.6641 35.4545H53.1427V27.1818C53.1427 26.2028 52.3496 25.4091 51.3713 25.4091H49.0094C48.0311 25.4091 47.238 26.2028 47.238 27.1818V35.4545H46.057V33.0909V28.3636V24.2273C46.057 23.2482 45.2639 22.4545 44.2856 22.4545H40.1523C39.8262 22.4545 39.5618 22.7191 39.5618 23.0455V27.7727V32.5V35.4545H38.3809V20.0909C38.3809 19.1119 37.5878 18.3182 36.6094 18.3182H33.6571C32.6787 18.3182 31.8856 19.1119 31.8856 20.0909V35.4545H30.7047V33.0909V28.3636V23.6364V18.9091V15.3636C30.7047 14.3846 29.9116 13.5909 28.9333 13.5909H25.3904C25.0643 13.5909 24.7999 13.8555 24.7999 14.1818V18.9091V23.6364V28.3636V33.0909V35.4545H21.2085L13.779 3.73184C13.5913 2.93035 12.8769 2.36364 12.0543 2.36364H10.6285V1.77273C10.6285 0.793677 9.83545 0 8.85712 0H2.3023ZM52.5523 36.6364H55.362L54.5693 39.7374C54.5025 39.9989 54.267 40.1818 53.9973 40.1818H22.7837C22.5095 40.1818 22.2714 39.9929 22.2088 39.7257L21.4853 36.6364H25.3904H28.3428H30.1142H32.4761H37.7904H40.1523H43.6951H45.4666H47.8285H52.5523ZM51.9618 27.1818V35.4545H48.4189V27.1818C48.4189 26.8555 48.6833 26.5909 49.0094 26.5909H51.3713C51.6974 26.5909 51.9618 26.8555 51.9618 27.1818ZM44.8761 33.3357V35.4545H43.9397L40.7428 32.2552V29.1993L44.8761 33.3357ZM40.7428 33.9266L42.2696 35.4545H40.7428V33.9266ZM44.8761 31.6643L40.7428 27.528V24.472L44.8761 28.6084V31.6643ZM44.2856 23.6364H41.5778L44.8761 26.9371V24.2273C44.8761 23.9009 44.6117 23.6364 44.2856 23.6364ZM37.1999 20.0909V35.4545H33.0666V20.0909C33.0666 19.7646 33.331 19.5 33.6571 19.5H36.6094C36.9356 19.5 37.1999 19.7646 37.1999 20.0909ZM29.5237 33.3357V35.4545H28.5874L25.9809 32.8461V29.7902L29.5237 33.3357ZM25.9809 34.5175L26.9173 35.4545H25.9809V34.5175ZM29.5237 31.6643L25.9809 28.1189V25.0629L29.5237 28.6084V31.6643ZM29.5237 26.9371L25.9809 23.3916V20.3357L29.5237 23.8811V26.9371ZM29.5237 22.2098L25.9809 18.6643V15.6084L29.5237 19.1539V22.2098ZM28.9333 14.7727H26.816L29.5237 17.4825V15.3636C29.5237 15.0373 29.2594 14.7727 28.9333 14.7727ZM1.9172 1.35659C1.99194 1.25486 2.12753 1.18182 2.3023 1.18182H8.85712C9.18323 1.18182 9.4476 1.44638 9.4476 1.77273V2.95455V4.13636C9.4476 4.46271 9.18323 4.72727 8.85712 4.72727H5.90475H2.3023C2.12753 4.72727 1.99194 4.65423 1.9172 4.55251C1.7541 4.33051 1.56289 4.04247 1.41465 3.74131C1.26155 3.43029 1.18095 3.15826 1.18095 2.95455C1.18095 2.75083 1.26155 2.4788 1.41465 2.16778C1.56289 1.86662 1.7541 1.57858 1.9172 1.35659ZM33.6081 47.8636C33.327 49.5405 31.8697 50.8182 30.1142 50.8182C28.1576 50.8182 26.5714 49.2308 26.5714 47.2727C26.5714 45.3146 28.1576 43.7273 30.1142 43.7273C31.8697 43.7273 33.327 45.005 33.6081 46.6818H30.1142C29.7881 46.6818 29.5237 46.9464 29.5237 47.2727C29.5237 47.5991 29.7881 47.8636 30.1142 47.8636H33.6081ZM34.8015 47.8636C34.5109 50.1955 32.5231 52 30.1142 52C27.5053 52 25.3904 49.8835 25.3904 47.2727C25.3904 44.6619 27.5053 42.5455 30.1142 42.5455C32.5231 42.5455 34.5109 44.3499 34.8015 46.6818H44.3346C44.6157 45.005 46.073 43.7273 47.8285 43.7273C49.7851 43.7273 51.3713 45.3146 51.3713 47.2727C51.3713 49.2308 49.7851 50.8182 47.8285 50.8182C46.073 50.8182 44.6157 49.5405 44.3346 47.8636H34.8015ZM45.541 47.8636C45.8032 48.8831 46.7279 49.6364 47.8285 49.6364C49.1329 49.6364 50.1904 48.5781 50.1904 47.2727C50.1904 45.9673 49.1329 44.9091 47.8285 44.9091C46.7279 44.9091 45.8032 45.6624 45.541 46.6818H47.238C47.5641 46.6818 47.8285 46.9464 47.8285 47.2727C47.8285 47.5991 47.5641 47.8636 47.238 47.8636H45.541Z" fill="#746E6E"/>
</svg>
