<svg width="62" height="62" viewBox="0 0 62 62" fill="none" xmlns="http://www.w3.org/2000/svg">
<rect width="62" height="62" fill="#F8F8F8"/>
<path fill-rule="evenodd" clip-rule="evenodd" d="M27.2018 1.01245C27.4826 0.960375 27.76 1.15557 27.76 1.46904L27.76 4.1448C25.3898 4.68568 22.5373 5.58097 19.864 7.05662C15.1749 9.64507 11.0201 14.0355 11.02 21.3852L11.02 44.0743L11.02 53.2565L11.02 55.9908L11.02 56.4844H8.86C8.55242 56.4844 8.32 56.2645 8.32 55.9961L8.32 17.8752C8.31999 11.6787 11.9095 7.68261 16.0883 5.11138C20.2825 2.53068 25.0318 1.41493 27.2018 1.01245ZM7.32748 56.4844C7.27083 56.3322 7.24 56.1681 7.24 55.9961L7.24 17.8752C7.23999 11.2444 11.1111 6.97083 15.4917 4.27543C19.8569 1.5895 24.7656 0.441669 26.9903 0.02904C27.9891 -0.156215 28.84 0.570897 28.84 1.46904L28.84 3.91501C30.133 3.6596 31.2238 3.51412 31.9785 3.43283C32.9383 3.32946 33.7 4.04078 33.7 4.88977V13.3625H52.6C53.4947 13.3625 54.22 14.036 54.22 14.8667V56.4844H56.38C57.2747 56.4844 58 57.1579 58 57.9887V60.4957C58 61.3265 57.2747 62 56.38 62H5.62C4.7253 62 4 61.3265 4 60.4957V57.9887C4 57.1579 4.7253 56.4844 5.62 56.4844H7.32748ZM8.86 57.4872H5.62C5.32177 57.4872 5.08 57.7117 5.08 57.9887V60.4957C5.08 60.7727 5.32177 60.9972 5.62 60.9972H56.38C56.6782 60.9972 56.92 60.7727 56.92 60.4957V57.9887C56.92 57.7117 56.6782 57.4872 56.38 57.4872H53.68H47.74H39.1H33.16H28.3H27.22H18.58H11.56H8.86ZM28.3 56.4844H32.62V13.8639V4.88977C32.62 4.59172 32.3703 4.4002 32.103 4.42899C29.9172 4.66441 24.886 5.45112 20.4159 7.91863C15.9717 10.3719 12.1001 14.4701 12.1 21.3852L12.1 44.0743L12.1 53.2565L12.1 55.9908L12.1 56.4844H18.04V51.4702C18.04 50.6395 18.7653 49.966 19.66 49.966H26.14C27.0347 49.966 27.76 50.6395 27.76 51.4702V56.4844H28.3ZM26.68 56.4844V51.4702C26.68 51.1933 26.4382 50.9688 26.14 50.9688H19.66C19.3618 50.9688 19.12 51.1933 19.12 51.4702V56.4844H26.68ZM38.56 56.4844H33.7V14.3653H52.6C52.8983 14.3653 53.14 14.5898 53.14 14.8667V56.4844H48.28V51.4702C48.28 50.6395 47.5547 49.966 46.66 49.966H40.18C39.2853 49.966 38.56 50.6395 38.56 51.4702V56.4844ZM47.2 51.4702V56.4844H39.64V51.4702C39.64 51.1933 39.8817 50.9688 40.18 50.9688H46.66C46.9582 50.9688 47.2 51.1933 47.2 51.4702ZM20.74 15.8696C20.4418 15.8696 20.2 16.0941 20.2 16.371C20.2 16.6479 20.4418 16.8724 20.74 16.8724H22.9C23.1982 16.8724 23.44 16.6479 23.44 16.371C23.44 16.0941 23.1982 15.8696 22.9 15.8696H20.74ZM36.94 17.8752C36.6417 17.8752 36.4 18.0997 36.4 18.3767C36.4 18.6536 36.6417 18.8781 36.94 18.8781H39.1C39.3982 18.8781 39.64 18.6536 39.64 18.3767C39.64 18.0997 39.3982 17.8752 39.1 17.8752H36.94ZM42.34 17.8752C42.0417 17.8752 41.8 18.0997 41.8 18.3767C41.8 18.6536 42.0417 18.8781 42.34 18.8781H44.5C44.7982 18.8781 45.04 18.6536 45.04 18.3767C45.04 18.0997 44.7982 17.8752 44.5 17.8752H42.34ZM15.34 20.8837C15.0418 20.8837 14.8 21.1082 14.8 21.3852C14.8 21.6621 15.0418 21.8866 15.34 21.8866H17.5C17.7982 21.8866 18.04 21.6621 18.04 21.3852C18.04 21.1082 17.7982 20.8837 17.5 20.8837H15.34ZM20.74 20.8837C20.4418 20.8837 20.2 21.1082 20.2 21.3852C20.2 21.6621 20.4418 21.8866 20.74 21.8866H22.9C23.1982 21.8866 23.44 21.6621 23.44 21.3852C23.44 21.1082 23.1982 20.8837 22.9 20.8837H20.74ZM36.94 22.8894C36.6417 22.8894 36.4 23.1139 36.4 23.3908C36.4 23.6678 36.6417 23.8923 36.94 23.8923H39.1C39.3982 23.8923 39.64 23.6678 39.64 23.3908C39.64 23.1139 39.3982 22.8894 39.1 22.8894H36.94ZM42.34 22.8894C42.0417 22.8894 41.8 23.1139 41.8 23.3908C41.8 23.6678 42.0417 23.8923 42.34 23.8923H44.5C44.7982 23.8923 45.04 23.6678 45.04 23.3908C45.04 23.1139 44.7982 22.8894 44.5 22.8894H42.34ZM15.34 25.3965C15.0418 25.3965 14.8 25.621 14.8 25.8979C14.8 26.1748 15.0418 26.3993 15.34 26.3993H17.5C17.7982 26.3993 18.04 26.1748 18.04 25.8979C18.04 25.621 17.7982 25.3965 17.5 25.3965H15.34ZM20.74 25.3965C20.4418 25.3965 20.2 25.621 20.2 25.8979C20.2 26.1748 20.4418 26.3993 20.74 26.3993H22.9C23.1982 26.3993 23.44 26.1748 23.44 25.8979C23.44 25.621 23.1982 25.3965 22.9 25.3965H20.74ZM36.94 27.9036C36.6417 27.9036 36.4 28.1281 36.4 28.405C36.4 28.6819 36.6417 28.9064 36.94 28.9064H39.1C39.3982 28.9064 39.64 28.6819 39.64 28.405C39.64 28.1281 39.3982 27.9036 39.1 27.9036H36.94ZM42.34 27.9036C42.0417 27.9036 41.8 28.1281 41.8 28.405C41.8 28.6819 42.0417 28.9064 42.34 28.9064H44.5C44.7982 28.9064 45.04 28.6819 45.04 28.405C45.04 28.1281 44.7982 27.9036 44.5 27.9036H42.34ZM15.34 30.4107C15.0418 30.4107 14.8 30.6352 14.8 30.9121C14.8 31.189 15.0418 31.4135 15.34 31.4135H17.5C17.7982 31.4135 18.04 31.189 18.04 30.9121C18.04 30.6352 17.7982 30.4107 17.5 30.4107H15.34ZM20.74 30.4107C20.4418 30.4107 20.2 30.6352 20.2 30.9121C20.2 31.189 20.4418 31.4135 20.74 31.4135H22.9C23.1982 31.4135 23.44 31.189 23.44 30.9121C23.44 30.6352 23.1982 30.4107 22.9 30.4107H20.74ZM36.94 32.9178C36.6417 32.9178 36.4 33.1423 36.4 33.4192C36.4 33.6961 36.6417 33.9206 36.94 33.9206H39.1C39.3982 33.9206 39.64 33.6961 39.64 33.4192C39.64 33.1423 39.3982 32.9178 39.1 32.9178H36.94ZM42.34 32.9178C42.0417 32.9178 41.8 33.1423 41.8 33.4192C41.8 33.6961 42.0417 33.9206 42.34 33.9206H44.5C44.7982 33.9206 45.04 33.6961 45.04 33.4192C45.04 33.1423 44.7982 32.9178 44.5 32.9178H42.34ZM15.34 35.4249C15.0418 35.4249 14.8 35.6493 14.8 35.9263C14.8 36.2032 15.0418 36.4277 15.34 36.4277H17.5C17.7982 36.4277 18.04 36.2032 18.04 35.9263C18.04 35.6493 17.7982 35.4249 17.5 35.4249H15.34ZM20.74 35.4249C20.4418 35.4249 20.2 35.6493 20.2 35.9263C20.2 36.2032 20.4418 36.4277 20.74 36.4277H22.9C23.1982 36.4277 23.44 36.2032 23.44 35.9263C23.44 35.6493 23.1982 35.4249 22.9 35.4249H20.74ZM36.94 37.9319C36.6417 37.9319 36.4 38.1564 36.4 38.4334C36.4 38.7103 36.6417 38.9348 36.94 38.9348H39.1C39.3982 38.9348 39.64 38.7103 39.64 38.4334C39.64 38.1564 39.3982 37.9319 39.1 37.9319H36.94ZM42.34 37.9319C42.0417 37.9319 41.8 38.1564 41.8 38.4334C41.8 38.7103 42.0417 38.9348 42.34 38.9348H44.5C44.7982 38.9348 45.04 38.7103 45.04 38.4334C45.04 38.1564 44.7982 37.9319 44.5 37.9319H42.34ZM15.34 40.439C15.0418 40.439 14.8 40.6635 14.8 40.9405C14.8 41.2174 15.0418 41.4419 15.34 41.4419H17.5C17.7982 41.4419 18.04 41.2174 18.04 40.9405C18.04 40.6635 17.7982 40.439 17.5 40.439H15.34ZM20.74 40.439C20.4418 40.439 20.2 40.6635 20.2 40.9405C20.2 41.2174 20.4418 41.4419 20.74 41.4419H22.9C23.1982 41.4419 23.44 41.2174 23.44 40.9405C23.44 40.6635 23.1982 40.439 22.9 40.439H20.74ZM36.94 42.9461C36.6417 42.9461 36.4 43.1706 36.4 43.4475C36.4 43.7245 36.6417 43.949 36.94 43.949H39.1C39.3982 43.949 39.64 43.7245 39.64 43.4475C39.64 43.1706 39.3982 42.9461 39.1 42.9461H36.94ZM42.34 42.9461C42.0417 42.9461 41.8 43.1706 41.8 43.4475C41.8 43.7245 42.0417 43.949 42.34 43.949H44.5C44.7982 43.949 45.04 43.7245 45.04 43.4475C45.04 43.1706 44.7982 42.9461 44.5 42.9461H42.34Z" fill="#746E6E"/>
</svg>
