<svg width="62" height="62" viewBox="0 0 62 62" fill="none" xmlns="http://www.w3.org/2000/svg">
<rect width="62" height="62" fill="#F8F8F8"/>
<path fill-rule="evenodd" clip-rule="evenodd" d="M31.619 1.20059C31.2228 1.03499 30.7772 1.03499 30.381 1.20059L8.06339 10.5293C7.46363 10.78 7.07296 11.3679 7.07296 12.0197V30.8413C7.07296 30.9403 7.08081 31.029 7.09813 31.1193C7.22911 31.8027 7.7353 34.3361 8.58369 37.3116C9.43513 40.2977 10.6184 43.682 12.0905 46.0934C14.1601 49.4834 17.8771 52.7119 21.5289 55.3265C25.1687 57.9325 28.689 59.8905 30.3116 60.7513C30.7447 60.981 31.2553 60.981 31.6884 60.7513C33.311 59.8905 36.8313 57.9325 40.4711 55.3265C44.1229 52.7119 47.84 49.4834 49.9095 46.0934C51.3816 43.682 52.5649 40.2977 53.4163 37.3116C54.2647 34.3361 54.7709 31.8027 54.9019 31.1193C54.9192 31.029 54.927 30.9403 54.927 30.8413V12.0197C54.927 11.3679 54.5364 10.78 53.9366 10.5293L31.619 1.20059ZM29.9683 0.206998C30.6286 -0.0689994 31.3714 -0.0689995 32.0317 0.206998L54.3493 9.53572C55.3489 9.95355 56 10.9334 56 12.0197V30.8413C56 31.0013 55.987 31.1585 55.9555 31.3225C55.8213 32.0229 55.3082 34.5902 54.4479 37.6076C53.5906 40.6143 52.3756 44.1148 50.8245 46.6556C48.6387 50.2359 44.7758 53.5669 41.0944 56.2026C37.4011 58.847 33.8351 60.8301 32.1899 61.7028C31.443 62.0991 30.557 62.0991 29.8101 61.7028C28.1649 60.8301 24.599 58.847 20.9056 56.2027C17.2242 53.5669 13.3613 50.2359 11.1755 46.6556C9.6244 44.1148 8.40941 40.6143 7.5521 37.6076C6.69175 34.5902 6.17871 32.0229 6.04446 31.3225C6.01302 31.1585 6 31.0013 6 30.8413V12.0197C6 10.9334 6.65112 9.95355 7.65071 9.53572L29.9683 0.206998ZM31.2082 5.48703C31.0751 5.43079 30.9249 5.43079 30.7918 5.48703L12.738 13.1129C11.7434 13.5331 11.0966 14.5103 11.0966 15.593V29.5022C11.0966 29.7994 11.3368 30.0404 11.633 30.0404C11.9293 30.0404 12.1695 29.7994 12.1695 29.5022V15.593C12.1695 14.9434 12.5576 14.357 13.1544 14.105L30.4635 6.79361V14.1636C30.4635 14.4609 30.7037 14.7018 31 14.7018C31.2963 14.7018 31.5365 14.4609 31.5365 14.1636V6.79361L48.8456 14.105C49.4424 14.357 49.8305 14.9434 49.8305 15.593V29.5022C49.8305 29.7994 50.0707 30.0404 50.367 30.0404C50.6632 30.0404 50.9034 29.7994 50.9034 29.5022V15.593C50.9034 14.5103 50.2566 13.5331 49.262 13.1129L31.2082 5.48703ZM14.1433 39.4712L14.1432 39.4711C14.0018 39.2099 13.6761 39.1132 13.4157 39.2551C13.1554 39.397 13.059 39.7238 13.2004 39.985L13.6718 39.728C13.2004 39.985 13.2005 39.985 13.2005 39.9851L13.2007 39.9854L13.2012 39.9864L13.2031 39.9899L13.2103 40.0031L13.238 40.0537C13.2623 40.0979 13.2981 40.1627 13.3446 40.2459C13.4375 40.4124 13.5732 40.6527 13.7453 40.9498C14.0892 41.5439 14.5789 42.3663 15.1627 43.2801C16.3237 45.0977 17.8802 47.3151 19.4144 48.8064C21.2699 50.61 24.1329 52.3014 26.4936 53.5301C27.681 54.1481 28.7548 54.6558 29.5318 55.0092C29.9204 55.1859 30.2352 55.3242 30.4534 55.4185C30.5625 55.4656 30.6474 55.5018 30.7054 55.5263L30.7717 55.5542L30.7891 55.5614L30.7936 55.5633L30.7949 55.5639L30.7953 55.564C30.7954 55.5641 30.7955 55.5641 31.0002 55.0666L30.7955 55.5641C30.9309 55.6202 31.0832 55.6182 31.2172 55.5588L31.0002 55.0666C31.2172 55.5588 31.2173 55.5588 31.2174 55.5587L31.2177 55.5586L31.2189 55.558L31.2232 55.5561L31.2394 55.5489L31.3015 55.5209L31.3858 55.4826L31.4164 55.4686L31.5372 55.413C31.7414 55.3187 32.0362 55.1803 32.4009 55.0036C33.1299 54.6501 34.1396 54.1423 35.2628 53.5242C37.4978 52.2944 40.2264 50.6045 42.0763 48.8064C43.6105 47.3151 45.1669 45.0977 46.328 43.2801C46.9117 42.3663 47.4015 41.5439 47.7454 40.9498C47.9174 40.6527 48.0532 40.4124 48.1461 40.2459C48.1926 40.1627 48.2284 40.0979 48.2526 40.0537L48.2804 40.0031L48.2876 39.9899L48.2895 39.9864L48.29 39.9854L48.2901 39.9851C48.2902 39.985 48.2902 39.985 47.8188 39.728L48.2902 39.985C48.4317 39.7238 48.3353 39.397 48.0749 39.2551C47.8146 39.1132 47.4889 39.2099 47.3474 39.4711L47.3474 39.4712L47.347 39.4718L47.3455 39.4746L47.3391 39.4864L47.313 39.534C47.2898 39.5762 47.2552 39.6389 47.21 39.7199C47.1195 39.882 46.9865 40.1174 46.8176 40.4093C46.4795 40.9931 45.998 41.8017 45.4246 42.6994C44.2713 44.5049 42.7698 46.6335 41.3296 48.0334C39.5881 49.7262 36.9654 51.3596 34.7468 52.5805C33.6433 53.1877 32.6506 53.687 31.934 54.0344C31.7899 54.1043 31.657 54.168 31.5366 54.2251V46.3747C31.5366 46.0775 31.2964 45.8365 31.0002 45.8365C30.7039 45.8365 30.4637 46.0775 30.4637 46.3747V54.2484C30.3186 54.1841 30.1548 54.1107 29.9747 54.0288C29.2105 53.6813 28.1545 53.1819 26.9877 52.5746C24.64 51.3527 21.8968 49.7207 20.161 48.0334C18.7209 46.6335 17.2194 44.5049 16.0661 42.6994C15.4926 41.8017 15.0111 40.9931 14.6731 40.4093C14.5041 40.1174 14.3712 39.882 14.2807 39.7199C14.2354 39.6389 14.2008 39.5762 14.1777 39.534L14.1516 39.4864L14.1451 39.4746L14.1436 39.4718L14.1433 39.4712ZM45.2167 30.5247C45.2167 35.2953 41.3617 39.1627 36.6062 39.1627C34.2339 39.1627 32.0857 38.2003 30.5284 36.6434C32.0802 35.0727 33.0387 32.9111 33.0387 30.5249C33.0387 28.1386 32.0801 25.9769 30.5281 24.4062C32.0855 22.8491 34.2338 21.8866 36.6062 21.8866C41.3617 21.8866 45.2167 25.754 45.2167 30.5247ZM36.6062 40.2391C33.9155 40.2391 31.4811 39.1382 29.7263 37.3608C28.2529 38.5233 26.3944 39.2167 24.3745 39.2167C19.5894 39.2167 15.7104 35.3253 15.7104 30.5249C15.7104 26.4311 18.5315 22.9983 22.3299 22.0764L20.6766 20.4179C20.0481 19.7873 20.0481 18.765 20.6766 18.1345L21.6423 17.1657C21.9441 16.8629 22.3535 16.6928 22.7804 16.6928H25.9687C26.3956 16.6928 26.805 16.8629 27.1068 17.1657L28.0724 18.1345C28.701 18.765 28.701 19.7873 28.0724 20.4179L26.4191 22.0764C27.6436 22.3736 28.7665 22.9317 29.726 23.6887C31.4809 21.9113 33.9154 20.8102 36.6062 20.8102C41.9543 20.8102 46.2897 25.1595 46.2897 30.5247C46.2897 35.8898 41.9543 40.2391 36.6062 40.2391ZM25.1133 21.8642L27.3137 19.6567C27.5233 19.4466 27.5233 19.1058 27.3137 18.8956L26.3481 17.9269C26.2475 17.8259 26.111 17.7692 25.9687 17.7692H22.7804C22.6381 17.7692 22.5016 17.8259 22.401 17.9269L21.4353 18.8956C21.2258 19.1058 21.2258 19.4466 21.4353 19.6567L23.6357 21.8642C23.8793 21.8435 24.1257 21.833 24.3745 21.833C24.6234 21.833 24.8698 21.8435 25.1133 21.8642ZM31.9657 30.5249C31.9657 32.5904 31.146 34.4639 29.8151 35.8358C28.675 34.3708 27.9957 32.5273 27.9957 30.5247C27.9957 28.5221 28.675 26.6788 29.8149 25.2138C31.1459 26.5857 31.9657 28.4592 31.9657 30.5249ZM26.9227 30.5247C26.9227 28.2469 27.7042 26.1523 29.0127 24.4958C27.73 23.5012 26.1212 22.9094 24.3745 22.9094C20.182 22.9094 16.7833 26.319 16.7833 30.5249C16.7833 34.7308 20.182 38.1404 24.3745 38.1404C26.1212 38.1404 27.7302 37.5485 29.0129 36.5538C27.7043 34.8973 26.9227 32.8025 26.9227 30.5247Z" fill="#746E6E"/>
</svg>
