<svg width="141" height="140" viewBox="0 0 141 140" fill="none" xmlns="http://www.w3.org/2000/svg">
<g clip-path="url(#clip0_111_115)">
<rect width="140" height="140" transform="translate(0.5)" fill="#F8F8F8"/>
<path d="M23.5722 72.4223C23.6217 74.9672 24.9981 77.2794 27.1964 78.9751C29.4962 80.7476 32.6896 81.8443 36.2297 81.8443C39.7697 81.8443 42.9632 80.7476 45.263 78.9751C47.4637 77.2794 48.8377 74.9672 48.8872 72.4223H23.5697H23.5722ZM80.344 2.10422C80.0816 1.72794 80.1732 1.20807 80.5495 0.945662C80.9258 0.683253 81.4457 0.774848 81.7081 1.15113L85.4957 6.56022C85.7581 6.9365 85.6665 7.45637 85.2902 7.71878L79.8811 11.5064C79.5048 11.7688 78.985 11.6772 78.7225 11.3009C78.4601 10.9246 78.5517 10.4048 78.928 10.1423L83.6539 6.83253L80.344 2.1067V2.10422ZM91.9816 4.84713C91.786 4.42877 91.9692 3.93118 92.3876 3.73561C92.806 3.54004 93.3036 3.72323 93.4991 4.1416L96.2891 10.125C96.4846 10.5434 96.3015 11.041 95.8831 11.2365L89.8997 14.0265C89.4813 14.2221 88.9837 14.0389 88.7882 13.6205C88.5926 13.2021 88.7758 12.7045 89.1941 12.509L94.42 10.073L91.9816 4.84713ZM102.971 9.56802C102.852 9.12242 103.117 8.66444 103.562 8.54561C104.008 8.42679 104.466 8.69167 104.585 9.13727L106.293 15.5143C106.412 15.9599 106.147 16.4179 105.701 16.5367L99.3241 18.2448C98.8785 18.3637 98.4205 18.0988 98.3017 17.6532C98.1829 17.2076 98.4478 16.7496 98.8934 16.6308L104.463 15.138L102.971 9.56802ZM112.969 16.1233C112.93 15.6628 113.271 15.2593 113.729 15.2172C114.19 15.1776 114.593 15.5192 114.635 15.9772L115.21 22.5548C115.249 23.0152 114.908 23.4187 114.45 23.4608L107.872 24.0352C107.412 24.0748 107.008 23.7331 106.966 23.2752C106.927 22.8147 107.268 22.4112 107.726 22.3691L113.469 21.8666L112.967 16.1208L112.969 16.1233ZM121.681 24.3198C121.72 23.8594 122.126 23.5202 122.587 23.5598C123.047 23.5995 123.386 24.0054 123.347 24.4659L122.773 31.0434C122.733 31.5039 122.327 31.8431 121.867 31.8034L115.289 31.2291C114.829 31.1895 114.489 30.7835 114.529 30.3231C114.569 29.8626 114.975 29.5235 115.435 29.5631L121.181 30.0656L121.683 24.3223L121.681 24.3198ZM128.838 33.9002C128.956 33.4546 129.414 33.1898 129.86 33.3086C130.306 33.4274 130.571 33.8854 130.452 34.331L128.744 40.708C128.625 41.1536 128.167 41.4185 127.721 41.2997L121.344 39.5915C120.899 39.4727 120.634 39.0147 120.753 38.5691C120.871 38.1235 121.329 37.8586 121.775 37.9775L127.347 39.4702L128.84 33.9002H128.838ZM134.22 44.5773C134.415 44.1589 134.913 43.9782 135.331 44.1713C135.749 44.3669 135.93 44.8645 135.737 45.2828L132.947 51.2662C132.752 51.6846 132.254 51.8653 131.836 51.6722L125.852 48.8823C125.434 48.6867 125.253 48.1891 125.446 47.7708C125.642 47.3524 126.139 47.1717 126.558 47.3648L131.784 49.8007L134.22 44.5748V44.5773ZM137.668 56.0292C137.93 55.6529 138.45 55.5589 138.827 55.8237C139.203 56.0861 139.297 56.606 139.032 56.9823L135.244 62.3914C134.982 62.7677 134.462 62.8617 134.086 62.5969L128.677 58.8093C128.3 58.5468 128.206 58.027 128.471 57.6507C128.734 57.2744 129.254 57.1803 129.63 57.4452L134.356 60.755L137.665 56.0292H137.668ZM139.072 67.902C139.398 67.5752 139.928 67.5752 140.255 67.902C140.582 68.2287 140.582 68.7585 140.255 69.0853L135.586 73.7542C135.259 74.0809 134.729 74.0809 134.403 73.7542L129.734 69.0853C129.407 68.7585 129.407 68.2287 129.734 67.902C130.061 67.5752 130.59 67.5752 130.917 67.902L134.994 71.9792L139.072 67.902ZM138.396 79.844C138.772 79.5816 139.292 79.6732 139.554 80.0495C139.817 80.4258 139.725 80.9457 139.349 81.2081L133.94 84.9957C133.563 85.2581 133.044 85.1665 132.781 84.7902L128.994 79.3811C128.731 79.0048 128.823 78.485 129.199 78.2225C129.575 77.9601 130.095 78.0517 130.358 78.428L133.667 83.1539L138.393 79.844H138.396ZM135.653 91.4816C136.071 91.286 136.569 91.4692 136.764 91.8876C136.96 92.306 136.777 92.8036 136.358 92.9991L130.375 95.7891C129.957 95.9846 129.459 95.8015 129.263 95.3831L126.474 89.3997C126.278 88.9813 126.461 88.4837 126.88 88.2882C127.298 88.0926 127.795 88.2758 127.991 88.6941L130.427 93.92L135.653 91.4816ZM130.932 102.471C131.378 102.352 131.836 102.617 131.954 103.062C132.073 103.508 131.808 103.966 131.363 104.085L124.986 105.793C124.54 105.912 124.082 105.647 123.963 105.201L122.255 98.8241C122.136 98.3785 122.401 97.9205 122.847 97.8017C123.292 97.6829 123.75 97.9478 123.869 98.3934L125.362 103.963L130.932 102.471ZM124.377 112.469C124.837 112.43 125.241 112.771 125.283 113.229C125.322 113.69 124.981 114.093 124.523 114.135L117.945 114.71C117.485 114.749 117.081 114.408 117.039 113.95L116.465 107.372C116.425 106.912 116.767 106.508 117.225 106.466C117.685 106.427 118.089 106.768 118.131 107.226L118.633 112.969L124.379 112.467L124.377 112.469ZM116.18 121.181C116.641 121.22 116.98 121.626 116.94 122.087C116.901 122.547 116.495 122.886 116.034 122.847L109.457 122.273C108.996 122.233 108.657 121.827 108.697 121.367L109.271 114.789C109.31 114.329 109.716 113.989 110.177 114.029C110.637 114.069 110.977 114.475 110.937 114.935L110.434 120.681L116.178 121.183L116.18 121.181ZM106.6 128.338C107.045 128.456 107.31 128.914 107.191 129.36C107.073 129.806 106.615 130.071 106.169 129.952L99.792 128.244C99.3464 128.125 99.0815 127.667 99.2003 127.221L100.908 120.844C101.027 120.399 101.485 120.134 101.931 120.253C102.376 120.371 102.641 120.829 102.523 121.275L101.03 126.847L106.6 128.34V128.338ZM95.9227 133.72C96.3411 133.915 96.5218 134.413 96.3287 134.831C96.1331 135.249 95.6355 135.43 95.2172 135.237L89.2338 132.447C88.8154 132.252 88.6347 131.754 88.8278 131.336L91.6177 125.352C91.8133 124.934 92.3109 124.753 92.7292 124.946C93.1476 125.142 93.3283 125.639 93.1352 126.058L90.6993 131.284L95.9252 133.72H95.9227ZM84.4708 137.168C84.8471 137.43 84.9411 137.95 84.6763 138.327C84.4138 138.703 83.894 138.797 83.5177 138.532L78.1086 134.744C77.7323 134.482 77.6383 133.962 77.9031 133.586L81.6907 128.177C81.9531 127.8 82.473 127.706 82.8493 127.971C83.2256 128.234 83.3197 128.754 83.0548 129.13L79.745 133.856L84.4708 137.165V137.168ZM72.598 138.572C72.9248 138.898 72.9248 139.428 72.598 139.755C72.2713 140.082 71.7415 140.082 71.4147 139.755L66.7458 135.086C66.4191 134.759 66.4191 134.229 66.7458 133.903L71.4147 129.234C71.7415 128.907 72.2713 128.907 72.598 129.234C72.9248 129.561 72.9248 130.09 72.598 130.417L68.5208 134.494L72.598 138.572ZM60.656 137.896C60.9184 138.272 60.8268 138.792 60.4505 139.054C60.0742 139.317 59.5543 139.225 59.2919 138.849L55.5043 133.44C55.2419 133.063 55.3335 132.544 55.7098 132.281L61.1189 128.494C61.4952 128.231 62.015 128.323 62.2774 128.699C62.5399 129.075 62.4483 129.595 62.072 129.858L57.3461 133.167L60.656 137.893V137.896ZM49.0184 135.153C49.214 135.571 49.0308 136.069 48.6124 136.264C48.194 136.46 47.6964 136.277 47.5009 135.858L44.7109 129.875C44.5153 129.457 44.6985 128.959 45.1169 128.763L51.1003 125.974C51.5187 125.778 52.0163 125.961 52.2118 126.38C52.4074 126.798 52.2242 127.295 51.8059 127.491L46.58 129.927L49.0184 135.153ZM38.0294 130.432C38.1482 130.878 37.8833 131.336 37.4377 131.454C36.9921 131.573 36.5342 131.308 36.4153 130.863L34.7072 124.486C34.5884 124.04 34.8533 123.582 35.2989 123.463L41.6759 121.755C42.1215 121.636 42.5795 121.901 42.6983 122.347C42.8171 122.792 42.5522 123.25 42.1066 123.369L36.5366 124.862L38.0294 130.432ZM28.0306 123.877C28.0702 124.337 27.7286 124.741 27.2706 124.783C26.8102 124.822 26.4067 124.481 26.3646 124.023L25.7903 117.445C25.7507 116.985 26.0923 116.581 26.5503 116.539L33.1278 115.965C33.5883 115.925 33.9918 116.267 34.0339 116.725C34.0735 117.185 33.7318 117.589 33.2739 117.631L27.5306 118.133L28.0331 123.879L28.0306 123.877ZM19.3192 115.68C19.2796 116.141 18.8736 116.48 18.4131 116.44C17.9527 116.401 17.6135 115.995 17.6531 115.534L18.2274 108.957C18.267 108.496 18.673 108.157 19.1335 108.197L25.711 108.771C26.1715 108.81 26.5106 109.216 26.471 109.677C26.4314 110.137 26.0254 110.477 25.565 110.437L19.8192 109.934L19.3167 115.678L19.3192 115.68ZM12.1623 106.1C12.0435 106.545 11.5855 106.81 11.1399 106.691C10.6943 106.573 10.4294 106.115 10.5483 105.669L12.2564 99.292C12.3752 98.8464 12.8332 98.5815 13.2788 98.7003L19.6558 100.408C20.1014 100.527 20.3663 100.985 20.2475 101.431C20.1287 101.876 19.6707 102.141 19.2251 102.023L13.6551 100.53L12.1623 106.1ZM6.78048 95.4227C6.58491 95.8411 6.08733 96.0218 5.66896 95.8287C5.25059 95.6331 5.06987 95.1355 5.26297 94.7172L8.05292 88.7338C8.24848 88.3154 8.74607 88.1347 9.16444 88.3278L15.1479 91.1177C15.5662 91.3133 15.7469 91.8109 15.5538 92.2292C15.3583 92.6476 14.8607 92.8283 14.4423 92.6352L9.21642 90.1993L6.78048 95.4252V95.4227ZM3.33203 83.9708C3.06962 84.3471 2.54976 84.4411 2.17347 84.1763C1.79719 83.9138 1.70312 83.394 1.968 83.0177L5.7556 77.6086C6.01801 77.2323 6.53788 77.1383 6.91416 77.4031L12.3232 81.1907C12.6995 81.4531 12.7936 81.973 12.5287 82.3493C12.2663 82.7256 11.7464 82.8197 11.3702 82.5548L6.64432 79.245L3.33451 83.9708H3.33203ZM1.92839 72.098C1.60162 72.4248 1.07185 72.4248 0.74508 72.098C0.418307 71.7713 0.418307 71.2415 0.74508 70.9147L5.41397 66.2458C5.74075 65.9191 6.27052 65.9191 6.59729 66.2458L11.2662 70.9147C11.593 71.2415 11.593 71.7713 11.2662 72.098C10.9394 72.4248 10.4096 72.4248 10.0829 72.098L6.00563 68.0208L1.92839 72.098ZM2.60422 60.156C2.22794 60.4184 1.70807 60.3268 1.44566 59.9505C1.18325 59.5742 1.27485 59.0543 1.65113 58.7919L7.06022 55.0043C7.4365 54.7419 7.95637 54.8335 8.21878 55.2098L12.0064 60.6189C12.2688 60.9952 12.1772 61.515 11.8009 61.7774C11.4246 62.0399 10.9048 61.9483 10.6423 61.572L7.33253 56.8461L2.6067 60.156H2.60422ZM5.34713 48.5184C4.92877 48.714 4.43118 48.5308 4.23561 48.1124C4.04004 47.694 4.22323 47.1964 4.6416 47.0009L10.625 44.2109C11.0434 44.0153 11.541 44.1985 11.7365 44.6169L14.5265 50.6003C14.7221 51.0187 14.5389 51.5163 14.1205 51.7118C13.7021 51.9074 13.2045 51.7242 13.009 51.3059L10.573 46.08L5.34713 48.5184ZM10.068 37.5294C9.62242 37.6482 9.16444 37.3833 9.04561 36.9377C8.92679 36.4921 9.19167 36.0342 9.63727 35.9153L16.0143 34.2072C16.4599 34.0884 16.9179 34.3533 17.0367 34.7989L18.7448 41.1759C18.8637 41.6215 18.5988 42.0795 18.1532 42.1983C17.7076 42.3171 17.2496 42.0522 17.1308 41.6066L15.638 36.0366L10.068 37.5294ZM16.6233 27.5306C16.1628 27.5702 15.7593 27.2286 15.7172 26.7706C15.6776 26.3102 16.0192 25.9067 16.4772 25.8646L23.0548 25.2903C23.5152 25.2507 23.9187 25.5923 23.9608 26.0503L24.5352 32.6278C24.5748 33.0883 24.2331 33.4918 23.7752 33.5339C23.3147 33.5735 22.9112 33.2318 22.8691 32.7739L22.3666 27.0306L16.6208 27.5331L16.6233 27.5306ZM24.8198 18.8192C24.3594 18.7796 24.0202 18.3736 24.0598 17.9131C24.0995 17.4527 24.5054 17.1135 24.9659 17.1531L31.5434 17.7274C32.0039 17.767 32.3431 18.173 32.3034 18.6335L31.7291 25.211C31.6895 25.6715 31.2835 26.0106 30.8231 25.971C30.3626 25.9314 30.0235 25.5254 30.0631 25.065L30.5656 19.3192L24.8223 18.8167L24.8198 18.8192ZM34.4002 11.6623C33.9546 11.5435 33.6898 11.0855 33.8086 10.6399C33.9274 10.1943 34.3854 9.92945 34.831 10.0483L41.208 11.7564C41.6536 11.8752 41.9185 12.3332 41.7997 12.7788L40.0915 19.1558C39.9727 19.6014 39.5147 19.8663 39.0691 19.7475C38.6235 19.6287 38.3586 19.1707 38.4775 18.7251L39.9702 13.1551L34.4002 11.6623ZM45.0773 6.28048C44.6589 6.08491 44.4782 5.58733 44.6713 5.16896C44.8669 4.75059 45.3645 4.56987 45.7828 4.76297L51.7662 7.55292C52.1846 7.74848 52.3653 8.24607 52.1722 8.66444L49.3823 14.6479C49.1867 15.0662 48.6891 15.2469 48.2708 15.0538C47.8524 14.8583 47.6717 14.3607 47.8648 13.9423L50.3032 8.71642L45.0773 6.28048ZM56.5292 2.83203C56.1529 2.56962 56.0589 2.04976 56.3237 1.67347C56.5861 1.29719 57.106 1.20312 57.4823 1.468L62.8914 5.2556C63.2677 5.51801 63.3617 6.03788 63.0969 6.41416L59.3093 11.8232C59.0468 12.1995 58.527 12.2936 58.1507 12.0287C57.7744 11.7663 57.6803 11.2464 57.9452 10.8702L61.255 6.14432L56.5292 2.83451V2.83203ZM68.402 1.42839C68.0752 1.10162 68.0752 0.571853 68.402 0.24508C68.7287 -0.0816933 69.2585 -0.0816933 69.5853 0.24508L74.2542 4.91397C74.5809 5.24075 74.5809 5.77052 74.2542 6.09729L69.5853 10.7662C69.2585 11.093 68.7287 11.093 68.402 10.7662C68.0752 10.4394 68.0752 9.90964 68.402 9.58287L72.4792 5.50563L68.402 1.42839ZM70.4146 23.2455C71.8059 23.2455 73.0659 23.8099 73.9794 24.7209C74.8904 25.6319 75.4548 26.8919 75.4548 28.2857C75.4548 29.6769 74.8904 30.937 73.9794 31.8505C73.6056 32.2243 73.1748 32.5387 72.6995 32.7813V39.7599C72.6995 40.7625 72.9174 41.7329 73.3036 42.6488C74.2047 44.7753 76.0267 46.637 78.2225 47.9738C80.4307 49.318 83.0003 50.1176 85.3892 50.1176C85.7729 50.1176 86.1517 50.0978 86.5205 50.0557C86.8523 50.0087 87.184 49.9517 87.5207 49.8824L87.543 49.8775C89.1793 49.4393 90.9543 48.3476 92.0608 46.7112C92.9347 45.4215 93.3853 43.7802 93.004 41.8418C92.9 41.3145 92.6995 40.9061 92.4421 40.6214C92.2317 40.3911 91.9841 40.2451 91.7291 40.1931C91.4741 40.1411 91.1969 40.1782 90.9196 40.3119C90.5904 40.4704 90.2636 40.7649 89.9739 41.2056C89.964 41.2204 89.9566 41.2328 89.9467 41.2452C89.9393 41.2551 89.9319 41.2625 89.9269 41.2724C89.8254 41.4012 89.6942 41.4928 89.5481 41.5423C89.4838 41.5645 89.4145 41.5794 89.3452 41.5868L89.3179 41.5893C89.1867 41.5967 89.0555 41.5745 88.9317 41.5175C88.9169 41.5101 88.902 41.5051 88.8896 41.4977C88.8525 41.4779 88.8179 41.4556 88.7832 41.4309C88.7733 41.4234 88.7659 41.416 88.756 41.4111C88.6272 41.3096 88.5356 41.1784 88.4861 41.0323C88.4639 40.9679 88.449 40.8986 88.4416 40.8293L88.4391 40.8021C88.4366 40.7377 88.4391 40.6709 88.4515 40.6065C88.6891 39.0618 89.4466 37.8067 90.4369 37.0071C90.8998 36.6332 91.4122 36.3585 91.947 36.1975C92.4965 36.0317 93.0709 35.9822 93.6452 36.0688C94.6032 36.2124 95.534 36.7224 96.3039 37.6755C96.3237 37.7002 96.3584 37.7448 96.4054 37.8067C97.3981 39.1261 97.5615 40.7179 97.2323 42.2478C98.8612 40.552 100.535 38.9504 102.483 37.8215C103.399 37.2917 104.357 37.0442 105.288 37.0293C106.315 37.0145 107.303 37.2868 108.159 37.777C109.016 38.2671 109.736 38.9776 110.231 39.8317C110.677 40.604 110.942 41.4977 110.957 42.4607C110.962 42.9212 110.593 43.2974 110.132 43.3024C109.672 43.3073 109.296 42.9385 109.291 42.478C109.281 41.8171 109.098 41.2006 108.786 40.6659C108.437 40.0619 107.929 39.5618 107.328 39.2177C106.766 38.8959 106.122 38.7053 105.449 38.6929C105.471 38.7696 105.483 38.8489 105.483 38.933V42.3592H106.53C106.993 42.3592 107.367 42.733 107.367 43.1959V46.6172C107.367 46.9514 107.172 47.241 106.887 47.3747L116.631 67.3301H121.379C121.406 67.3301 121.431 67.3326 121.458 67.3351C122.592 67.3549 123.327 67.996 123.666 68.8204C123.795 69.1348 123.859 69.4789 123.862 69.8255C123.864 70.1721 123.805 70.5186 123.684 70.8355C123.352 71.7094 122.584 72.4025 121.391 72.4199H121.379V72.4223H118.921C118.874 75.5093 117.247 78.2869 114.643 80.2946C112.058 82.2849 108.503 83.5178 104.59 83.5178C100.676 83.5178 97.1209 82.2874 94.5364 80.2946C91.9321 78.2869 90.3057 75.5093 90.2586 72.4223H87.6395C87.6048 72.4223 87.5727 72.4199 87.5405 72.4174C86.3968 72.3679 85.6591 71.6871 85.3348 70.8355C85.2135 70.5186 85.154 70.1721 85.1565 69.8255C85.159 69.4764 85.2234 69.1323 85.3521 68.8204C85.6962 67.9738 86.4587 67.3252 87.6395 67.3326V67.3301H92.7812L102.505 47.4143C102.171 47.3054 101.928 46.991 101.928 46.6196V43.1984C101.928 42.7355 102.302 42.3617 102.765 42.3617H103.812V39.0172C103.646 39.0865 103.483 39.1707 103.32 39.2648C101.126 40.5347 99.2201 42.5597 97.3065 44.5946C94.9127 47.1395 92.5064 49.6992 89.3699 51.0286C88.496 51.3999 87.5578 51.6277 86.5899 51.7292C84.097 52.0658 81.6883 51.8901 79.4108 51.3182C77.007 50.7142 74.7493 49.6695 72.6971 48.3203L72.707 50.375C72.7441 51.2786 72.8332 51.8876 72.9669 52.3233C73.0783 52.6872 73.2268 52.9199 73.4026 53.1204C73.8977 53.675 74.6379 54.0092 75.4697 54.2245C76.3733 54.4572 77.4031 54.5464 78.3661 54.6082C79.2944 54.6107 79.9331 55.034 80.2475 55.5836C80.3886 55.8312 80.4629 56.106 80.4703 56.3882C80.4777 56.6654 80.4134 56.9427 80.2822 57.1977C79.9925 57.7571 79.3736 58.2077 78.4304 58.2622C78.3958 58.2671 78.3586 58.2696 78.3215 58.2696H73.9373V58.2671C73.462 58.282 73.1377 58.3835 72.9619 58.5815C72.7763 58.787 72.6896 59.1484 72.6946 59.6732C72.6971 59.7005 72.6995 59.7302 72.6995 59.7599C72.6995 59.7945 72.6946 60.1337 72.6896 60.4753C72.6748 61.5002 72.6574 62.5325 72.9644 63.4509C73.3877 64.7159 74.2591 65.8621 75.1231 67.0033C75.8237 67.9267 76.5218 68.8452 77.0342 69.8601C77.517 70.8157 77.7992 72.098 77.8635 73.3828C77.9304 74.6726 77.7794 75.9871 77.3981 76.9922C76.9872 78.0814 76.3237 79.3613 75.6133 80.7303C74.2096 83.441 72.6154 86.5181 72.6921 88.6793C72.6946 88.709 72.6971 88.7412 72.6971 88.7734V94.4374H73.3729C73.8358 94.4374 74.2096 94.8112 74.2096 95.2742V97.9205C74.222 98.4553 74.2666 99.0222 74.4151 99.5247C74.5859 100.109 74.9152 100.624 75.5489 100.896C75.9598 101.074 76.9327 101.27 77.9056 101.466C79.1285 101.713 80.3515 101.958 80.854 102.268C81.6189 102.74 82.1685 103.555 82.4111 104.394C82.5547 104.892 82.5968 105.407 82.5201 105.874C82.4309 106.407 82.1958 106.889 81.7873 107.246C81.3887 107.595 80.8515 107.808 80.1633 107.808H60.5074C59.8192 107.808 59.282 107.595 58.8835 107.246C58.475 106.889 58.2398 106.409 58.1507 105.874C58.0715 105.404 58.1136 104.889 58.2596 104.394C58.5022 103.555 59.0518 102.74 59.8167 102.268C60.3168 101.958 61.5422 101.711 62.7651 101.466C63.738 101.27 64.7109 101.072 65.1219 100.896C65.7556 100.624 66.0848 100.106 66.2557 99.5247C66.4611 98.8315 66.4661 98.0146 66.4636 97.3338C66.4636 97.2744 66.4686 97.215 66.4809 97.1581V95.2742C66.4809 94.8112 66.8547 94.4374 67.3177 94.4374H68.1272V88.7734C68.1272 88.7412 68.1297 88.7115 68.1321 88.6793C68.2089 86.5157 66.6146 83.441 65.211 80.7303C64.503 79.3613 63.8395 78.0814 63.4261 76.9922C63.0473 75.9871 62.8963 74.6726 62.9607 73.3828C63.0251 72.098 63.3073 70.8157 63.79 69.8601C64.3025 68.8452 65.0006 67.9267 65.7011 67.0033C66.5676 65.8621 67.4365 64.7159 67.8598 63.4509C68.1668 62.535 68.1495 61.5027 68.1346 60.4753C68.1297 60.1362 68.1247 59.7945 68.1247 59.7599C68.1247 59.7302 68.1272 59.7029 68.1297 59.6732C68.1346 59.1484 68.048 58.7895 67.8623 58.5815C67.6841 58.3835 67.3598 58.282 66.8869 58.2671V58.2696H62.5027C62.4656 58.2696 62.4285 58.2671 62.3938 58.2622C61.4506 58.2077 60.8317 57.7571 60.5421 57.1977C60.4109 56.9427 60.3465 56.6654 60.3539 56.3882C60.3614 56.106 60.4356 55.8312 60.5767 55.5836C60.8911 55.034 61.5298 54.6107 62.4582 54.6082C63.4212 54.5439 64.451 54.4548 65.3546 54.2245C66.1863 54.0116 66.9265 53.6774 67.4216 53.1204C67.5999 52.9224 67.7459 52.6872 67.8573 52.3233C67.991 51.8876 68.0801 51.2786 68.1173 50.375L68.1272 48.3203C66.0749 49.6695 63.8172 50.7142 61.4135 51.3182C59.136 51.8901 56.7297 52.0658 54.2344 51.7292C53.264 51.6277 52.3282 51.3974 51.4543 51.0286C48.3178 49.6992 45.9116 47.1395 43.5177 44.5946C41.6041 42.5597 39.6979 40.5347 37.5046 39.2648C37.3412 39.1707 37.1753 39.089 37.0119 39.0172V42.3617H38.0591C38.522 42.3617 38.8958 42.7355 38.8958 43.1984V46.6196C38.8958 46.991 38.6532 47.3054 38.319 47.4143L48.043 67.3301H53.1847V67.3326C54.3656 67.3252 55.1256 67.9738 55.4721 68.8204C55.6009 69.1348 55.6652 69.4789 55.6677 69.8255C55.6702 70.1721 55.6108 70.5186 55.4895 70.8355C55.1652 71.6871 54.4275 72.3679 53.2838 72.4174C53.2516 72.4223 53.2169 72.4223 53.1847 72.4223H50.5656C50.5186 75.5093 48.8921 78.2869 46.2878 80.2946C43.7034 82.2849 40.1485 83.5178 36.2346 83.5178C32.3208 83.5178 28.7659 82.2874 26.1814 80.2946C23.5771 78.2869 21.9507 75.5093 21.9036 72.4223H19.4454V72.4199H19.433C18.2398 72.4 17.4724 71.7069 17.1407 70.8355C17.0194 70.5186 16.96 70.1721 16.9624 69.8255C16.9649 69.4764 17.0293 69.1323 17.158 68.8204C17.4947 67.9936 18.2299 67.3549 19.3662 67.3351C19.391 67.3326 19.4182 67.3301 19.4454 67.3301H24.1935L33.9373 47.3747C33.6526 47.241 33.4571 46.9514 33.4571 46.6172V43.1959C33.4571 42.733 33.8309 42.3592 34.2938 42.3592H35.3409V38.933C35.3409 38.8489 35.3533 38.7696 35.3756 38.6929C34.7023 38.7078 34.0586 38.8959 33.4967 39.2177C32.8951 39.5618 32.3876 40.0619 32.0386 40.6659C31.7291 41.2031 31.5459 41.8171 31.5335 42.478C31.5286 42.9385 31.1498 43.3073 30.6919 43.3024C30.2314 43.2974 29.8625 42.9187 29.8675 42.4607C29.8823 41.4977 30.1472 40.604 30.5928 39.8317C31.0879 38.9751 31.8108 38.2671 32.6649 37.777C33.5189 37.2868 34.5092 37.012 35.5365 37.0293C36.4673 37.0442 37.4254 37.2917 38.3413 37.8215C40.2896 38.9479 41.9655 40.552 43.592 42.2478C43.2627 40.7204 43.4261 39.1286 44.4188 37.8067C44.4658 37.7448 44.5005 37.7002 44.5203 37.6755C45.2902 36.7224 46.221 36.2099 47.179 36.0688C47.7509 35.9846 48.3277 36.0317 48.8773 36.1975C49.412 36.3585 49.9244 36.6332 50.3874 37.0071C51.3776 37.8067 52.1351 39.0618 52.3728 40.6065C52.3851 40.6709 52.3876 40.7377 52.3851 40.8021L52.3827 40.8293C52.3777 40.8986 52.3629 40.9679 52.3381 41.0323C52.2861 41.1784 52.197 41.3096 52.0683 41.4111C52.0584 41.4185 52.0509 41.4259 52.041 41.4309C52.0064 41.4556 51.9717 41.4779 51.9346 41.4977C51.9197 41.5051 51.9074 41.5126 51.8925 41.5175C51.7687 41.5745 51.635 41.5967 51.5063 41.5893L51.4791 41.5868C51.4098 41.5819 51.3405 41.567 51.2761 41.5423C51.13 41.4903 50.9988 41.4012 50.8973 41.2724C50.8899 41.2625 50.8825 41.2551 50.8775 41.2452C50.8676 41.2328 50.8577 41.218 50.8503 41.2056C50.5606 40.7649 50.2339 40.4704 49.9046 40.3119C49.6298 40.1782 49.3501 40.1411 49.0951 40.1931C48.8401 40.2451 48.5926 40.3887 48.3822 40.6214C48.1247 40.9036 47.9242 41.3145 47.8202 41.8418C47.439 43.7802 47.8895 45.4215 48.7634 46.7112C49.8724 48.3476 51.6449 49.4393 53.2813 49.8775L53.3036 49.8824C53.6378 49.9492 53.972 50.0087 54.3037 50.0557C54.675 50.0978 55.0513 50.1176 55.435 50.1176C57.8239 50.1176 60.396 49.3155 62.6017 47.9738C64.7976 46.637 66.6196 44.7753 67.5207 42.6488C67.9093 41.7329 68.1247 40.7625 68.1247 39.7599V32.7788C67.6519 32.5362 67.2236 32.2243 66.8523 31.853C65.9413 30.9419 65.3768 29.6819 65.3768 28.2882C65.3768 26.8969 65.9413 25.6368 66.8523 24.7234C67.7633 23.8124 69.0233 23.2479 70.4171 23.2479L70.4146 23.2455ZM69.7957 94.4275H71.0261V88.7635C71.0261 88.7536 71.0261 88.7437 71.0261 88.7313C70.9345 86.1295 72.6327 82.8494 74.1304 79.9554C74.8161 78.631 75.4598 77.3908 75.8361 76.3931C76.1356 75.6034 76.2495 74.5315 76.195 73.4571C76.1405 72.3901 75.9202 71.3455 75.5415 70.6003C75.0884 69.7042 74.4423 68.8526 73.7937 67.9985C72.8431 66.7459 71.8876 65.4858 71.3801 63.9683C70.984 62.785 71.0013 61.6116 71.0211 60.4456C71.0236 60.3144 71.0261 60.1857 71.0261 59.75C71.0261 59.7302 71.0261 59.7104 71.0285 59.693C71.0186 58.7276 71.2439 57.9898 71.7217 57.4576C72.2242 56.8981 72.952 56.6184 73.92 56.5961H73.9398V56.5936H78.324C78.3364 56.5936 78.3463 56.5936 78.3562 56.5936C78.6186 56.5788 78.7597 56.5095 78.8018 56.4303C78.8042 56.4228 78.8067 56.4203 78.8067 56.4179C78.8067 56.4154 78.8042 56.4179 78.7993 56.4104C78.7523 56.3288 78.6012 56.2669 78.3339 56.2718C78.3116 56.2718 78.2893 56.2718 78.2695 56.2693V56.2718C77.2347 56.2025 76.1158 56.106 75.0612 55.8336C73.9324 55.544 72.9025 55.0613 72.1574 54.227C71.8356 53.8681 71.5707 53.4497 71.3751 52.811C71.2018 52.2441 71.0855 51.4989 71.0434 50.4369C71.0434 50.4171 71.0434 50.3949 71.0434 50.375L71.0285 47.6099H71.0261V33.2863C70.8255 33.3111 70.6201 33.3234 70.4146 33.3234C70.2042 33.3234 69.9987 33.3111 69.7957 33.2863V47.6099H69.7932L69.7784 50.375C69.7784 50.3949 69.7784 50.4147 69.7784 50.4369C69.7338 51.4965 69.6199 52.2441 69.4466 52.811C69.2511 53.4497 68.9837 53.8681 68.6644 54.227C67.9192 55.0613 66.8894 55.544 65.7606 55.8336C64.706 56.1035 63.587 56.2025 62.5522 56.2718V56.2693C62.53 56.2718 62.5102 56.2718 62.4879 56.2718C62.2205 56.2669 62.0695 56.3288 62.0225 56.4104C62.0175 56.4179 62.015 56.4154 62.015 56.4179C62.015 56.4203 62.0175 56.4228 62.02 56.4303C62.0621 56.5119 62.2032 56.5788 62.4656 56.5936C62.4755 56.5936 62.4879 56.5936 62.4978 56.5936H66.882V56.5961H66.9018C67.8697 56.6209 68.5951 56.8981 69.1001 57.4576C69.5779 57.9898 69.8031 58.7276 69.7932 59.693C69.7957 59.7128 69.7957 59.7302 69.7957 59.75C69.7957 60.1857 69.7982 60.3144 69.8007 60.4456C69.818 61.6116 69.8378 62.785 69.4417 63.9683C68.9342 65.4858 67.9786 66.7434 67.028 67.9985C66.3794 68.8526 65.7333 69.7042 65.2803 70.6003C64.904 71.3455 64.6812 72.3901 64.6267 73.4571C64.5723 74.5315 64.6886 75.6034 64.9857 76.3931C65.362 77.3908 66.0056 78.631 66.6914 79.9554C68.1891 82.8494 69.8898 86.1295 69.7957 88.7313C69.7957 88.7412 69.7957 88.7511 69.7957 88.7635V94.4275ZM36.3089 69.0011H19.438C19.4157 69.0011 19.3959 69.0011 19.3761 68.9986C19.0246 69.0135 18.7993 69.2041 18.7003 69.4467C18.6483 69.573 18.6235 69.7066 18.6211 69.8379C18.6211 69.9715 18.6433 70.1102 18.6928 70.2414C18.7993 70.5211 19.0469 70.7439 19.4355 70.7538V70.7513H53.1748C53.1897 70.7513 53.2021 70.7513 53.2169 70.7513C53.5833 70.7266 53.816 70.5087 53.92 70.2389C53.9695 70.1077 53.9942 69.9715 53.9918 69.8354C53.9918 69.7017 53.9645 69.568 53.9126 69.4442C53.8086 69.1893 53.566 68.9937 53.1823 68.9962H53.1748V68.9986H36.3039L36.3089 69.0011ZM26.0477 67.3276H46.1789L36.4748 47.4514H35.7544L26.0502 67.3276H26.0477ZM35.1256 45.7804H37.2199V44.0302H35.1256V45.7804ZM49.5754 38.5147C49.4986 38.4404 49.4194 38.3686 49.3377 38.3042C49.0456 38.0691 48.7238 37.8958 48.3896 37.7943C48.0702 37.6977 47.741 37.668 47.4167 37.7175C46.8597 37.8017 46.3002 38.1186 45.815 38.7177C45.7779 38.7647 45.7531 38.7944 45.7457 38.8043C44.9758 39.8267 44.9634 41.161 45.3521 42.4186C45.5179 42.9558 45.7556 43.4757 46.0353 43.951C45.9635 43.1885 46.0007 42.3765 46.169 41.5225C46.3349 40.6808 46.6815 40 47.137 39.4999C47.59 39.0023 48.1495 38.6855 48.7584 38.5617C49.0233 38.5072 49.2956 38.4924 49.5704 38.5171L49.5754 38.5147ZM68.1247 45.0204C67.4192 46.0948 66.5205 47.0776 65.4932 47.9416C66.4067 47.4514 67.2855 46.8969 68.1247 46.2854V45.0179V45.0204ZM113.628 78.9751C115.829 77.2794 117.203 74.9672 117.252 72.4223H91.9346C91.9841 74.9672 93.3605 77.2794 95.5588 78.9751C97.8586 80.7476 101.052 81.8443 104.592 81.8443C108.132 81.8443 111.326 80.7476 113.625 78.9751H113.628ZM104.513 67.3276H114.774L105.07 47.4514H104.349L94.6453 67.3276H104.515H104.513ZM121.384 69.0011H87.6444V68.9986H87.637C87.2508 68.9962 87.0107 69.1917 86.9067 69.4467C86.8547 69.573 86.83 69.7066 86.8275 69.8379C86.8275 69.9715 86.8498 70.1102 86.8993 70.2414C87.0008 70.5112 87.236 70.729 87.6024 70.7538C87.6147 70.7538 87.6296 70.7538 87.6444 70.7538H121.384V70.7563C121.772 70.7464 122.02 70.5236 122.126 70.2438C122.176 70.1126 122.201 69.9765 122.198 69.8403C122.198 69.7066 122.171 69.573 122.119 69.4492C122.02 69.2066 121.797 69.016 121.443 69.0011C121.423 69.0036 121.401 69.0036 121.381 69.0036L121.384 69.0011ZM103.604 45.7804H105.699V44.0302H103.604V45.7804ZM91.484 38.3018C91.4023 38.3686 91.3231 38.4379 91.2464 38.5122C91.5187 38.4874 91.791 38.5023 92.0584 38.5568C92.6649 38.6805 93.2268 38.9974 93.6798 39.495C94.1354 39.995 94.4819 40.6783 94.6478 41.5175C94.8161 42.3716 94.8533 43.1836 94.7815 43.946C95.0637 43.4707 95.2989 42.9509 95.4647 42.4137C95.8534 41.1561 95.841 39.8242 95.0711 38.7994C95.0637 38.7895 95.0389 38.7597 95.0018 38.7127C94.5191 38.1136 93.9596 37.7968 93.4001 37.7126C93.0758 37.6656 92.7466 37.6928 92.4272 37.7893C92.093 37.8908 91.7712 38.0641 91.4791 38.2993L91.484 38.3018ZM75.3286 47.9416C74.3012 47.0776 73.4026 46.0923 72.6971 45.0204V46.2879C73.5363 46.8994 74.4151 47.4539 75.3286 47.9441V47.9416ZM66.476 102.027C66.268 102.176 66.0378 102.31 65.7754 102.421C65.2283 102.656 64.1564 102.872 63.0845 103.089C62.0101 103.307 60.9332 103.523 60.6857 103.676C60.2846 103.924 59.9925 104.374 59.8539 104.847C59.7771 105.11 59.7549 105.369 59.792 105.597C59.8192 105.761 59.8786 105.897 59.9752 105.981C60.0767 106.07 60.2475 106.125 60.5025 106.125H80.1584C80.4109 106.125 80.5817 106.07 80.6857 105.981C80.7822 105.897 80.8441 105.761 80.8689 105.597C80.906 105.369 80.8837 105.11 80.807 104.847C80.6708 104.372 80.3762 103.921 79.9752 103.676C79.7252 103.523 78.6508 103.305 77.5764 103.089C76.5045 102.874 75.4325 102.656 74.8854 102.421C74.6329 102.312 74.4077 102.186 74.2071 102.042V102.094C74.2071 102.557 73.8333 102.931 73.3704 102.931H67.3102C66.8473 102.931 66.4735 102.557 66.4735 102.094V102.027H66.476ZM68.1495 101.26H72.5386V96.101H71.8628H68.959H68.1495V101.26ZM72.7936 25.9067C72.1846 25.2977 71.3429 24.9214 70.4121 24.9214C69.4813 24.9214 68.6396 25.2977 68.0306 25.9067C67.4216 26.5157 67.0454 27.3573 67.0454 28.2882C67.0454 29.219 67.4216 30.0607 68.0306 30.6696C68.6396 31.2786 69.4813 31.6549 70.4121 31.6549C71.3429 31.6549 72.1846 31.2786 72.7936 30.6696C73.4026 30.0607 73.7789 29.219 73.7789 28.2882C73.7789 27.3573 73.4026 26.5157 72.7936 25.9067Z" fill="#746E6E"/>
</g>
<defs>
<clipPath id="clip0_111_115">
<rect width="140" height="140" fill="white" transform="translate(0.5)"/>
</clipPath>
</defs>
</svg>
