<svg width="62" height="62" viewBox="0 0 62 62" fill="none" xmlns="http://www.w3.org/2000/svg">
<g clip-path="url(#clip0_111_83)">
<rect width="62" height="62" fill="#F8F8F8"/>
<path d="M46.9844 31.0011C45.3859 31.0011 44.0781 29.6931 44.0781 28.0944C44.0781 26.4958 45.3859 25.1877 46.9844 25.1877C48.5828 25.1877 49.8906 26.4958 49.8906 28.0944C49.8906 29.6931 48.5828 31.0011 46.9844 31.0011ZM46.9844 26.1566C45.9188 26.1566 45.0469 27.0286 45.0469 28.0944C45.0469 29.1602 45.9188 30.0322 46.9844 30.0322C48.05 30.0322 48.9219 29.1602 48.9219 28.0944C48.9219 27.0286 48.05 26.1566 46.9844 26.1566Z" fill="#746E6E"/>
<path d="M52.7969 36.8136C51.1984 36.8136 49.8906 35.5056 49.8906 33.9069C49.8906 32.3083 51.1984 31.0002 52.7969 31.0002C54.3953 31.0002 55.7031 32.3083 55.7031 33.9069C55.7031 35.5056 54.3953 36.8136 52.7969 36.8136ZM52.7969 31.9691C51.7313 31.9691 50.8594 32.8411 50.8594 33.9069C50.8594 34.9727 51.7313 35.8447 52.7969 35.8447C53.8625 35.8447 54.7344 34.9727 54.7344 33.9069C54.7344 32.8411 53.8625 31.9691 52.7969 31.9691Z" fill="#746E6E"/>
<path d="M46.2578 35.1174C46.1125 35.1174 46.0156 35.069 45.9188 34.9721C45.725 34.7784 45.725 34.4878 45.9188 34.294L53.6688 26.544C53.8625 26.3502 54.1531 26.3502 54.3469 26.544C54.5406 26.7377 54.5406 27.0284 54.3469 27.2221L46.5969 34.9721C46.5 35.069 46.4031 35.1174 46.2578 35.1174Z" fill="#746E6E"/>
<path d="M58.6094 62.0005H41.1719C39.2828 62.0005 37.7812 60.499 37.7812 58.6099V31.4849C37.7812 29.5958 39.2828 28.0942 41.1719 28.0942H42.1406C42.4313 28.0942 42.625 28.288 42.625 28.5786C42.625 28.8692 42.4313 29.063 42.1406 29.063H41.1719C39.8156 29.063 38.75 30.1286 38.75 31.4849V58.6099C38.75 59.9661 39.8156 61.0318 41.1719 61.0318H58.6094C59.9656 61.0318 61.0313 59.9661 61.0313 58.6099V31.4849C61.0313 30.1286 59.9656 29.063 58.6094 29.063H57.6406C57.35 29.063 57.1563 28.8692 57.1563 28.5786C57.1563 28.288 57.35 28.0942 57.6406 28.0942H58.6094C60.4984 28.0942 62 29.5958 62 31.4849V58.6099C62 60.499 60.4984 62.0005 58.6094 62.0005Z" fill="#746E6E"/>
<path d="M61.5156 41.6564H38.2656C37.975 41.6564 37.7812 41.4626 37.7812 41.1719C37.7812 40.8813 37.975 40.6875 38.2656 40.6875H61.5156C61.8063 40.6875 62 40.8813 62 41.1719C62 41.4626 61.8063 41.6564 61.5156 41.6564Z" fill="#746E6E"/>
<path d="M53.7656 62H46.0156C45.725 62 45.5312 61.8063 45.5312 61.5156V41.1719C45.5312 40.8813 45.725 40.6875 46.0156 40.6875H53.7656C54.0563 40.6875 54.25 40.8813 54.25 41.1719V61.5156C54.25 61.8063 54.0563 62 53.7656 62ZM46.5 61.0313H53.2813V41.6563H46.5V61.0313Z" fill="#746E6E"/>
<path d="M61.5156 55.2188H38.2656C37.975 55.2188 37.7812 55.025 37.7812 54.7344V47.9531C37.7812 47.6625 37.975 47.4688 38.2656 47.4688H61.5156C61.8063 47.4688 62 47.6625 62 47.9531V54.7344C62 55.025 61.8063 55.2188 61.5156 55.2188ZM38.75 54.25H61.0313V48.4375H38.75V54.25Z" fill="#746E6E"/>
<path d="M4.84375 47.4688C4.55313 47.4688 4.35938 47.275 4.35938 46.9844V12.1094C4.35938 11.8188 4.55313 11.625 4.84375 11.625C5.13438 11.625 5.32813 11.8188 5.32813 12.1094V46.9844C5.32813 47.275 5.13438 47.4688 4.84375 47.4688Z" fill="#746E6E"/>
<path d="M39.7188 26.6406C39.4281 26.6406 39.2344 26.4469 39.2344 26.1563V12.1094C39.2344 11.8188 39.4281 11.625 39.7188 11.625C40.0094 11.625 40.2031 11.8188 40.2031 12.1094V26.1563C40.2031 26.4469 40.0094 26.6406 39.7188 26.6406Z" fill="#746E6E"/>
<path d="M4.84375 12.5938C2.17969 12.5938 0 9.78438 0 6.29688C0 2.80938 2.17969 0 4.84375 0H39.7188C40.6391 0 41.5109 0.339064 42.2859 0.920314C42.4797 1.06563 42.5281 1.40469 42.3828 1.59844C42.2375 1.79219 41.8984 1.84063 41.7047 1.69531C41.1234 1.21094 40.4453 0.968751 39.7672 0.968751H4.84375C2.7125 0.968751 0.96875 3.34219 0.96875 6.29688C0.96875 9.20313 2.66406 11.5766 4.79531 11.625C5.90938 11.3344 18.0188 8.23438 22.2813 8.23438C23.1531 8.23438 24.4125 8.37969 26.0594 8.62188C26.3016 8.67032 26.4953 8.91251 26.4469 9.1547C26.3984 9.39688 26.1563 9.59063 25.9141 9.5422C24.3156 9.34845 23.1047 9.20313 22.2813 9.20313C18.0188 9.20313 5.08594 12.5453 4.98906 12.5938C4.94063 12.5938 4.89219 12.5938 4.84375 12.5938Z" fill="#746E6E"/>
<path d="M39.7187 12.5953C39.6703 12.5953 39.6218 12.5953 39.5734 12.5953C39.5734 12.5953 38.7015 12.3531 37.3937 12.0624C37.1515 12.014 36.9578 11.7233 37.0547 11.4811C37.1031 11.2389 37.3937 11.0451 37.6359 11.142C38.75 11.4326 39.5734 11.6264 39.7672 11.6749C41.8015 11.6264 43.5453 9.30108 43.5937 6.49128C43.5937 6.24906 43.8359 6.00684 44.0781 6.00684C44.3203 6.00684 44.5625 6.20061 44.5625 6.49128C44.514 9.88242 42.3828 12.5953 39.7187 12.5953Z" fill="#746E6E"/>
<path d="M35.3594 59.0938H4.84375C2.17969 59.0938 0 56.2844 0 52.7969C0 49.3094 2.17969 46.5 4.84375 46.5C4.89219 46.5 4.94063 46.5 4.98906 46.5C5.13438 46.5484 18.0672 49.8906 22.2813 49.8906C24.8969 49.8906 30.7578 48.6313 35.2625 47.5656C35.5047 47.5172 35.7953 47.6625 35.8438 47.9047C35.8922 48.1469 35.7469 48.4375 35.5047 48.4859C31 49.5516 25.0422 50.8109 22.3297 50.8109C18.0672 50.8109 5.90938 47.7109 4.84375 47.4203C2.7125 47.4687 1.01719 49.8422 1.01719 52.7484C1.01719 55.7031 2.76094 58.0766 4.89219 58.0766H35.4078C35.6984 58.0766 35.8922 58.2703 35.8922 58.5609C35.8922 58.8516 35.65 59.0938 35.3594 59.0938Z" fill="#746E6E"/>
<path d="M10.1719 37.7811C10.075 37.7811 9.97812 37.7326 9.92969 37.6842C9.6875 37.5389 9.63906 37.2482 9.78438 37.0061C10.5109 35.892 27.4156 10.1717 39.0406 4.84352C39.2828 4.74664 39.5734 4.84352 39.6703 5.08571C39.7672 5.32789 39.6703 5.61852 39.4281 5.7154C28.0453 10.9951 10.7531 37.2967 10.5594 37.5389C10.4625 37.6842 10.3172 37.7811 10.1719 37.7811Z" fill="#746E6E"/>
<path d="M13.0781 33.9063C12.9813 33.9063 12.8844 33.8578 12.8359 33.8094C12.6906 33.7125 12.5938 33.5672 12.5938 33.4219V25.575C12.5938 23.8313 13.1266 22.1844 14.1437 20.7797C18.6 14.5313 30.9516 0 49.4063 0H50.7625C52.0219 0 53.1359 0.968751 53.2328 2.17969C53.2813 2.85782 53.0875 3.53594 52.6031 4.02032C52.1672 4.50469 51.4891 4.79532 50.8109 4.79532C40.2031 4.79532 28.2875 23.3469 26.9797 25.4781C25.9625 27.125 24.5094 28.4328 22.7656 29.2563L13.2719 33.8094C13.2234 33.9063 13.1266 33.9063 13.0781 33.9063ZM49.4063 0.968751C31.4359 0.968751 19.2781 15.2094 14.9188 21.361C14.0469 22.6203 13.5625 24.0735 13.5625 25.575V32.6469L22.3781 28.4328C23.9281 27.6578 25.2844 26.4953 26.2047 25.0422C28.3844 21.5063 39.9609 3.875 50.8594 3.875C51.2469 3.875 51.6828 3.68125 51.925 3.39063C52.2156 3.1 52.3125 2.66407 52.3125 2.27657C52.2641 1.55 51.5859 0.968751 50.7625 0.968751H49.4063Z" fill="#746E6E"/>
<path d="M23.25 15.5004C22.9594 15.5004 22.7656 15.3067 22.7656 15.016V11.3826C22.7656 11.092 22.9594 10.8982 23.25 10.8982C23.5406 10.8982 23.7344 11.092 23.7344 11.3826V15.016C23.7344 15.3067 23.5406 15.5004 23.25 15.5004Z" fill="#746E6E"/>
<path d="M30.9999 9.2037C30.9515 9.2037 30.8546 9.2037 30.8062 9.15525C30.564 9.05836 30.4671 8.76769 30.564 8.52547L32.5015 4.45611C32.5984 4.21389 32.889 4.117 33.1312 4.21389C33.3734 4.31078 33.4702 4.60144 33.3734 4.84367L31.4359 8.91303C31.339 9.10681 31.1937 9.2037 30.9999 9.2037Z" fill="#746E6E"/>
<path d="M30.6609 19.8595H27.6094C27.3188 19.8595 27.125 19.6657 27.125 19.3751C27.125 19.0844 27.3188 18.8906 27.6094 18.8906H30.6609C30.9516 18.8906 31.1453 19.0844 31.1453 19.3751C31.1453 19.6657 30.9516 19.8595 30.6609 19.8595Z" fill="#746E6E"/>
<path d="M33.9059 12.5942C33.6637 12.5942 33.47 12.4489 33.4215 12.2067C33.3731 11.9644 33.5668 11.6738 33.809 11.6253L37.1512 11.0924C37.3934 11.044 37.684 11.2378 37.7325 11.48C37.7809 11.7222 37.5872 12.0129 37.345 12.0613L34.0028 12.5942C33.9543 12.5942 33.9543 12.5942 33.9059 12.5942Z" fill="#746E6E"/>
<path d="M16.4688 23.2516C16.1781 23.2516 15.9844 23.0578 15.9844 22.7671V18.504C15.9844 18.2133 16.1781 18.0195 16.4688 18.0195C16.7594 18.0195 16.9531 18.2133 16.9531 18.504V22.7671C16.9531 23.0578 16.7594 23.2516 16.4688 23.2516Z" fill="#746E6E"/>
<path d="M25.0906 27.6095H21.7969C21.5063 27.6095 21.3125 27.4157 21.3125 27.1251C21.3125 26.8344 21.5063 26.6406 21.7969 26.6406H25.0906C25.3813 26.6406 25.575 26.8344 25.575 27.1251C25.575 27.4157 25.3328 27.6095 25.0906 27.6095Z" fill="#746E6E"/>
<path d="M31 41.6564H11.625C11.3344 41.6564 11.1406 41.4626 11.1406 41.1719C11.1406 40.8813 11.3344 40.6875 11.625 40.6875H31C31.2906 40.6875 31.4844 40.8813 31.4844 41.1719C31.4844 41.4626 31.2906 41.6564 31 41.6564Z" fill="#746E6E"/>
<path d="M31 35.8441H19.375C19.0844 35.8441 18.8906 35.6504 18.8906 35.3597C18.8906 35.069 19.0844 34.8752 19.375 34.8752H31C31.2906 34.8752 31.4844 35.069 31.4844 35.3597C31.4844 35.6504 31.2906 35.8441 31 35.8441Z" fill="#746E6E"/>
<path d="M31 29.5473H27.125C26.8344 29.5473 26.6406 29.3535 26.6406 29.0628C26.6406 28.7721 26.8344 28.5784 27.125 28.5784H31C31.2906 28.5784 31.4844 28.7721 31.4844 29.0628C31.4844 29.3535 31.2906 29.5473 31 29.5473Z" fill="#746E6E"/>
</g>
<defs>
<clipPath id="clip0_111_83">
<rect width="62" height="62" fill="white"/>
</clipPath>
</defs>
</svg>
