<svg width="70" height="70" viewBox="0 0 70 70" fill="none" xmlns="http://www.w3.org/2000/svg">
<rect width="70" height="70" fill="#F8F8F8"/>
<path d="M55.7677 65.1187C55.9284 65.3072 55.8919 65.5794 55.6861 65.7266C55.4803 65.8738 55.1832 65.8404 55.0224 65.6519C54.3866 64.904 53.3884 64.589 52.3729 64.589C51.8659 64.589 51.3574 64.6665 50.8872 64.8075C50.8544 64.8173 50.8219 64.8274 50.7895 64.8378C50.7743 64.8437 50.7589 64.8487 50.7433 64.853C50.332 64.9898 49.9566 65.1741 49.6456 65.396C49.12 65.7708 48.7795 66.2522 48.7795 66.7825C48.7795 67.3535 49.1753 67.8835 49.815 68.2785C50.5094 68.7073 51.4778 68.9726 52.5555 68.9726C53.2479 68.9726 53.8934 68.864 54.4497 68.6733C55.0135 68.48 55.4845 68.2052 55.8162 67.8771C55.9933 67.7017 56.2921 67.691 56.4836 67.8533C56.513 67.8782 56.5381 67.9057 56.559 67.9351L56.5596 67.9348C56.7711 68.2323 57.1369 68.4893 57.6035 68.6743C58.0792 68.8628 58.656 68.9726 59.2828 68.9726C60.1252 68.9726 60.8804 68.7722 61.4205 68.4484C61.9011 68.1601 62.1984 67.7792 62.1984 67.374C62.1984 66.9958 61.9406 66.6389 61.5175 66.3594C61.0358 66.0411 60.3541 65.8276 59.5801 65.7832C59.319 65.7682 59.1206 65.5621 59.137 65.323C59.1389 65.2962 59.1433 65.2701 59.1502 65.2449L59.15 65.2449C59.1701 65.172 59.1856 65.0963 59.1963 65.0177C59.2065 64.9424 59.2118 64.8651 59.2118 64.7862C59.2118 64.1926 58.9044 63.652 58.4075 63.2579C57.8919 62.849 57.1743 62.5961 56.3769 62.5961C55.6995 62.5961 55.0795 62.7789 54.5917 63.0851C54.2456 63.3024 53.9668 63.5819 53.7837 63.901C54.5464 64.1086 55.2431 64.5017 55.7677 65.1187ZM52.0218 25.4502C52.2072 25.2805 52.5076 25.2805 52.6929 25.4502C52.8782 25.62 52.8782 25.8952 52.6929 26.0649L48.526 29.8818C48.3407 30.0515 48.0402 30.0515 47.8549 29.8818C47.6696 29.712 47.6696 29.4368 47.8549 29.2671L52.0218 25.4502ZM54.8517 30.8388C55.1138 30.8388 55.3262 31.0334 55.3262 31.2735C55.3262 31.5135 55.1138 31.7082 54.8517 31.7082H48.9588C48.6967 31.7082 48.4842 31.5135 48.4842 31.2735C48.4842 31.0334 48.6967 30.8388 48.9588 30.8388H54.8517ZM37.8194 31.7082C37.5573 31.7082 37.3449 31.5135 37.3449 31.2735C37.3449 31.0334 37.5573 30.8387 37.8194 30.8387H43.7124C43.9745 30.8387 44.1869 31.0334 44.1869 31.2735C44.1869 31.5135 43.9745 31.7082 43.7124 31.7082H37.8194ZM39.9782 26.0649C39.7929 25.8952 39.7929 25.6199 39.9782 25.4502C40.1635 25.2805 40.464 25.2805 40.6493 25.4502L44.8162 29.2671C45.0015 29.4368 45.0015 29.712 44.8162 29.8818C44.6309 30.0515 44.3305 30.0515 44.1452 29.8818L39.9782 26.0649ZM45.861 23.4728C45.861 23.2327 46.0735 23.0381 46.3356 23.0381C46.5977 23.0381 46.8101 23.2327 46.8101 23.4728V28.8706C46.8101 29.1107 46.5977 29.3053 46.3356 29.3053C46.0735 29.3053 45.861 29.1107 45.861 28.8706V23.4728ZM7.38725 68.0263C7.64934 68.0263 7.86182 68.221 7.86182 68.461C7.86182 68.7011 7.64934 68.8957 7.38725 68.8957H2.74419C2.4821 68.8957 2.26962 68.7011 2.26962 68.461C2.26962 68.221 2.4821 68.0263 2.74419 68.0263H4.19727V64.8136C3.76371 64.682 3.3678 64.469 3.0404 64.185C3.03132 64.1771 3.02267 64.169 3.01444 64.1606C2.51401 63.7152 2.18266 63.1055 2.13308 62.3704C1.67755 62.2522 1.26821 62.0518 0.933872 61.7916C0.356889 61.3425 0 60.7174 0 60.0227C0 59.3726 0.314095 58.7827 0.829526 58.3408C1.22267 58.0037 1.73374 57.7543 2.30888 57.6345C2.30395 57.5646 2.30143 57.4979 2.30143 57.4349C2.30143 56.6003 2.63293 55.8418 3.16887 55.2902C3.71804 54.725 4.48055 54.3754 5.32625 54.3754C6.04456 54.3754 6.70329 54.6281 7.22274 55.0512C7.64463 55.3949 7.9735 55.8526 8.16449 56.378C8.53651 56.3527 8.91194 56.3847 9.2744 56.4666V50.2831C9.2744 50.2456 9.2796 50.2092 9.28935 50.1745H7.95643C7.85651 50.1745 7.75451 50.1605 7.65512 50.1347C7.46121 50.0844 7.27728 49.9857 7.14039 49.8563C6.97819 49.703 6.87479 49.5066 6.87479 49.2865C6.87479 49.2197 6.88517 49.1504 6.90717 49.0792L11.1427 35.3866C11.2114 35.1645 11.3237 34.95 11.4975 34.7909C11.6757 34.6276 11.9035 34.5257 12.192 34.5257H29.3881V29.6428C29.3881 29.3734 29.5081 29.1288 29.7014 28.9517C29.8947 28.7747 30.1618 28.6648 30.4559 28.6648H33.6642C33.9583 28.6648 34.2254 28.7747 34.4187 28.9517C34.612 29.1288 34.732 29.3734 34.732 29.6428V34.5257H55.02C55.3085 34.5257 55.5363 34.6276 55.7145 34.7909C55.8882 34.95 56.0005 35.1645 56.0693 35.3866L59.1979 45.5008C59.8146 45.0528 60.5636 44.7907 61.3733 44.7907C62.2798 44.7907 63.1111 45.1204 63.7665 45.6725C64.3266 46.1443 64.7568 46.781 64.991 47.5123C65.5592 47.4583 66.1374 47.515 66.689 47.6649C67.4507 47.8719 68.1641 48.2574 68.7306 48.7749C69.4977 49.4757 70 50.4173 70 51.4878C70 52.5969 69.4593 53.5996 68.5851 54.3239C67.8358 54.9448 66.8416 55.3596 65.7368 55.4573L65.7369 55.47C65.7369 55.5321 65.7345 55.5954 65.7299 55.6597C66.3954 55.7727 66.9871 56.0186 67.4398 56.3538C68.038 56.7966 68.4025 57.3938 68.4025 58.0578C68.4025 58.7653 67.9895 59.3966 67.3216 59.8454C66.696 60.2658 65.84 60.5258 64.9021 60.5258C64.3185 60.5258 63.7665 60.4251 63.2823 60.2478V69.5654C63.2823 69.8055 63.0699 70.0001 62.8078 70.0001C62.5457 70.0001 62.3332 69.8055 62.3332 69.5654V68.9001C62.2131 68.9981 62.0815 69.09 61.9395 69.1751C61.2526 69.5871 60.3127 69.842 59.2828 69.842C58.5302 69.842 57.8239 69.7047 57.229 69.469C56.7917 69.2956 56.4132 69.0675 56.1175 68.799C55.7418 69.0773 55.2883 69.3106 54.7797 69.485C54.116 69.7124 53.3574 69.842 52.5555 69.842C51.2857 69.842 50.1287 69.5196 49.2848 68.9985C49.0238 68.8373 48.7918 68.6569 48.5938 68.4605C48.5814 68.4614 48.5688 68.4619 48.5561 68.4619H45.7478C45.5863 68.6837 45.3932 68.8877 45.1737 69.0696C44.4906 69.6357 43.5517 69.9858 42.519 69.9858C41.8647 69.9858 41.2464 69.8442 40.7061 69.5957C40.3523 69.433 40.0331 69.2245 39.7599 68.9797C39.5424 69.2137 39.2769 69.4158 38.9757 69.576C38.4887 69.835 37.908 69.9858 37.2867 69.9858C36.4409 69.9858 35.6713 69.7067 35.1107 69.2555C34.8298 69.0294 34.6009 68.7606 34.4399 68.4619H10.3422C10.048 68.4619 9.78099 68.352 9.5877 68.1749C9.3944 67.9979 9.2744 67.7532 9.2744 67.4838V62.3795C9.12661 62.413 8.97519 62.4393 8.82076 62.4579C8.84033 62.5912 8.85048 62.7274 8.85048 62.8658C8.85048 63.6316 8.43278 64.1407 7.8135 64.4713C7.50753 64.6347 7.15214 64.7491 6.77874 64.8266V68.0263H7.38725ZM5.14641 68.0263H5.8296V64.9502C5.63371 64.9628 5.43993 64.9682 5.25251 64.9682C5.21706 64.9682 5.1817 64.9677 5.14641 64.9667V68.0263ZM33.088 29.5342V34.5257H33.7829V29.6428C33.7829 29.6134 33.7694 29.5863 33.7476 29.5664C33.7259 29.5465 33.6963 29.5342 33.6642 29.5342H33.088ZM32.4948 34.5257V29.5342H30.4559C30.4238 29.5342 30.3942 29.5465 30.3725 29.5664C30.3508 29.5863 30.3373 29.6134 30.3373 29.6428V34.5257H32.4948ZM60.7009 65.0761V60.2412C60.1533 60.4236 59.5416 60.5258 58.8978 60.5258C58.4276 60.5258 57.9713 60.4702 57.542 60.3678C57.3309 60.3174 57.1274 60.2558 56.9332 60.1841V61.7597C57.7423 61.8564 58.4695 62.1605 59.0266 62.6024C59.7274 63.1582 60.1609 63.9301 60.1609 64.7862C60.1609 64.8473 60.1587 64.9083 60.1542 64.969C60.342 64.9963 60.5246 65.0322 60.7009 65.0761ZM61.65 59.8077V65.4173C61.7994 65.4905 61.9399 65.5704 62.07 65.6564C62.1629 65.7178 62.2507 65.7823 62.3332 65.8496V59.7956C62.3332 59.7771 62.3345 59.7589 62.3369 59.741C62.2426 59.6696 62.1542 59.5941 62.0724 59.5151C61.9413 59.6194 61.8001 59.7172 61.65 59.8077ZM61.8215 55.8212C61.971 56.0181 61.9179 56.2888 61.7029 56.4257C61.4878 56.5626 61.1924 56.514 61.0429 56.317C60.4853 55.5822 59.6164 55.2728 58.7348 55.2728C58.3553 55.2728 57.9748 55.3287 57.6155 55.4318C57.2569 55.5347 56.9187 55.6847 56.6229 55.873C56.0023 56.2681 55.5786 56.8298 55.5786 57.4663C55.5786 57.7922 55.6883 58.1023 55.8837 58.3799C56.0523 58.6194 56.285 58.8364 56.5673 59.0209C56.6745 59.0439 56.7678 59.1003 56.8333 59.1774C57.1172 59.3275 57.4359 59.447 57.7793 59.5289C58.1255 59.6115 58.5016 59.6564 58.8978 59.6564C59.5014 59.6564 60.0659 59.5496 60.554 59.3622C61.0466 59.173 61.4595 58.9023 61.7523 58.5778C61.9192 58.3931 62.218 58.3672 62.4197 58.5201C62.4701 58.5583 62.5096 58.604 62.538 58.654C62.7257 58.9404 63.0417 59.1872 63.442 59.3649C63.8569 59.5491 64.3585 59.6564 64.9021 59.6564C65.6353 59.6564 66.2923 59.4612 66.7618 59.1457C67.1891 58.8586 67.4534 58.4733 67.4534 58.0578C67.4534 57.67 67.2236 57.3087 66.8466 57.0296C66.4266 56.7187 65.8339 56.5101 65.1624 56.467C64.9013 56.451 64.7038 56.2442 64.7212 56.0051C64.7234 55.9748 64.729 55.9455 64.7375 55.9174C64.753 55.8507 64.7654 55.7804 64.7743 55.7066C64.7832 55.6334 64.7878 55.5545 64.7878 55.47C64.7878 54.8666 64.5124 54.3203 64.0672 53.9247C63.6189 53.5263 62.9972 53.2799 62.3085 53.2799C61.7239 53.2799 61.1875 53.4576 60.7643 53.7553C60.4501 53.9763 60.1981 54.2631 60.035 54.5918C60.7233 54.8033 61.3504 55.2004 61.8215 55.8212ZM58.7348 54.4034C58.8537 54.4034 58.9724 54.4078 59.0906 54.4166C59.3113 53.8796 59.6956 53.4133 60.1896 53.0659C60.7731 52.6555 61.5093 52.4105 62.3085 52.4105C63.2512 52.4105 64.1064 52.7516 64.7272 53.3032C65.1272 53.6587 65.4295 54.1013 65.5948 54.5963C66.515 54.5259 67.3384 54.1897 67.9511 53.6821C68.6306 53.119 69.0509 52.3431 69.0509 51.4878C69.0509 50.6635 68.6601 49.9348 68.0632 49.3896C67.6074 48.9733 67.034 48.6632 66.4221 48.4969C65.8177 48.3327 65.178 48.3095 64.5817 48.4642C63.8863 48.6447 63.2423 49.0735 62.7746 49.8117C62.6435 50.019 62.3539 50.0897 62.1276 49.9696C61.9014 49.8496 61.8242 49.5843 61.9552 49.377C62.5015 48.5148 63.2471 47.9765 64.0672 47.705C63.8792 47.1499 63.5496 46.6685 63.1251 46.3109C62.6413 45.9035 62.0326 45.6601 61.3733 45.6601C60.5955 45.6601 59.8867 46.0005 59.3696 46.5508C58.8357 47.1189 58.5055 47.9077 58.5055 48.7824C58.5055 48.9109 58.5109 49.0262 58.5212 49.1285C58.5316 49.2305 58.5474 49.3347 58.5684 49.4406C58.5746 49.4634 58.5789 49.4869 58.5811 49.5111C58.5891 49.6002 58.5671 49.6853 58.5229 49.758L59.4678 50.5047C59.6654 50.6613 59.687 50.935 59.516 51.116C59.345 51.297 59.0462 51.3168 58.8487 51.1602L57.4942 50.0899C57.0027 50.2204 56.5698 50.45 56.2327 50.7489C55.7708 51.1583 55.4893 51.699 55.4893 52.2894C55.4893 52.8093 55.7069 53.2901 56.0732 53.6762C56.458 54.082 57.0051 54.3852 57.639 54.5255C57.9973 54.4458 58.367 54.4034 58.7348 54.4034ZM55.984 59.7054C55.6193 59.4616 55.3142 59.1719 55.0866 58.8486C54.7938 58.4327 54.6295 57.9637 54.6295 57.4663C54.6295 56.5188 55.2187 55.7092 56.0815 55.1598C56.1742 55.1008 56.2702 55.0448 56.369 54.9919C55.9802 54.7925 55.6376 54.5386 55.3576 54.2434C54.8448 53.7027 54.5401 53.0256 54.5401 52.2894C54.5401 51.4544 54.9311 50.6961 55.5727 50.1274C55.8863 49.8493 56.26 49.6169 56.6765 49.4438L45.0055 40.2214C44.847 40.0962 44.6844 40.0326 44.5304 40.0319C44.3787 40.0312 44.2191 40.0916 44.0637 40.2143L30.2115 51.1602C30.0139 51.3168 29.7151 51.297 29.5441 51.116C29.3732 50.935 29.3948 50.6613 29.5923 50.5047L30.0103 50.1745H28.3716H25.2676V60.1237H28.7317L28.7326 60.1237L28.7336 60.1237H32.1034V50.2831C32.1034 50.0431 32.3159 49.8484 32.578 49.8484C32.8401 49.8484 33.0526 50.0431 33.0526 50.2831V60.5584V67.4838C33.0526 67.5213 33.0474 67.5577 33.0376 67.5925H34.1815C34.1774 67.5384 34.1753 67.4839 34.1753 67.429C34.1753 66.7579 34.489 66.1489 35.0037 65.6925C35.4023 65.3391 35.9219 65.0781 36.5071 64.9537C36.5012 64.8739 36.4982 64.7986 36.4982 64.7282C36.4982 63.8654 36.8302 63.0806 37.367 62.5093L37.368 62.5083L37.367 62.5076C37.9206 61.9185 38.6909 61.5541 39.5468 61.5541C40.2734 61.5541 40.9391 61.8179 41.4636 62.2597C41.8889 62.6179 42.2198 63.0954 42.4109 63.6435C42.8339 63.6141 43.2619 63.6607 43.6713 63.7719C43.7895 63.804 43.9063 63.8416 44.021 63.8843C44.0567 63.8564 44.0905 63.8305 44.1222 63.8067C45.3409 62.8933 46.5639 62.4958 47.7041 62.5398C48.8543 62.5841 49.9002 63.0744 50.7584 63.9355C51.2764 63.7957 51.8264 63.7196 52.3729 63.7196C52.5227 63.7196 52.6724 63.7253 52.8213 63.7369C53.0674 63.1911 53.5003 62.7185 54.0578 62.3685C54.6008 62.0277 55.2629 61.8033 55.984 61.743V59.7054ZM57.5629 48.9995C57.5586 48.9245 57.5564 48.8521 57.5564 48.7824C57.5564 47.8116 57.8882 46.9202 58.4384 46.2286L55.1572 35.6209C55.129 35.5298 55.0915 35.4496 55.0434 35.4056C55.0364 35.3991 55.0285 35.3951 55.02 35.3951H12.192C12.1835 35.3951 12.1756 35.3991 12.1686 35.4056C12.1205 35.4496 12.083 35.5298 12.0548 35.6209L7.8344 49.2646C7.85526 49.2796 7.88188 49.2917 7.91094 49.2992C7.92549 49.303 7.94088 49.3051 7.95643 49.3051H13.9594V43.1157L13.2604 43.668C13.0629 43.8247 12.7641 43.8049 12.5931 43.6239C12.4221 43.4429 12.4437 43.1692 12.6413 43.0126L20.526 36.7822C20.7553 36.601 21.014 36.5119 21.2803 36.5131C21.5473 36.5144 21.8056 36.6061 22.0336 36.7863L29.9132 43.0126C30.1108 43.1692 30.1323 43.4429 29.9614 43.6239C29.7904 43.8049 29.4916 43.8247 29.294 43.668L28.8461 43.3141V49.3051H31.1105L43.4445 39.5589C43.7795 39.2942 44.153 39.1641 44.5341 39.1659C44.9166 39.1676 45.2905 39.302 45.6246 39.566L57.5629 48.9995ZM5.86464 60.8421C5.60254 60.8421 5.39007 60.6475 5.39007 60.4074C5.39007 60.1673 5.60254 59.9727 5.86464 59.9727C6.69316 59.9727 7.44287 60.3011 7.98519 60.832C8.21623 61.0582 8.40914 61.321 8.55377 61.6103C9.22715 61.5578 9.82839 61.3196 10.2756 60.9612C10.7675 60.567 11.0718 60.0258 11.0718 59.4312C11.0718 58.8771 10.8076 58.3838 10.4 58.0072C10.0667 57.6992 9.63898 57.4681 9.17915 57.3424C8.72534 57.2183 8.24526 57.198 7.80091 57.3095C7.29635 57.4362 6.82884 57.7375 6.48882 58.2565C6.3547 58.4619 6.06419 58.5288 5.83998 58.4059C5.61577 58.2831 5.54274 58.017 5.67685 57.8116C6.08379 57.1904 6.63062 56.7891 7.23494 56.5709C7.0942 56.2263 6.87156 55.9272 6.59244 55.6999C6.24267 55.4149 5.80264 55.2448 5.32625 55.2448C4.76349 55.2448 4.25087 55.4828 3.87703 55.8675C3.48998 56.2659 3.25057 56.8198 3.25057 57.4349C3.25057 57.5273 3.25434 57.6083 3.26166 57.6783C3.26895 57.748 3.28059 57.8214 3.29631 57.8979C3.30193 57.9196 3.30582 57.942 3.30778 57.9649C3.32825 58.2041 3.13321 58.4131 2.87214 58.4319C2.31488 58.4734 1.82308 58.6737 1.47466 58.9725C1.14813 59.2524 0.949141 59.6211 0.949141 60.0227C0.949141 60.451 1.17709 60.8425 1.54562 61.1294C1.93614 61.4333 2.48082 61.6213 3.08702 61.6213C3.34912 61.6213 3.56159 61.8159 3.56159 62.056C3.56159 62.2932 3.35424 62.486 3.09655 62.4906C3.16485 62.9178 3.37293 63.2724 3.66918 63.5374C3.67727 63.5436 3.6852 63.55 3.69293 63.5568C4.09416 63.9047 4.65423 64.0988 5.25251 64.0988C5.97597 64.0988 6.79346 64.012 7.33893 63.7208C7.67479 63.5414 7.90134 63.2696 7.90134 62.8658C7.90134 62.2992 7.66983 61.7893 7.29556 61.4229C6.92899 61.0641 6.42304 60.8421 5.86464 60.8421ZM10.2235 56.8095C10.5347 56.9681 10.8221 57.1658 11.0711 57.3959C11.6474 57.9284 12.0209 58.6327 12.0209 59.4312C12.0209 59.6695 11.9876 59.9013 11.9245 60.1237H13.5855L13.5865 60.1237L13.5874 60.1237H16.9102V50.1745H14.434H10.2086C10.2183 50.2092 10.2235 50.2456 10.2235 50.2831V56.8095ZM11.4958 60.9931C11.3299 61.2203 11.1288 61.4287 10.8985 61.6133C10.6949 61.7764 10.4685 61.9207 10.2235 62.0429V67.4838C10.2235 67.5132 10.237 67.5403 10.2588 67.5602C10.2805 67.5801 10.3101 67.5925 10.3422 67.5925H13.1119V60.9931H11.4958ZM49.8058 64.2825C49.1754 63.7417 48.4474 63.4359 47.667 63.4058C46.8098 63.3728 45.8713 63.6688 44.9062 64.3461C45.0413 64.4401 45.1696 64.5422 45.2896 64.6517C45.8999 65.2093 46.2996 65.9589 46.2996 66.8117C46.2996 67.0812 46.2595 67.3427 46.184 67.5925H47.9944C47.8874 67.3352 47.8304 67.0638 47.8304 66.7825C47.8304 65.9619 48.3152 65.2471 49.0635 64.7134C49.2892 64.5524 49.5389 64.408 49.8058 64.2825ZM40.7201 65.5709C40.5891 65.7781 40.2994 65.8488 40.0732 65.7288C39.8469 65.6087 39.7697 65.3434 39.9008 65.1362C40.3136 64.4846 40.8703 64.0653 41.4857 63.8391C41.3429 63.4662 41.1126 63.1428 40.8222 62.8982C40.4694 62.601 40.0261 62.4235 39.5468 62.4235C38.9811 62.4235 38.4644 62.6724 38.0863 63.0748L38.0854 63.074C37.6912 63.4941 37.4473 64.0786 37.4473 64.7282C37.4473 64.8267 37.4512 64.9125 37.4586 64.9857C37.4659 65.0585 37.4773 65.1338 37.4925 65.2111C37.4987 65.2337 37.5029 65.2571 37.5051 65.2812C37.5266 65.5203 37.3324 65.7301 37.0713 65.7498C36.511 65.793 36.0155 66.0021 35.6637 66.314C35.3286 66.6111 35.1244 67.0024 35.1244 67.429C35.1244 67.8852 35.3572 68.3006 35.7336 68.6035C36.1273 68.9203 36.6762 69.1164 37.2867 69.1164C37.7382 69.1164 38.1554 69.0093 38.5011 68.8255C38.8493 68.6403 39.1245 68.3785 39.2869 68.0721L39.2871 68.0722C39.3216 68.0067 39.3745 67.9483 39.4445 67.904C39.6595 67.768 39.9541 67.8175 40.1026 68.0144C40.3552 68.3497 40.7089 68.6283 41.1288 68.8214C41.5373 69.0093 42.0111 69.1164 42.519 69.1164C43.3121 69.1164 44.0263 68.8532 44.5397 68.4278C45.0406 68.0127 45.3504 67.4412 45.3504 66.8117C45.3504 66.2052 45.0623 65.6685 44.6222 65.2664C44.2839 64.9574 43.8584 64.7273 43.4043 64.6039C42.9578 64.4826 42.486 64.4653 42.0471 64.5791C41.5375 64.7114 41.0648 65.0269 40.7201 65.5709ZM52.6688 58.7652C52.9309 58.7652 53.1434 58.9599 53.1434 59.1999C53.1434 59.44 52.9309 59.6346 52.6688 59.6346H37.0989C36.8368 59.6346 36.6244 59.44 36.6244 59.1999C36.6244 58.9599 36.8368 58.7652 37.0989 58.7652H52.6688ZM29.2072 60.9931V67.5925H32.1184C32.1086 67.5577 32.1034 67.5213 32.1034 67.4838V60.9931H29.2072ZM28.2581 67.5925V60.9931H25.2676V67.5925H28.2581ZM14.061 60.9931V67.5925H16.9102V60.9931H14.061ZM24.3184 67.5925V50.1745H17.8593V67.5925H24.3184ZM27.897 49.3051V42.5641L21.4144 37.4417C21.3621 37.4004 21.315 37.3793 21.2766 37.3792C21.2396 37.379 21.1949 37.3984 21.1451 37.4377L14.8973 42.3747C14.9046 42.4051 14.9086 42.4368 14.9086 42.4693V49.3051H17.3847H24.793H27.897ZM15.9121 43.3192C15.7886 43.4171 15.6019 43.4047 15.495 43.2916C15.3882 43.1785 15.4016 43.0074 15.5251 42.9095L20.7889 38.7502C20.9382 38.6322 21.1063 38.5743 21.2792 38.5751C21.4526 38.5759 21.6205 38.6356 21.769 38.7529L27.0293 42.9095C27.1528 43.0074 27.1663 43.1785 27.0594 43.2916C26.9526 43.4047 26.7658 43.4171 26.6423 43.3192L21.382 39.1626C21.3433 39.132 21.3074 39.1164 21.2769 39.1163C21.2474 39.1162 21.2129 39.1306 21.1759 39.1599L15.9121 43.3192ZM34.958 49.1702C34.8345 49.2681 34.6477 49.2557 34.5409 49.1426C34.434 49.0295 34.4475 48.8584 34.571 48.7605L43.8186 41.4532C44.0384 41.2795 44.2831 41.1942 44.5327 41.1953C44.7832 41.1964 45.0283 41.2847 45.2476 41.458L54.4892 48.7605C54.6127 48.8584 54.6262 49.0295 54.5193 49.1426C54.4124 49.2557 54.2257 49.2681 54.1022 49.1702L44.8606 41.8676C44.7511 41.7811 44.638 41.7371 44.5304 41.7366C44.4242 41.7361 44.3131 41.7779 44.2056 41.8629L34.958 49.1702Z" fill="#746E6E"/>
</svg>
