<svg width="1387" height="185" viewBox="0 0 1387 185" fill="none" xmlns="http://www.w3.org/2000/svg">
<path d="M164.25 176C150 176 119 176.75 119 176.75C125.25 173.5 125 164.75 122.25 157.25L106 111.25L48.75 111.5C43.5 125.75 32.75 153.5 33.25 160.75C34 171.25 34.5 173.5 39.25 176C39.25 176 0.75 178 0.25 176.25C10.25 173 19.25 152.75 25.25 138.5L84 0.749989C90 15.5 105.5 51.5 111 64.25C123.25 92.25 135 127.75 148 155.75C152.25 165 155.5 172.75 164.25 176ZM102 100.5L77.75 39.5L53.5 100.75L102 100.5ZM339.051 177.25H306.051L240.301 90V145C240.301 172 243.551 174 248.301 177.25C248.301 177.25 222.551 176.75 213.051 176.75C220.551 171.25 218.551 130 218.551 121.25V42.25C218.551 29.5 218.551 18 211.801 15.25C226.801 15.25 239.301 14.75 258.301 14.75C286.801 14.75 314.051 21.25 314.551 57C315.051 84 281.551 94 270.801 94.75C270.801 94.75 308.051 140.75 327.551 167.75C329.801 171 339.051 177.25 339.051 177.25ZM291.051 58.5C291.051 37.5 282.301 23.75 257.551 23.75C251.551 23.75 246.301 25.5 240.301 26C240.301 26 240.301 79.25 240.301 90.25C249.551 90.75 291.051 91.75 291.051 58.5ZM532.344 16C525.594 21.25 524.844 25 524.844 39L524.344 185L401.344 39.5V139C401.344 156.5 400.594 172.75 412.094 176.75C412.094 176.75 389.844 176.75 381.094 176.75C384.344 175 388.094 165.5 388.344 144.25C389.094 107.75 388.344 53 388.344 41.5C388.344 28 386.344 19.25 379.094 16C393.844 16 411.344 15 411.344 15L512.844 135.5V103C512.844 88.5 513.094 44.25 512.844 30.75C512.594 24 510.844 18 504.594 15.25C514.844 15.25 519.594 16 532.344 16ZM742.111 176C727.861 176 696.861 176.75 696.861 176.75C703.111 173.5 702.861 164.75 700.111 157.25L683.861 111.25L626.611 111.5C621.361 125.75 610.611 153.5 611.111 160.75C611.861 171.25 612.361 173.5 617.111 176C617.111 176 578.611 178 578.111 176.25C588.111 173 597.111 152.75 603.111 138.5L661.861 0.749989C667.861 15.5 683.361 51.5 688.861 64.25C701.111 92.25 712.861 127.75 725.861 155.75C730.111 165 733.361 172.75 742.111 176ZM679.861 100.5L655.611 39.5L631.361 100.75L679.861 100.5ZM928.912 15C924.162 19.75 923.162 36.75 923.162 48V127.25C923.162 161.75 894.662 179.25 859.412 179.25C821.662 179.25 795.162 166.25 795.162 127.25V41.75C795.162 29.5 794.662 17 788.412 15C788.412 15 804.162 15 822.662 15C817.162 18.5 817.912 33.25 817.912 38.5V123.75C817.912 155.25 831.912 165.5 863.662 165.5C891.662 165.5 910.412 149.75 910.412 123.5V51.5C910.412 32.75 909.162 19.25 901.162 15.25C901.162 15.25 922.162 15.75 928.912 15ZM1156.37 88.25C1156.37 142 1118.37 176.75 1066.37 176.75C1066.37 176.75 1006.37 176.75 994.123 176.75C1000.37 171.25 1002.37 167 1002.37 157.25V28.75C1002.37 16 994.873 15.25 994.873 15.25L1059.87 15C1112.62 14.75 1156.37 31.5 1156.37 88.25ZM1132.12 96.75C1132.12 43.75 1108.37 23 1052.62 23C1043.62 23 1032.62 24.75 1023.87 25.5V151.75C1023.87 174.25 1036.62 168.75 1063.37 169C1111.87 169.75 1132.12 138 1132.12 96.75ZM1385.42 96.5C1384.67 146.5 1351.67 180.5 1298.17 180.5C1244.17 180.5 1212.92 145.25 1212.92 96.5C1212.92 46 1248.92 13 1302.17 13C1356.67 13 1386.17 48.5 1385.42 96.5ZM1361.42 105.75C1361.42 67.75 1345.42 22.25 1298.17 22.25C1255.42 22.25 1236.17 47 1236.17 85C1236.17 122.5 1256.67 170.5 1303.92 170.5C1345.67 170.5 1361.42 141 1361.42 105.75Z" fill="url(#paint0_linear_111_28)"/>
<defs>
<linearGradient id="paint0_linear_111_28" x1="616.272" y1="253.164" x2="616.272" y2="3.31887" gradientUnits="userSpaceOnUse">
<stop stop-color="white" stop-opacity="0"/>
<stop offset="1" stop-color="white"/>
</linearGradient>
</defs>
</svg>
