<svg width="1233" height="169" viewBox="0 0 1233 169" fill="none" xmlns="http://www.w3.org/2000/svg">
<path d="M149.25 158.25C133.5 164.5 106.25 166.75 88.75 166.75C32.25 166.75 0.5 133 0.5 81.25C0.5 30 40.25 -6.55651e-06 93.75 -6.55651e-06C110 -6.55651e-06 133.25 1.24999 148.5 6.24999C148.5 6.24999 149.25 24 148.5 32.75C144.5 20.5 122.75 9 93.25 9C50.75 9 25.75 35.25 25.75 73C25.75 119.25 52.25 156.25 105.5 156.25C121.25 156.25 141.75 146 149 136.75L149.25 158.25ZM315.955 143L315.205 164.75H211.955C211.955 164.75 217.955 160 217.955 147.25C217.955 104 217.955 64.75 217.955 18.75C217.955 6.75 211.205 3.25 211.205 3.25L305.955 3V22.25C305.955 22.25 298.455 12.75 284.205 12.75C270.955 12.75 239.705 13 239.705 13V74.25C239.705 74.25 270.705 74.25 289.705 74.25C296.955 74.25 301.205 68.75 301.205 68.75V90.5C301.205 90.5 295.955 83 289.705 83C270.705 83 239.705 83.75 239.705 83.75C239.705 83.75 239.705 114.25 239.705 133.75C239.705 145 241.205 154.25 253.705 154.5C264.705 154.75 274.705 154.5 287.705 154.5C307.205 154.75 315.955 143 315.955 143ZM506.336 165.25H473.336L407.586 78V133C407.586 160 410.836 162 415.586 165.25C415.586 165.25 389.836 164.75 380.336 164.75C387.836 159.25 385.836 118 385.836 109.25V30.25C385.836 17.5 385.836 5.99999 379.086 3.25C394.086 3.25 406.586 2.74999 425.586 2.74999C454.086 2.74999 481.336 9.24999 481.836 45C482.336 72 448.836 82 438.086 82.75C438.086 82.75 475.336 128.75 494.836 155.75C497.086 159 506.336 165.25 506.336 165.25ZM458.336 46.5C458.336 25.5 449.586 11.75 424.836 11.75C418.836 11.75 413.586 13.5 407.586 14C407.586 14 407.586 67.25 407.586 78.25C416.836 78.75 458.336 79.75 458.336 46.5ZM695.129 158.25C679.379 164.5 652.129 166.75 634.629 166.75C578.129 166.75 546.379 133 546.379 81.25C546.379 30 586.129 -6.55651e-06 639.629 -6.55651e-06C655.879 -6.55651e-06 679.129 1.24999 694.379 6.24999C694.379 6.24999 695.129 24 694.379 32.75C690.379 20.5 668.629 9 639.129 9C596.629 9 571.629 35.25 571.629 73C571.629 119.25 598.129 156.25 651.379 156.25C667.129 156.25 687.629 146 694.879 136.75L695.129 158.25ZM897.334 164.75C897.334 164.75 870.334 165.5 860.834 164.75C866.334 162 867.584 155.75 867.584 144.5V81H785.834V141C785.834 160.75 793.334 164.75 793.334 164.75C793.334 164.75 766.334 165.5 756.834 164.75C762.334 162 763.584 155.75 763.584 144.5V74.25V20.25C763.584 13.25 761.584 6.75 756.834 3.25C756.834 3.25 771.084 3.99999 792.584 3.99999C785.834 7.24999 785.834 14.25 785.834 25.5V72.25H867.584V20.25C867.584 13.25 865.584 6.75 860.834 3.25C860.834 3.25 875.084 3.99999 896.834 3.99999C889.834 7.24999 889.834 14.25 889.834 25.5V141C889.834 160.75 897.334 164.75 897.334 164.75ZM999.301 164.75C999.301 164.75 972.301 165.5 962.801 164.75C968.301 162 969.551 155.75 969.551 144.5V74.25C969.551 59.75 969.551 29 969.551 20.25C969.551 13.25 967.551 6.75 962.801 3.25C962.801 3.25 977.051 3.99999 998.551 3.99999C991.801 7.24999 991.801 14.25 991.801 25.5C991.801 25.5 991.801 112.75 991.801 141C991.801 160.75 999.301 164.75 999.301 164.75ZM1231.75 84.5C1231 134.5 1198 168.5 1144.5 168.5C1090.5 168.5 1059.25 133.25 1059.25 84.5C1059.25 34 1095.25 0.999995 1148.5 0.999995C1203 0.999995 1232.5 36.5 1231.75 84.5ZM1207.75 93.75C1207.75 55.75 1191.75 10.25 1144.5 10.25C1101.75 10.25 1082.5 35 1082.5 73C1082.5 110.5 1103 158.5 1150.25 158.5C1192 158.5 1207.75 129 1207.75 93.75Z" fill="url(#paint0_linear_111_29)"/>
<defs>
<linearGradient id="paint0_linear_111_29" x1="540.03" y1="241.164" x2="540.03" y2="-8.68113" gradientUnits="userSpaceOnUse">
<stop stop-color="white" stop-opacity="0"/>
<stop offset="1" stop-color="white"/>
</linearGradient>
</defs>
</svg>
