<svg width="18" height="18" viewBox="0 0 18 18" fill="none" xmlns="http://www.w3.org/2000/svg">
<path d="M8.99999 10.8L8.6719 11.1774C8.86003 11.3409 9.13994 11.3409 9.32808 11.1774L8.99999 10.8ZM5.08658 11.2003C5.35222 11.1249 5.50641 10.8484 5.43097 10.5827C5.35553 10.3171 5.07904 10.1629 4.8134 10.2383L5.08658 11.2003ZM13.1866 10.2383C12.9209 10.1629 12.6444 10.3171 12.569 10.5827C12.4936 10.8484 12.6478 11.1249 12.9134 11.2003L13.1866 10.2383ZM12.1 5.32179C12.1 5.78973 11.9173 6.33977 11.5978 6.93028C11.2818 7.51409 10.8542 8.09714 10.4164 8.62058C9.98005 9.14235 9.54222 9.5946 9.21284 9.91682C9.04846 10.0776 8.91184 10.2053 8.81692 10.2923C8.76947 10.3357 8.7325 10.369 8.70773 10.3911C8.69535 10.4021 8.68603 10.4103 8.67998 10.4157C8.67696 10.4183 8.67476 10.4202 8.6734 10.4214C8.67272 10.422 8.67226 10.4224 8.672 10.4227C8.67188 10.4228 8.67181 10.4228 8.67179 10.4228C8.67178 10.4229 8.67181 10.4228 8.6718 10.4228C8.67184 10.4228 8.6719 10.4227 8.99999 10.8C9.32808 11.1774 9.32816 11.1773 9.32826 11.1772C9.32831 11.1772 9.32842 11.1771 9.32852 11.177C9.32872 11.1768 9.32897 11.1766 9.32928 11.1763C9.3299 11.1758 9.33074 11.175 9.33179 11.1741C9.3339 11.1723 9.33686 11.1697 9.34065 11.1663C9.34822 11.1597 9.35912 11.15 9.3731 11.1376C9.40107 11.1126 9.44144 11.0763 9.49243 11.0296C9.59439 10.9362 9.73902 10.801 9.91214 10.6317C10.2578 10.2935 10.7199 9.81644 11.1835 9.26213C11.6457 8.70948 12.1182 8.0697 12.4772 7.40623C12.8327 6.74946 13.1 6.02776 13.1 5.32179H12.1ZM8.99999 10.8C9.32808 10.4227 9.32813 10.4228 9.32817 10.4228C9.32817 10.4228 9.3282 10.4229 9.32819 10.4228C9.32817 10.4228 9.3281 10.4228 9.32797 10.4227C9.32772 10.4224 9.32725 10.422 9.32658 10.4214C9.32522 10.4202 9.32302 10.4183 9.31999 10.4157C9.31395 10.4103 9.30462 10.4021 9.29224 10.3911C9.26748 10.369 9.2305 10.3357 9.18306 10.2923C9.08814 10.2053 8.95152 10.0776 8.78714 9.91682C8.45776 9.5946 8.01992 9.14235 7.58353 8.62058C7.14574 8.09714 6.71817 7.51409 6.40223 6.93028C6.08266 6.33977 5.89999 5.78973 5.89999 5.32179H4.89999C4.89999 6.02776 5.16732 6.74946 5.52275 7.40623C5.88181 8.0697 6.35423 8.70948 6.81645 9.26213C7.28006 9.81644 7.74222 10.2935 8.08784 10.6317C8.26096 10.801 8.40559 10.9362 8.50754 11.0296C8.55854 11.0763 8.5989 11.1126 8.62687 11.1376C8.64086 11.15 8.65175 11.1597 8.65933 11.1663C8.66312 11.1697 8.66608 11.1723 8.66818 11.1741C8.66923 11.175 8.67007 11.1758 8.67069 11.1763C8.671 11.1766 8.67126 11.1768 8.67146 11.177C8.67156 11.1771 8.67167 11.1772 8.67172 11.1772C8.67182 11.1773 8.6719 11.1774 8.99999 10.8ZM5.89999 5.32179C5.89999 3.66323 7.27749 2.30005 8.99999 2.30005V1.30005C6.74604 1.30005 4.89999 3.09034 4.89999 5.32179H5.89999ZM8.99999 2.30005C10.7225 2.30005 12.1 3.66323 12.1 5.32179H13.1C13.1 3.09034 11.2539 1.30005 8.99999 1.30005V2.30005ZM15.7 13.2001C15.7 13.4401 15.5854 13.714 15.2833 14.0116C14.9795 14.3109 14.5142 14.6035 13.8988 14.8598C12.6704 15.3717 10.9387 15.7001 8.99999 15.7001V16.7001C11.0377 16.7001 12.906 16.3568 14.2835 15.7829C14.9711 15.4964 15.5602 15.1425 15.9851 14.724C16.4117 14.3037 16.7 13.7884 16.7 13.2001H15.7ZM8.99999 15.7001C7.06128 15.7001 5.32956 15.3717 4.10113 14.8598C3.48582 14.6035 3.02052 14.3109 2.71669 14.0116C2.41462 13.714 2.29999 13.4401 2.29999 13.2001H1.29999C1.29999 13.7884 1.5883 14.3037 2.01491 14.724C2.43976 15.1425 3.02888 15.4964 3.71651 15.7829C5.09397 16.3568 6.96225 16.7001 8.99999 16.7001V15.7001ZM2.29999 13.2001C2.29999 12.9027 2.47955 12.5474 2.96717 12.1715C3.44978 11.7995 4.17237 11.4599 5.08658 11.2003L4.8134 10.2383C3.82611 10.5187 2.9737 10.9039 2.35668 11.3795C1.74468 11.8512 1.29999 12.4663 1.29999 13.2001H2.29999ZM12.9134 11.2003C13.8276 11.4599 14.5502 11.7995 15.0328 12.1715C15.5204 12.5474 15.7 12.9027 15.7 13.2001H16.7C16.7 12.4663 16.2553 11.8512 15.6433 11.3795C15.0263 10.9039 14.1739 10.5187 13.1866 10.2383L12.9134 11.2003Z" fill="#3A3232"/>
</svg>
