<svg width="18" height="18" viewBox="0 0 18 18" fill="none" xmlns="http://www.w3.org/2000/svg">
<path d="M15.4975 14.0781C15.4975 14.0781 14.6285 14.9316 14.4155 15.1819C14.0686 15.5521 13.6599 15.7269 13.1241 15.7269C13.0725 15.7269 13.0176 15.7269 12.9661 15.7235C11.9459 15.6583 10.9979 15.2607 10.2869 14.9214C8.34286 13.9822 6.63578 12.6488 5.21722 10.9589C4.04596 9.55007 3.26283 8.24753 2.74418 6.849C2.42475 5.99549 2.30797 5.33051 2.35949 4.70323C2.39383 4.30218 2.5484 3.96969 2.83349 3.68518L4.00474 2.51632C4.17305 2.35864 4.35166 2.27295 4.52683 2.27295C4.74322 2.27295 4.91839 2.4032 5.02831 2.51289C5.03174 2.51632 5.03518 2.51975 5.03861 2.52318C5.24813 2.71856 5.44735 2.9208 5.65687 3.13674C5.76335 3.24643 5.87326 3.35612 5.98317 3.46924L6.92087 4.40501C7.28495 4.76836 7.28495 5.10428 6.92087 5.46762C6.82126 5.56702 6.72508 5.66643 6.62548 5.7624C6.33695 6.05719 6.5636 5.831 6.26478 6.09837C6.25791 6.10522 6.25104 6.10865 6.2476 6.11551C5.95221 6.41029 6.00717 6.69823 6.069 6.89361C6.07243 6.90389 6.07587 6.91417 6.0793 6.92446C6.32317 7.51403 6.66665 8.06933 7.18873 8.73088L7.19217 8.73431C8.14017 9.89975 9.13968 10.8081 10.2422 11.5039C10.3831 11.5931 10.5273 11.665 10.6647 11.7336C10.7884 11.7953 10.9052 11.8536 11.0048 11.9153C11.0185 11.9221 11.0322 11.9324 11.046 11.9393C11.1628 11.9975 11.2727 12.025 11.386 12.025C11.6711 12.025 11.8497 11.8467 11.9081 11.7884L12.5814 11.1166C12.6982 11 12.8836 10.8595 13.1 10.8595C13.313 10.8595 13.4882 10.9932 13.5946 11.1097C13.5981 11.1131 13.5981 11.1131 13.6015 11.1166L15.4941 13.0053C15.8478 13.3549 15.4975 14.0781 15.4975 14.0781Z" stroke="#3A3232" stroke-linecap="round" stroke-linejoin="round"/>
</svg>
