<svg width="18" height="18" viewBox="0 0 18 18" fill="none" xmlns="http://www.w3.org/2000/svg">
<path d="M9.65329 4.7445C10.5532 4.89532 11.3707 5.32036 12.0233 5.97163C12.6759 6.62291 13.0984 7.43871 13.2529 8.33679M9.7907 1.80005C11.3913 2.07084 12.8511 2.82838 14.012 3.98353C15.173 5.14211 15.9286 6.59891 16.2 8.19624M14.9497 14.5513C14.9497 14.5513 14.0807 15.4048 13.8677 15.655C13.5208 16.0252 13.1121 16.2 12.5763 16.2C12.5248 16.2 12.4698 16.2 12.4183 16.1966C11.3981 16.1315 10.4501 15.7339 9.73915 15.3945C7.79507 14.4553 6.08799 13.1219 4.66943 11.432C3.49817 10.0232 2.71504 8.72068 2.19639 7.32216C1.87696 6.46865 1.76017 5.80366 1.8117 5.17639C1.84604 4.77534 2.00061 4.44285 2.2857 4.15834L3.45695 2.98948C3.62526 2.8318 3.80386 2.74611 3.97904 2.74611C4.19543 2.74611 4.3706 2.87636 4.48051 2.98605C4.48395 2.98948 4.48738 2.99291 4.49082 2.99633C4.70034 3.19172 4.89956 3.39395 5.10908 3.6099C5.21556 3.71959 5.32547 3.82928 5.43538 3.94239L6.37307 4.87817C6.73716 5.24151 6.73716 5.57743 6.37307 5.94078C6.27347 6.04018 6.17729 6.13958 6.07768 6.23556C5.78916 6.53035 6.01581 6.30416 5.71699 6.57153C5.71012 6.57838 5.70325 6.58181 5.69981 6.58866C5.40442 6.88345 5.45938 7.17138 5.52121 7.36676C5.52464 7.37705 5.52807 7.38733 5.53151 7.39761C5.77538 7.98719 6.11886 8.54248 6.64094 9.20404L6.64438 9.20747C7.59237 10.3729 8.59189 11.2813 9.69445 11.9771C9.83528 12.0662 9.97954 12.1382 10.1169 12.2068C10.2406 12.2685 10.3574 12.3267 10.457 12.3884C10.4707 12.3953 10.4845 12.4056 10.4982 12.4124C10.615 12.4707 10.7249 12.4981 10.8382 12.4981C11.1233 12.4981 11.3019 12.3199 11.3603 12.2616L12.0336 11.5897C12.1504 11.4732 12.3358 11.3326 12.5522 11.3326C12.7652 11.3326 12.9404 11.4663 13.0468 11.5829C13.0503 11.5863 13.0503 11.5863 13.0537 11.5897L14.9463 13.4784C15.3 13.828 14.9497 14.5513 14.9497 14.5513Z" stroke="#3A3232" stroke-linecap="round" stroke-linejoin="round"/>
</svg>
